{"glyphs":{"0":{"ha":803,"x_min":74,"x_max":729,"o":"m 528 831 q 403 885 475 885 q 277 831 331 885 q 199 683 224 778 q 172 467 172 592 q 275 114 172 218 q 401 60 328 60 q 528 112 475 60 q 606 257 581 164 q 629 467 629 349 q 528 831 629 725 m 649 119 q 401 -15 565 -15 q 156 119 239 -15 q 74 467 74 251 q 156 819 74 685 q 401 961 242 961 q 647 819 561 961 q 729 467 729 685 q 649 119 729 249 z "},"1":{"ha":382,"x_min":38,"x_max":279,"o":"m 65 804 l 38 879 l 197 943 l 279 943 l 279 0 l 186 0 l 186 856 l 65 804 z "},"2":{"ha":732,"x_min":36,"x_max":671,"o":"m 36 735 q 361 963 139 963 q 576 896 489 963 q 671 683 671 824 q 590 475 671 569 q 417 314 521 393 q 239 161 290 215 q 181 78 200 117 l 657 78 l 657 0 l 65 0 q 169 224 65 119 q 372 396 231 285 q 542 575 500 493 q 568 685 568 626 q 511 828 568 774 q 369 883 454 883 q 118 701 201 883 l 36 735 z "},"3":{"ha":703,"x_min":57,"x_max":643,"o":"m 440 526 q 591 427 539 499 q 643 260 643 356 q 568 72 643 151 q 351 -15 485 -15 q 172 35 253 -15 q 57 203 83 89 l 138 231 q 343 61 192 61 q 491 117 436 61 q 546 254 546 172 q 480 429 546 374 q 283 485 414 485 l 283 557 q 461 614 408 557 q 504 735 504 661 q 463 845 504 801 q 350 889 422 889 q 147 768 225 889 l 79 808 q 344 963 178 963 q 528 902 460 963 q 596 742 596 842 q 556 608 596 667 q 440 526 515 550 z "},"4":{"ha":778,"x_min":85,"x_max":729,"o":"m 475 857 l 189 301 l 475 301 l 475 857 m 85 300 l 435 943 l 565 943 l 565 301 l 729 301 l 729 229 l 567 229 l 567 0 l 475 0 l 475 229 l 85 229 l 85 300 z "},"5":{"ha":750,"x_min":64,"x_max":690,"o":"m 619 506 q 690 297 690 418 q 638 110 690 183 q 486 1 581 29 q 376 -14 432 -14 q 64 199 149 -14 l 144 231 q 240 106 181 151 q 369 61 300 61 q 539 132 482 61 q 594 292 594 199 q 543 450 594 382 q 388 521 489 521 q 178 440 281 521 l 118 479 l 181 943 l 632 943 l 632 861 l 265 861 l 221 551 l 224 553 q 392 597 306 597 q 619 506 546 597 z "},"6":{"ha":775,"x_min":81,"x_max":699,"o":"m 182 390 q 201 232 182 313 q 268 110 217 161 q 401 60 317 60 q 542 125 485 60 q 600 308 600 192 q 542 483 600 429 q 400 533 486 533 q 183 450 294 533 q 182 390 182 439 m 401 610 q 610 535 524 610 q 699 311 699 456 q 649 128 699 211 q 506 4 594 39 q 401 -15 456 -15 q 158 110 239 -15 q 81 451 81 231 q 174 828 81 693 q 413 961 267 961 q 621 900 510 961 l 594 828 q 414 883 496 883 q 224 729 279 883 q 188 533 193 647 q 401 610 293 610 z "},"7":{"ha":706,"x_min":81,"x_max":629,"o":"m 90 876 l 81 951 l 629 951 l 629 879 l 268 3 l 167 4 l 531 876 l 90 876 z "},"8":{"ha":747,"x_min":68,"x_max":685,"o":"m 579 710 q 521 846 579 801 q 382 888 467 888 q 269 864 315 888 q 192 779 213 835 q 179 711 179 747 q 194 642 179 682 q 238 590 204 618 q 268 571 243 585 q 301 554 286 561 q 381 525 331 539 q 425 511 389 521 q 579 710 579 589 m 256 489 q 143 569 201 513 q 82 710 82 628 q 115 838 82 788 q 200 919 150 893 q 318 958 253 947 q 382 963 350 963 q 554 924 481 963 q 661 803 635 882 q 675 708 675 761 q 607 556 675 621 q 494 485 551 504 q 633 389 588 439 q 681 289 669 346 q 685 235 685 267 q 632 90 685 151 q 478 -1 575 25 q 367 -15 428 -15 q 149 58 232 -15 q 68 225 68 128 q 256 489 68 381 m 171 236 q 224 110 171 160 q 376 54 276 54 q 519 100 456 54 q 589 238 589 150 q 561 336 589 288 q 486 400 544 364 q 382 444 450 421 q 324 461 357 450 q 210 358 250 417 q 171 236 171 299 z "},"9":{"ha":771,"x_min":76,"x_max":692,"o":"m 593 557 q 575 714 593 633 q 507 836 556 789 q 372 885 456 885 q 233 822 288 885 q 174 639 174 753 q 235 465 174 518 q 382 414 292 414 q 592 497 478 414 q 593 557 593 508 m 451 347 q 382 338 418 338 q 168 414 258 338 q 76 636 76 490 q 107 792 76 718 q 206 913 136 863 q 379 963 274 963 q 692 496 692 963 q 599 118 692 247 q 357 -12 507 -12 q 146 49 261 -12 l 172 119 q 356 64 274 64 q 516 153 456 64 q 588 414 576 243 q 451 347 519 363 z "},"\u0000":{"ha":0,"x_min":0,"x_max":0,"o":""},"A":{"ha":785,"x_min":17,"x_max":768,"o":"m 357 776 q 325 671 332 697 l 215 328 l 564 328 l 454 671 q 388 878 417 782 q 357 776 375 832 m 17 0 l 331 943 l 454 943 l 768 0 l 672 0 l 585 257 l 193 257 l 111 0 l 17 0 z "},"Æ":{"ha":1307,"x_min":-24,"x_max":1299,"o":"m -24 0 l 561 943 l 1292 943 l 1292 871 l 721 871 l 721 540 l 1188 540 l 1188 503 q 1186 465 1186 486 l 721 465 l 721 72 l 1299 72 l 1299 0 l 625 0 l 625 257 l 239 257 l 81 0 l -24 0 m 628 328 l 628 907 q 611 876 628 906 q 536 751 558 783 q 278 328 293 351 l 628 328 z "},"Á":{"ha":785,"x_min":17,"x_max":768,"o":"m 494 1253 l 619 1253 l 422 1044 l 363 1044 l 494 1253 m 357 776 q 325 671 332 697 l 215 328 l 564 328 l 454 671 q 388 878 417 782 q 357 776 375 832 m 17 0 l 331 943 l 454 943 l 768 0 l 672 0 l 585 257 l 193 257 l 111 0 l 17 0 z "},"Ă":{"ha":785,"x_min":17,"x_max":768,"o":"m 289 1208 q 316 1136 289 1161 q 392 1111 343 1111 q 467 1136 440 1111 q 494 1208 494 1161 l 569 1208 q 517 1089 568 1133 q 393 1044 467 1044 q 267 1089 318 1044 q 215 1208 217 1133 l 289 1208 m 357 776 q 325 671 332 697 l 215 328 l 564 328 l 454 671 q 388 878 417 782 q 357 776 375 832 m 17 0 l 331 943 l 454 943 l 768 0 l 672 0 l 585 257 l 193 257 l 111 0 l 17 0 z "},"Â":{"ha":785,"x_min":17,"x_max":768,"o":"m 331 1253 l 456 1253 l 568 1044 l 508 1044 l 393 1186 l 276 1044 l 217 1044 l 331 1253 m 357 776 q 325 671 332 697 l 215 328 l 564 328 l 454 671 q 388 878 417 782 q 357 776 375 832 m 17 0 l 331 943 l 454 943 l 768 0 l 672 0 l 585 257 l 193 257 l 111 0 l 17 0 z "},"Ä":{"ha":785,"x_min":17,"x_max":768,"o":"m 218 1157 l 325 1157 l 325 1044 l 218 1044 l 218 1157 m 568 1157 l 568 1044 l 461 1044 l 461 1157 l 568 1157 m 357 776 q 325 671 332 697 l 215 328 l 564 328 l 454 671 q 388 878 417 782 q 357 776 375 832 m 17 0 l 331 943 l 454 943 l 768 0 l 672 0 l 585 257 l 193 257 l 111 0 l 17 0 z "},"À":{"ha":785,"x_min":17,"x_max":768,"o":"m 167 1253 l 292 1253 l 424 1046 l 363 1044 l 167 1253 m 357 776 q 325 671 332 697 l 215 328 l 564 328 l 454 671 q 388 878 417 782 q 357 776 375 832 m 17 0 l 331 943 l 454 943 l 768 0 l 672 0 l 585 257 l 193 257 l 111 0 l 17 0 z "},"Ā":{"ha":785,"x_min":17,"x_max":768,"o":"m 246 1044 l 246 1117 l 539 1117 l 539 1044 l 246 1044 m 357 776 q 325 671 332 697 l 215 328 l 564 328 l 454 671 q 388 878 417 782 q 357 776 375 832 m 17 0 l 331 943 l 454 943 l 768 0 l 672 0 l 585 257 l 193 257 l 111 0 l 17 0 z "},"Ą":{"ha":785,"x_min":-36,"x_max":768,"o":"m 357 776 q 325 671 332 697 l 215 328 l 564 328 l 454 671 q 388 878 417 782 q 357 776 375 832 m 17 0 l 331 943 l 454 943 l 768 0 l 672 0 l 585 257 l 193 257 l 111 0 l 17 0 m 92 0 q 78 -33 90 -1 q 69 -50 75 -39 q 57 -82 61 -69 l 51 -99 q 43 -128 44 -121 q 42 -142 42 -133 q 89 -182 42 -182 q 113 -179 93 -182 l 113 -232 q 69 -237 92 -237 q -7 -214 22 -237 q -36 -156 -36 -190 q -9 -68 -36 -117 q 46 0 18 -19 l 92 0 z "},"Å":{"ha":785,"x_min":17,"x_max":768,"o":"m 390 1006 q 448 1031 426 1006 q 469 1090 469 1056 q 448 1150 469 1125 q 390 1175 426 1175 q 333 1150 354 1175 q 311 1090 311 1125 q 331 1031 311 1058 q 390 1006 353 1006 m 498 1190 q 518 1170 498 1190 q 538 1092 538 1150 q 497 992 538 1033 q 390 951 457 951 q 286 992 325 951 q 247 1090 247 1032 q 286 1189 247 1149 q 390 1229 325 1229 q 498 1190 458 1229 m 357 776 q 325 671 332 697 l 215 328 l 564 328 l 454 671 q 388 878 417 782 q 357 776 375 832 m 17 0 l 331 943 l 454 943 l 768 0 l 672 0 l 585 257 l 193 257 l 111 0 l 17 0 z "},"Ã":{"ha":785,"x_min":17,"x_max":768,"o":"m 307 1101 q 288 1088 296 1101 q 279 1044 279 1074 l 217 1044 q 215 1071 215 1050 q 299 1167 215 1167 q 397 1138 326 1167 q 481 1107 464 1107 q 506 1169 506 1107 l 569 1169 l 569 1147 q 544 1072 569 1097 q 483 1046 519 1046 q 386 1074 450 1046 q 307 1101 326 1099 m 357 776 q 325 671 332 697 l 215 328 l 564 328 l 454 671 q 388 878 417 782 q 357 776 375 832 m 17 0 l 331 943 l 454 943 l 768 0 l 672 0 l 585 257 l 193 257 l 111 0 l 17 0 z "},"B":{"ha":833,"x_min":94,"x_max":782,"o":"m 94 0 l 94 943 l 379 943 q 538 932 453 943 q 668 886 608 922 q 743 785 724 851 q 753 706 753 751 q 579 510 753 542 q 731 426 679 489 q 782 267 782 363 q 679 54 782 110 q 356 0 581 0 l 94 0 m 190 469 l 190 68 l 392 68 q 513 75 457 68 q 617 110 569 82 q 681 197 663 138 q 689 268 689 228 q 669 372 689 326 q 615 432 654 408 q 535 463 581 453 q 435 469 511 465 l 381 469 l 190 469 m 189 875 l 189 540 l 335 540 l 401 540 q 507 546 472 540 q 586 564 568 556 q 638 601 622 581 q 661 665 656 628 q 664 708 664 690 q 647 794 664 757 q 597 844 635 819 q 524 867 578 857 q 433 875 494 872 l 382 875 l 189 875 z "},"C":{"ha":869,"x_min":74,"x_max":821,"o":"m 818 710 l 731 690 q 642 833 708 782 q 472 885 576 885 q 243 783 314 885 q 172 475 172 681 q 211 211 172 307 q 353 76 253 110 q 474 60 406 60 q 740 243 674 60 l 821 218 q 692 44 783 103 q 468 -15 600 -15 q 170 103 267 -15 q 74 475 74 221 q 475 961 74 961 q 695 897 606 961 q 818 710 785 832 z "},"Ć":{"ha":869,"x_min":74,"x_max":821,"o":"m 578 1253 l 703 1253 l 506 1044 l 446 1044 l 578 1253 m 818 710 l 731 690 q 642 833 708 782 q 472 885 576 885 q 243 783 314 885 q 172 475 172 681 q 211 211 172 307 q 353 76 253 110 q 474 60 406 60 q 740 243 674 60 l 821 218 q 692 44 783 103 q 468 -15 600 -15 q 170 103 267 -15 q 74 475 74 221 q 475 961 74 961 q 695 897 606 961 q 818 710 785 832 z "},"Č":{"ha":869,"x_min":74,"x_max":821,"o":"m 536 1044 l 411 1044 l 318 1253 l 376 1253 l 475 1104 l 571 1253 l 631 1253 l 536 1044 m 818 710 l 731 690 q 642 833 708 782 q 472 885 576 885 q 243 783 314 885 q 172 475 172 681 q 211 211 172 307 q 353 76 253 110 q 474 60 406 60 q 740 243 674 60 l 821 218 q 692 44 783 103 q 468 -15 600 -15 q 170 103 267 -15 q 74 475 74 221 q 475 961 74 961 q 695 897 606 961 q 818 710 785 832 z "},"Ç":{"ha":869,"x_min":74,"x_max":821,"o":"m 404 -112 l 404 -7 l 533 -7 l 533 -121 q 511 -214 533 -176 q 446 -251 489 -251 q 419 -246 431 -251 l 419 -203 q 443 -208 436 -208 q 464 -189 457 -208 q 469 -112 469 -172 l 404 -112 m 818 710 l 731 690 q 642 833 708 782 q 472 885 576 885 q 243 783 314 885 q 172 475 172 681 q 211 211 172 307 q 353 76 253 110 q 474 60 406 60 q 740 243 674 60 l 821 218 q 692 44 783 103 q 468 -15 600 -15 q 170 103 267 -15 q 74 475 74 221 q 475 961 74 961 q 695 897 606 961 q 818 710 785 832 z "},"Ĉ":{"ha":869,"x_min":74,"x_max":821,"o":"m 414 1253 l 539 1253 l 651 1044 l 592 1044 l 476 1186 l 360 1044 l 300 1044 l 414 1253 m 818 710 l 731 690 q 642 833 708 782 q 472 885 576 885 q 243 783 314 885 q 172 475 172 681 q 211 211 172 307 q 353 76 253 110 q 474 60 406 60 q 740 243 674 60 l 821 218 q 692 44 783 103 q 468 -15 600 -15 q 170 103 267 -15 q 74 475 74 221 q 475 961 74 961 q 695 897 606 961 q 818 710 785 832 z "},"Ċ":{"ha":869,"x_min":74,"x_max":821,"o":"m 417 1183 q 428 1194 417 1183 q 475 1206 439 1206 q 532 1183 511 1206 q 553 1125 553 1160 q 532 1067 553 1090 q 475 1044 511 1044 q 417 1067 439 1044 q 396 1125 396 1090 q 417 1183 396 1160 m 818 710 l 731 690 q 642 833 708 782 q 472 885 576 885 q 243 783 314 885 q 172 475 172 681 q 211 211 172 307 q 353 76 253 110 q 474 60 406 60 q 740 243 674 60 l 821 218 q 692 44 783 103 q 468 -15 600 -15 q 170 103 267 -15 q 74 475 74 221 q 475 961 74 961 q 695 897 606 961 q 818 710 785 832 z "},"D":{"ha":903,"x_min":94,"x_max":829,"o":"m 94 943 l 419 943 q 725 840 622 943 q 829 475 829 735 q 650 47 829 139 q 415 0 561 0 l 94 0 l 94 943 m 190 869 l 190 74 l 385 74 q 661 167 583 74 q 738 475 738 261 q 672 767 738 669 q 421 869 604 869 l 190 869 z "},"Ď":{"ha":903,"x_min":94,"x_max":829,"o":"m 524 1044 l 399 1044 l 306 1253 l 364 1253 l 463 1104 l 558 1253 l 618 1253 l 524 1044 m 94 943 l 419 943 q 725 840 622 943 q 829 475 829 735 q 650 47 829 139 q 415 0 561 0 l 94 0 l 94 943 m 190 869 l 190 74 l 385 74 q 661 167 583 74 q 738 475 738 261 q 672 767 738 669 q 421 869 604 869 l 190 869 z "},"Đ":{"ha":990,"x_min":94,"x_max":917,"o":"m 279 875 l 279 511 l 451 511 l 451 454 l 279 454 l 279 74 l 476 74 q 751 168 672 74 q 824 478 824 260 q 786 726 824 640 q 640 858 747 821 q 511 875 578 875 l 279 875 m 94 454 l 94 511 l 183 511 l 183 950 l 511 950 q 814 846 714 950 q 917 478 917 738 q 820 111 917 222 q 507 0 724 0 l 183 0 l 183 454 l 94 454 z "},"E":{"ha":736,"x_min":94,"x_max":726,"o":"m 726 0 l 94 0 l 94 943 l 719 943 l 719 871 l 190 871 l 190 540 l 650 540 l 650 465 l 190 465 l 190 72 l 726 72 l 726 0 z "},"É":{"ha":736,"x_min":94,"x_max":726,"o":"m 508 1253 l 633 1253 l 436 1044 l 376 1044 l 508 1253 m 726 0 l 94 0 l 94 943 l 719 943 l 719 871 l 190 871 l 190 540 l 650 540 l 650 465 l 190 465 l 190 72 l 726 72 l 726 0 z "},"Ě":{"ha":736,"x_min":94,"x_max":726,"o":"m 469 1044 l 344 1044 l 251 1253 l 310 1253 l 408 1104 l 504 1253 l 564 1253 l 469 1044 m 726 0 l 94 0 l 94 943 l 719 943 l 719 871 l 190 871 l 190 540 l 650 540 l 650 465 l 190 465 l 190 72 l 726 72 l 726 0 z "},"Ê":{"ha":736,"x_min":94,"x_max":726,"o":"m 344 1253 l 469 1253 l 582 1044 l 522 1044 l 407 1186 l 290 1044 l 231 1044 l 344 1253 m 726 0 l 94 0 l 94 943 l 719 943 l 719 871 l 190 871 l 190 540 l 650 540 l 650 465 l 190 465 l 190 72 l 726 72 l 726 0 z "},"Ë":{"ha":736,"x_min":94,"x_max":726,"o":"m 232 1157 l 339 1157 l 339 1044 l 232 1044 l 232 1157 m 582 1157 l 582 1044 l 475 1044 l 475 1157 l 582 1157 m 726 0 l 94 0 l 94 943 l 719 943 l 719 871 l 190 871 l 190 540 l 650 540 l 650 465 l 190 465 l 190 72 l 726 72 l 726 0 z "},"È":{"ha":736,"x_min":94,"x_max":726,"o":"m 181 1253 l 306 1253 l 438 1046 l 376 1044 l 181 1253 m 726 0 l 94 0 l 94 943 l 719 943 l 719 871 l 190 871 l 190 540 l 650 540 l 650 465 l 190 465 l 190 72 l 726 72 l 726 0 z "},"Ē":{"ha":736,"x_min":94,"x_max":726,"o":"m 260 1044 l 260 1117 l 553 1117 l 553 1044 l 260 1044 m 726 0 l 94 0 l 94 943 l 719 943 l 719 871 l 190 871 l 190 540 l 650 540 l 650 465 l 190 465 l 190 72 l 726 72 l 726 0 z "},"Ę":{"ha":736,"x_min":94,"x_max":726,"o":"m 456 8 q 442 -25 454 7 q 433 -42 439 -31 q 421 -74 425 -61 l 415 -90 q 407 -119 408 -112 q 406 -133 406 -125 q 453 -174 406 -174 q 476 -171 457 -174 l 476 -224 q 433 -229 456 -229 q 357 -206 386 -229 q 328 -147 328 -182 q 355 -60 328 -108 q 410 8 382 -11 l 456 8 m 726 0 l 94 0 l 94 943 l 719 943 l 719 871 l 190 871 l 190 540 l 650 540 l 650 465 l 190 465 l 190 72 l 726 72 l 726 0 z "},"Ð":{"ha":896,"x_min":0,"x_max":818,"o":"m 185 869 l 185 508 l 356 508 l 356 453 l 185 453 l 185 74 l 381 74 q 653 167 575 74 q 725 475 725 256 q 689 724 725 638 q 543 853 647 818 q 415 869 489 869 l 185 869 m 0 453 l 0 508 l 90 508 l 90 943 l 414 943 q 717 840 618 943 q 818 475 818 735 q 722 111 818 222 q 410 0 626 0 l 90 0 l 90 453 l 0 453 z "},"€":{"ha":822,"x_min":-8,"x_max":743,"o":"m 649 47 q 442 -14 586 -14 q 193 83 286 -14 q 79 378 100 181 l -8 378 l -8 433 l 74 433 l 74 474 l 74 514 l -8 514 l -8 568 l 78 568 q 190 864 97 765 q 439 963 282 963 q 631 910 556 963 q 740 711 708 856 l 654 692 q 621 793 639 754 q 560 863 600 835 q 443 886 521 886 q 251 801 313 886 q 176 568 193 718 l 413 568 l 413 514 l 172 514 l 172 474 l 172 433 l 413 433 l 413 378 l 176 378 q 260 140 194 218 q 443 61 325 61 q 557 85 518 61 q 622 147 600 108 q 665 244 643 188 l 743 219 q 649 47 710 106 z "},"F":{"ha":704,"x_min":94,"x_max":719,"o":"m 719 871 l 190 871 l 190 535 l 650 535 l 650 461 l 190 461 l 190 0 l 94 0 l 94 943 l 719 943 l 719 871 z "},"G":{"ha":885,"x_min":74,"x_max":804,"o":"m 797 742 l 718 706 q 472 885 651 885 q 244 782 317 885 q 172 464 172 679 q 236 167 172 265 q 463 60 301 60 q 628 115 551 60 q 711 286 711 178 l 711 428 l 471 428 l 471 508 l 804 508 l 804 375 l 797 0 l 738 0 l 717 122 q 608 23 679 61 q 451 -15 536 -15 q 74 465 74 -15 q 183 847 74 725 q 474 961 288 961 q 671 905 586 961 q 797 742 756 849 z "},"Ğ":{"ha":885,"x_min":74,"x_max":804,"o":"m 369 1208 q 397 1136 369 1161 q 472 1111 424 1111 q 548 1136 521 1111 q 575 1208 575 1161 l 650 1208 q 598 1089 649 1133 q 474 1044 547 1044 q 348 1089 399 1044 q 296 1208 297 1133 l 369 1208 m 797 742 l 718 706 q 472 885 651 885 q 244 782 317 885 q 172 464 172 679 q 236 167 172 265 q 463 60 301 60 q 628 115 551 60 q 711 286 711 178 l 711 428 l 471 428 l 471 508 l 804 508 l 804 375 l 797 0 l 738 0 l 717 122 q 608 23 679 61 q 451 -15 536 -15 q 74 465 74 -15 q 183 847 74 725 q 474 961 288 961 q 671 905 586 961 q 797 742 756 849 z "},"Ĝ":{"ha":885,"x_min":74,"x_max":804,"o":"m 411 1253 l 536 1253 l 649 1044 l 589 1044 l 474 1186 l 357 1044 l 297 1044 l 411 1253 m 797 742 l 718 706 q 472 885 651 885 q 244 782 317 885 q 172 464 172 679 q 236 167 172 265 q 463 60 301 60 q 628 115 551 60 q 711 286 711 178 l 711 428 l 471 428 l 471 508 l 804 508 l 804 375 l 797 0 l 738 0 l 717 122 q 608 23 679 61 q 451 -15 536 -15 q 74 465 74 -15 q 183 847 74 725 q 474 961 288 961 q 671 905 586 961 q 797 742 756 849 z "},"Ġ":{"ha":885,"x_min":74,"x_max":804,"o":"m 417 1183 q 428 1194 417 1183 q 475 1206 439 1206 q 532 1183 511 1206 q 553 1125 553 1160 q 532 1067 553 1090 q 475 1044 511 1044 q 417 1067 439 1044 q 396 1125 396 1090 q 417 1183 396 1160 m 797 742 l 718 706 q 472 885 651 885 q 244 782 317 885 q 172 464 172 679 q 236 167 172 265 q 463 60 301 60 q 628 115 551 60 q 711 286 711 178 l 711 428 l 471 428 l 471 508 l 804 508 l 804 375 l 797 0 l 738 0 l 717 122 q 608 23 679 61 q 451 -15 536 -15 q 74 465 74 -15 q 183 847 74 725 q 474 961 288 961 q 671 905 586 961 q 797 742 756 849 z "},"H":{"ha":938,"x_min":94,"x_max":843,"o":"m 750 539 l 750 943 l 843 943 l 843 0 l 750 0 l 750 464 l 190 464 l 190 0 l 94 0 l 94 943 l 190 943 l 190 539 l 750 539 z "},"Ħ":{"ha":938,"x_min":31,"x_max":903,"o":"m 750 738 l 190 738 l 190 539 l 750 539 l 750 738 m 31 738 l 31 793 l 94 793 l 94 943 l 190 943 l 190 793 l 750 793 l 750 943 l 843 943 l 843 793 l 903 793 l 903 738 l 843 738 l 843 0 l 750 0 l 750 464 l 190 464 l 190 0 l 94 0 l 94 738 l 31 738 z "},"I":{"ha":300,"x_min":106,"x_max":199,"o":"m 199 0 l 106 0 l 106 943 l 199 943 l 199 0 z "},"Ĳ":{"ha":915,"x_min":13,"x_max":814,"o":"m 97 238 q 158 103 119 146 q 269 60 197 60 q 381 103 344 60 q 425 208 417 144 q 435 349 435 276 l 435 943 l 526 943 l 526 351 q 466 71 526 157 q 261 -15 406 -15 q 13 215 60 -15 l 97 238 m 814 0 l 721 0 l 721 943 l 814 943 l 814 0 z "},"Í":{"ha":300,"x_min":106,"x_max":379,"o":"m 254 1253 l 379 1253 l 182 1044 l 122 1044 l 254 1253 m 199 0 l 106 0 l 106 943 l 199 943 l 199 0 z "},"Ĭ":{"ha":300,"x_min":-25,"x_max":329,"o":"m 49 1208 q 76 1136 49 1161 q 151 1111 103 1111 q 227 1136 200 1111 q 254 1208 254 1161 l 329 1208 q 277 1089 328 1133 q 153 1044 226 1044 q 27 1089 78 1044 q -25 1208 -24 1133 l 49 1208 m 199 0 l 106 0 l 106 943 l 199 943 l 199 0 z "},"Î":{"ha":300,"x_min":-24,"x_max":328,"o":"m 90 1253 l 215 1253 l 328 1044 l 268 1044 l 153 1186 l 36 1044 l -24 1044 l 90 1253 m 199 0 l 106 0 l 106 943 l 199 943 l 199 0 z "},"Ï":{"ha":300,"x_min":-24,"x_max":326,"o":"m -24 1157 l 83 1157 l 83 1044 l -24 1044 l -24 1157 m 326 1157 l 326 1044 l 219 1044 l 219 1157 l 326 1157 m 199 0 l 106 0 l 106 943 l 199 943 l 199 0 z "},"İ":{"ha":300,"x_min":74,"x_max":231,"o":"m 95 1183 q 106 1194 95 1183 q 153 1206 117 1206 q 210 1183 189 1206 q 231 1125 231 1160 q 210 1067 231 1090 q 153 1044 189 1044 q 95 1067 117 1044 q 74 1125 74 1090 q 95 1183 74 1160 m 199 0 l 106 0 l 106 943 l 199 943 l 199 0 z "},"Ì":{"ha":300,"x_min":-75,"x_max":199,"o":"m -75 1253 l 50 1253 l 182 1046 l 121 1044 l -75 1253 m 199 0 l 106 0 l 106 943 l 199 943 l 199 0 z "},"Ī":{"ha":300,"x_min":6,"x_max":299,"o":"m 6 1044 l 6 1117 l 299 1117 l 299 1044 l 6 1044 m 199 0 l 106 0 l 106 943 l 199 943 l 199 0 z "},"Į":{"ha":300,"x_min":47,"x_max":199,"o":"m 175 8 q 161 -25 174 7 q 153 -42 158 -31 q 140 -74 144 -61 l 135 -90 q 126 -119 128 -112 q 125 -133 125 -125 q 172 -174 125 -174 q 196 -171 176 -174 l 196 -224 q 153 -229 175 -229 q 76 -206 106 -229 q 47 -147 47 -182 q 74 -60 47 -108 q 129 8 101 -11 l 175 8 m 199 0 l 106 0 l 106 943 l 199 943 l 199 0 z "},"Ĩ":{"ha":300,"x_min":-25,"x_max":329,"o":"m 67 1101 q 47 1088 56 1101 q 39 1044 39 1074 l -24 1044 q -25 1071 -25 1050 q 58 1167 -25 1167 q 157 1138 86 1167 q 240 1107 224 1107 q 265 1169 265 1107 l 329 1169 l 329 1147 q 304 1072 329 1097 q 243 1046 279 1046 q 146 1074 210 1046 q 67 1101 86 1099 m 199 0 l 106 0 l 106 943 l 199 943 l 199 0 z "},"J":{"ha":615,"x_min":13,"x_max":526,"o":"m 97 238 q 158 103 119 146 q 269 60 197 60 q 381 103 344 60 q 425 208 417 144 q 435 349 435 276 l 435 943 l 526 943 l 526 351 q 466 71 526 157 q 261 -15 406 -15 q 13 215 60 -15 l 97 238 z "},"Ĵ":{"ha":615,"x_min":13,"x_max":638,"o":"m 97 238 q 158 103 119 146 q 269 60 197 60 q 381 103 344 60 q 425 208 417 144 q 435 349 435 276 l 435 943 l 526 943 l 526 351 q 466 71 526 157 q 261 -15 406 -15 q 13 215 60 -15 l 97 238 m 400 1210 l 525 1210 l 638 1001 l 578 1001 l 463 1143 l 346 1001 l 286 1001 l 400 1210 z "},"K":{"ha":806,"x_min":94,"x_max":801,"o":"m 760 944 l 429 596 l 801 0 l 694 0 l 361 533 l 190 356 l 190 0 l 94 0 l 94 944 l 190 944 l 190 467 l 647 944 l 760 944 z "},"L":{"ha":657,"x_min":94,"x_max":671,"o":"m 671 0 l 94 0 l 94 943 l 190 943 l 190 72 l 671 72 l 671 0 z "},"Ĺ":{"ha":657,"x_min":94,"x_max":671,"o":"m 485 1253 l 610 1253 l 413 1044 l 353 1044 l 485 1253 m 671 0 l 94 0 l 94 943 l 190 943 l 190 72 l 671 72 l 671 0 z "},"Ľ":{"ha":657,"x_min":94,"x_max":924,"o":"m 796 961 l 924 961 l 924 906 q 905 744 919 794 q 836 656 890 693 l 804 696 q 839 747 824 711 q 856 831 854 783 l 796 838 l 796 961 m 671 0 l 94 0 l 94 943 l 190 943 l 190 72 l 671 72 l 671 0 z "},"Ŀ":{"ha":657,"x_min":94,"x_max":671,"o":"m 329 549 l 435 549 l 435 411 l 329 411 l 329 549 m 671 0 l 94 0 l 94 943 l 190 943 l 190 72 l 671 72 l 671 0 z "},"Ł":{"ha":679,"x_min":0,"x_max":665,"o":"m 0 424 l 0 506 l 90 546 l 90 943 l 185 943 l 185 589 l 343 660 l 343 578 l 185 507 l 185 72 l 665 72 l 665 0 l 90 0 l 90 464 l 0 424 z "},"M":{"ha":1060,"x_min":94,"x_max":964,"o":"m 94 0 l 94 942 l 231 942 l 532 261 l 842 942 l 964 942 l 964 0 l 879 0 l 879 822 l 572 161 l 486 161 l 185 825 l 185 0 l 94 0 z "},"N":{"ha":961,"x_min":94,"x_max":865,"o":"m 94 0 l 94 943 l 200 943 l 782 143 l 782 396 l 782 943 l 865 943 l 865 0 l 779 0 l 181 831 l 181 564 l 181 0 l 94 0 z "},"Ń":{"ha":961,"x_min":94,"x_max":865,"o":"m 582 1253 l 707 1253 l 510 1044 l 450 1044 l 582 1253 m 94 0 l 94 943 l 200 943 l 782 143 l 782 396 l 782 943 l 865 943 l 865 0 l 779 0 l 181 831 l 181 564 l 181 0 l 94 0 z "},"Ň":{"ha":961,"x_min":94,"x_max":865,"o":"m 542 1044 l 417 1044 l 324 1253 l 382 1253 l 481 1104 l 576 1253 l 636 1253 l 542 1044 m 94 0 l 94 943 l 200 943 l 782 143 l 782 396 l 782 943 l 865 943 l 865 0 l 779 0 l 181 831 l 181 564 l 181 0 l 94 0 z "},"Ñ":{"ha":961,"x_min":94,"x_max":865,"o":"m 394 1101 q 375 1088 383 1101 q 367 1044 367 1074 l 304 1044 q 303 1071 303 1050 q 386 1167 303 1167 q 485 1138 414 1167 q 568 1107 551 1107 q 593 1169 593 1107 l 657 1169 l 657 1147 q 632 1072 657 1097 q 571 1046 607 1046 q 474 1074 538 1046 q 394 1101 414 1099 m 94 0 l 94 943 l 200 943 l 782 143 l 782 396 l 782 943 l 865 943 l 865 0 l 779 0 l 181 831 l 181 564 l 181 0 l 94 0 z "},"O":{"ha":935,"x_min":74,"x_max":860,"o":"m 264 814 q 182 617 200 749 q 172 478 172 560 q 240 158 172 257 q 465 60 307 60 q 692 158 625 60 q 760 476 760 256 q 722 728 760 636 q 583 867 676 833 q 465 885 535 885 q 264 814 332 885 m 754 850 q 860 478 860 733 q 761 104 860 224 q 465 -15 663 -15 q 176 97 275 -15 q 74 476 74 213 q 178 850 74 733 q 465 961 276 961 q 754 850 653 961 z "},"Œ":{"ha":1399,"x_min":72,"x_max":1367,"o":"m 1367 0 l 750 0 l 750 117 q 464 -15 669 -15 q 175 97 274 -15 q 72 476 72 213 q 176 850 72 733 q 464 961 275 961 q 750 831 667 961 l 750 943 l 1360 943 l 1360 871 l 844 871 l 844 540 l 1286 540 l 1286 465 l 844 465 l 844 72 l 1367 72 l 1367 0 m 715 729 q 582 867 675 833 q 464 885 532 885 q 263 814 331 885 q 181 617 199 749 q 171 478 171 560 q 238 158 171 257 q 464 60 306 60 q 690 163 626 60 q 750 476 750 261 q 715 729 750 638 z "},"Ó":{"ha":935,"x_min":74,"x_max":860,"o":"m 567 1253 l 692 1253 l 494 1044 l 435 1044 l 567 1253 m 264 814 q 182 617 200 749 q 172 478 172 560 q 240 158 172 257 q 465 60 307 60 q 692 158 625 60 q 760 476 760 256 q 722 728 760 636 q 583 867 676 833 q 465 885 535 885 q 264 814 332 885 m 754 850 q 860 478 860 733 q 761 104 860 224 q 465 -15 663 -15 q 176 97 275 -15 q 74 476 74 213 q 178 850 74 733 q 465 961 276 961 q 754 850 653 961 z "},"Ŏ":{"ha":935,"x_min":74,"x_max":860,"o":"m 361 1208 q 388 1136 361 1161 q 464 1111 415 1111 q 540 1136 513 1111 q 567 1208 567 1161 l 642 1208 q 590 1089 640 1133 q 465 1044 539 1044 q 340 1089 390 1044 q 288 1208 289 1133 l 361 1208 m 264 814 q 182 617 200 749 q 172 478 172 560 q 240 158 172 257 q 465 60 307 60 q 692 158 625 60 q 760 476 760 256 q 722 728 760 636 q 583 867 676 833 q 465 885 535 885 q 264 814 332 885 m 754 850 q 860 478 860 733 q 761 104 860 224 q 465 -15 663 -15 q 176 97 275 -15 q 74 476 74 213 q 178 850 74 733 q 465 961 276 961 q 754 850 653 961 z "},"Ô":{"ha":935,"x_min":74,"x_max":860,"o":"m 403 1253 l 528 1253 l 640 1044 l 581 1044 l 465 1186 l 349 1044 l 289 1044 l 403 1253 m 264 814 q 182 617 200 749 q 172 478 172 560 q 240 158 172 257 q 465 60 307 60 q 692 158 625 60 q 760 476 760 256 q 722 728 760 636 q 583 867 676 833 q 465 885 535 885 q 264 814 332 885 m 754 850 q 860 478 860 733 q 761 104 860 224 q 465 -15 663 -15 q 176 97 275 -15 q 74 476 74 213 q 178 850 74 733 q 465 961 276 961 q 754 850 653 961 z "},"Ö":{"ha":935,"x_min":74,"x_max":860,"o":"m 290 1157 l 397 1157 l 397 1044 l 290 1044 l 290 1157 m 640 1157 l 640 1044 l 533 1044 l 533 1157 l 640 1157 m 264 814 q 182 617 200 749 q 172 478 172 560 q 240 158 172 257 q 465 60 307 60 q 692 158 625 60 q 760 476 760 256 q 722 728 760 636 q 583 867 676 833 q 465 885 535 885 q 264 814 332 885 m 754 850 q 860 478 860 733 q 761 104 860 224 q 465 -15 663 -15 q 176 97 275 -15 q 74 476 74 213 q 178 850 74 733 q 465 961 276 961 q 754 850 653 961 z "},"Ò":{"ha":935,"x_min":74,"x_max":860,"o":"m 239 1253 l 364 1253 l 496 1046 l 435 1044 l 239 1253 m 264 814 q 182 617 200 749 q 172 478 172 560 q 240 158 172 257 q 465 60 307 60 q 692 158 625 60 q 760 476 760 256 q 722 728 760 636 q 583 867 676 833 q 465 885 535 885 q 264 814 332 885 m 754 850 q 860 478 860 733 q 761 104 860 224 q 465 -15 663 -15 q 176 97 275 -15 q 74 476 74 213 q 178 850 74 733 q 465 961 276 961 q 754 850 653 961 z "},"Ő":{"ha":935,"x_min":74,"x_max":860,"o":"m 615 1253 l 740 1253 l 576 1044 l 528 1044 l 615 1253 m 424 1253 l 546 1253 l 399 1044 l 356 1044 l 424 1253 m 264 814 q 182 617 200 749 q 172 478 172 560 q 240 158 172 257 q 465 60 307 60 q 692 158 625 60 q 760 476 760 256 q 722 728 760 636 q 583 867 676 833 q 465 885 535 885 q 264 814 332 885 m 754 850 q 860 478 860 733 q 761 104 860 224 q 465 -15 663 -15 q 176 97 275 -15 q 74 476 74 213 q 178 850 74 733 q 465 961 276 961 q 754 850 653 961 z "},"Ō":{"ha":935,"x_min":74,"x_max":860,"o":"m 318 1044 l 318 1117 l 611 1117 l 611 1044 l 318 1044 m 264 814 q 182 617 200 749 q 172 478 172 560 q 240 158 172 257 q 465 60 307 60 q 692 158 625 60 q 760 476 760 256 q 722 728 760 636 q 583 867 676 833 q 465 885 535 885 q 264 814 332 885 m 754 850 q 860 478 860 733 q 761 104 860 224 q 465 -15 663 -15 q 176 97 275 -15 q 74 476 74 213 q 178 850 74 733 q 465 961 276 961 q 754 850 653 961 z "},"Ø":{"ha":942,"x_min":74,"x_max":860,"o":"m 465 -15 q 279 19 354 -15 l 206 -132 l 151 -103 l 226 50 q 74 476 74 163 q 178 850 74 733 q 465 961 276 961 q 654 924 578 961 l 725 1068 l 779 1040 l 707 893 q 860 478 860 778 q 761 104 860 224 q 465 -15 663 -15 m 760 476 q 669 813 760 718 l 315 92 q 465 60 376 60 q 692 158 625 60 q 760 476 760 256 m 264 814 q 182 617 200 749 q 172 478 172 560 q 265 129 172 222 l 619 851 q 465 885 556 885 q 264 814 332 885 z "},"Õ":{"ha":935,"x_min":74,"x_max":860,"o":"m 381 1101 q 361 1088 369 1101 q 353 1044 353 1074 l 290 1044 q 289 1071 289 1050 q 372 1167 289 1167 q 471 1138 400 1167 q 554 1107 538 1107 q 579 1169 579 1107 l 643 1169 l 643 1147 q 618 1072 643 1097 q 557 1046 593 1046 q 460 1074 524 1046 q 381 1101 400 1099 m 264 814 q 182 617 200 749 q 172 478 172 560 q 240 158 172 257 q 465 60 307 60 q 692 158 625 60 q 760 476 760 256 q 722 728 760 636 q 583 867 676 833 q 465 885 535 885 q 264 814 332 885 m 754 850 q 860 478 860 733 q 761 104 860 224 q 465 -15 663 -15 q 176 97 275 -15 q 74 476 74 213 q 178 850 74 733 q 465 961 276 961 q 754 850 653 961 z "},"P":{"ha":807,"x_min":94,"x_max":793,"o":"m 196 869 l 196 482 l 371 482 q 588 506 508 482 q 686 599 661 528 q 699 681 699 632 q 650 817 699 772 q 489 865 608 853 q 357 869 436 869 l 196 869 m 94 0 l 94 943 l 374 943 q 699 885 604 943 q 793 685 793 828 q 728 493 793 558 q 510 417 668 435 q 335 408 436 408 l 193 408 l 193 0 l 94 0 z "},"Q":{"ha":935,"x_min":74,"x_max":885,"o":"m 264 814 q 182 617 200 749 q 172 478 172 560 q 240 158 172 257 q 465 60 307 60 q 692 158 625 60 q 760 476 760 256 q 722 728 760 636 q 583 867 676 833 q 465 885 535 885 q 264 814 332 885 m 815 -222 l 654 19 q 535 -11 604 -4 q 465 -15 501 -15 q 176 97 275 -15 q 74 476 74 213 q 178 850 74 733 q 465 961 276 961 q 754 850 653 961 q 860 478 860 733 q 719 61 860 176 l 885 -169 l 815 -222 z "},"R":{"ha":829,"x_min":94,"x_max":797,"o":"m 189 874 l 189 507 l 414 507 q 569 525 510 507 q 671 610 643 547 q 686 692 686 647 q 635 828 686 782 q 508 871 597 863 q 431 874 467 874 l 189 874 m 578 447 l 797 0 l 697 0 l 483 435 l 189 435 l 189 0 l 94 0 l 94 943 l 436 943 q 701 883 619 943 q 782 693 782 824 q 578 447 782 503 z "},"Ŕ":{"ha":829,"x_min":94,"x_max":797,"o":"m 367 1253 l 492 1253 l 294 1044 l 235 1044 l 367 1253 m 189 874 l 189 507 l 414 507 q 569 525 510 507 q 671 610 643 547 q 686 692 686 647 q 635 828 686 782 q 508 871 597 863 q 431 874 467 874 l 189 874 m 578 447 l 797 0 l 697 0 l 483 435 l 189 435 l 189 0 l 94 0 l 94 943 l 436 943 q 701 883 619 943 q 782 693 782 824 q 578 447 782 503 z "},"Ř":{"ha":829,"x_min":94,"x_max":797,"o":"m 328 1044 l 203 1044 l 110 1253 l 168 1253 l 267 1104 l 363 1253 l 422 1253 l 328 1044 m 189 874 l 189 507 l 414 507 q 569 525 510 507 q 671 610 643 547 q 686 692 686 647 q 635 828 686 782 q 508 871 597 863 q 431 874 467 874 l 189 874 m 578 447 l 797 0 l 697 0 l 483 435 l 189 435 l 189 0 l 94 0 l 94 943 l 436 943 q 701 883 619 943 q 782 693 782 824 q 578 447 782 503 z "},"S":{"ha":783,"x_min":29,"x_max":746,"o":"m 725 793 l 657 742 q 555 843 619 807 q 411 879 490 879 q 244 840 306 879 q 183 726 183 801 q 229 631 183 669 q 338 575 269 597 q 395 556 347 572 q 460 535 443 540 q 531 506 503 517 q 646 447 599 478 q 719 368 694 415 q 746 253 746 318 q 651 56 746 128 q 396 -15 557 -15 q 215 19 300 -15 q 68 139 114 61 q 29 240 39 185 l 108 275 q 403 65 165 65 q 539 90 478 65 q 633 176 608 117 q 647 250 647 206 q 626 338 647 290 q 594 369 618 353 q 558 394 568 386 q 449 442 543 404 q 378 467 431 447 q 364 471 368 468 q 277 503 306 492 q 208 535 249 514 q 147 574 167 556 q 109 622 126 593 q 86 688 92 651 q 85 719 85 697 q 182 899 85 838 q 399 956 272 956 q 725 793 624 956 z "},"Ś":{"ha":783,"x_min":29,"x_max":746,"o":"m 500 1253 l 625 1253 l 428 1044 l 368 1044 l 500 1253 m 725 793 l 657 742 q 555 843 619 807 q 411 879 490 879 q 244 840 306 879 q 183 726 183 801 q 229 631 183 669 q 338 575 269 597 q 395 556 347 572 q 460 535 443 540 q 531 506 503 517 q 646 447 599 478 q 719 368 694 415 q 746 253 746 318 q 651 56 746 128 q 396 -15 557 -15 q 215 19 300 -15 q 68 139 114 61 q 29 240 39 185 l 108 275 q 403 65 165 65 q 539 90 478 65 q 633 176 608 117 q 647 250 647 206 q 626 338 647 290 q 594 369 618 353 q 558 394 568 386 q 449 442 543 404 q 378 467 431 447 q 364 471 368 468 q 277 503 306 492 q 208 535 249 514 q 147 574 167 556 q 109 622 126 593 q 86 688 92 651 q 85 719 85 697 q 182 899 85 838 q 399 956 272 956 q 725 793 624 956 z "},"Š":{"ha":783,"x_min":29,"x_max":746,"o":"m 461 1044 l 336 1044 l 243 1253 l 301 1253 l 400 1104 l 496 1253 l 556 1253 l 461 1044 m 725 793 l 657 742 q 555 843 619 807 q 411 879 490 879 q 244 840 306 879 q 183 726 183 801 q 229 631 183 669 q 338 575 269 597 q 395 556 347 572 q 460 535 443 540 q 531 506 503 517 q 646 447 599 478 q 719 368 694 415 q 746 253 746 318 q 651 56 746 128 q 396 -15 557 -15 q 215 19 300 -15 q 68 139 114 61 q 29 240 39 185 l 108 275 q 403 65 165 65 q 539 90 478 65 q 633 176 608 117 q 647 250 647 206 q 626 338 647 290 q 594 369 618 353 q 558 394 568 386 q 449 442 543 404 q 378 467 431 447 q 364 471 368 468 q 277 503 306 492 q 208 535 249 514 q 147 574 167 556 q 109 622 126 593 q 86 688 92 651 q 85 719 85 697 q 182 899 85 838 q 399 956 272 956 q 725 793 624 956 z "},"Ş":{"ha":783,"x_min":29,"x_max":746,"o":"m 332 -112 l 332 -7 l 461 -7 l 461 -121 q 439 -214 461 -176 q 374 -251 417 -251 q 347 -246 358 -251 l 347 -203 q 371 -208 364 -208 q 392 -189 385 -208 q 397 -112 397 -172 l 332 -112 m 725 793 l 657 742 q 555 843 619 807 q 411 879 490 879 q 244 840 306 879 q 183 726 183 801 q 229 631 183 669 q 338 575 269 597 q 395 556 347 572 q 460 535 443 540 q 531 506 503 517 q 646 447 599 478 q 719 368 694 415 q 746 253 746 318 q 651 56 746 128 q 396 -15 557 -15 q 215 19 300 -15 q 68 139 114 61 q 29 240 39 185 l 108 275 q 403 65 165 65 q 539 90 478 65 q 633 176 608 117 q 647 250 647 206 q 626 338 647 290 q 594 369 618 353 q 558 394 568 386 q 449 442 543 404 q 378 467 431 447 q 364 471 368 468 q 277 503 306 492 q 208 535 249 514 q 147 574 167 556 q 109 622 126 593 q 86 688 92 651 q 85 719 85 697 q 182 899 85 838 q 399 956 272 956 q 725 793 624 956 z "},"Ŝ":{"ha":783,"x_min":29,"x_max":746,"o":"m 336 1253 l 461 1253 l 574 1044 l 514 1044 l 399 1186 l 282 1044 l 222 1044 l 336 1253 m 725 793 l 657 742 q 555 843 619 807 q 411 879 490 879 q 244 840 306 879 q 183 726 183 801 q 229 631 183 669 q 338 575 269 597 q 395 556 347 572 q 460 535 443 540 q 531 506 503 517 q 646 447 599 478 q 719 368 694 415 q 746 253 746 318 q 651 56 746 128 q 396 -15 557 -15 q 215 19 300 -15 q 68 139 114 61 q 29 240 39 185 l 108 275 q 403 65 165 65 q 539 90 478 65 q 633 176 608 117 q 647 250 647 206 q 626 338 647 290 q 594 369 618 353 q 558 394 568 386 q 449 442 543 404 q 378 467 431 447 q 364 471 368 468 q 277 503 306 492 q 208 535 249 514 q 147 574 167 556 q 109 622 126 593 q 86 688 92 651 q 85 719 85 697 q 182 899 85 838 q 399 956 272 956 q 725 793 624 956 z "},"T":{"ha":721,"x_min":6,"x_max":715,"o":"m 6 871 l 6 943 l 715 943 l 715 871 l 410 871 l 410 0 l 311 0 l 311 871 l 6 871 z "},"Ť":{"ha":721,"x_min":6,"x_max":715,"o":"m 422 1044 l 297 1044 l 204 1253 l 263 1253 l 361 1104 l 457 1253 l 517 1253 l 422 1044 m 6 871 l 6 943 l 715 943 l 715 871 l 410 871 l 410 0 l 311 0 l 311 871 l 6 871 z "},"Þ":{"ha":813,"x_min":90,"x_max":775,"o":"m 192 696 l 192 289 l 358 289 q 608 335 536 290 q 679 493 679 381 q 605 651 679 606 q 347 696 531 696 l 192 696 m 90 0 l 90 943 l 192 943 l 192 769 l 361 769 q 735 651 653 769 q 775 497 775 592 q 674 278 775 340 q 324 217 572 217 l 188 217 l 188 0 l 90 0 z "},"U":{"ha":867,"x_min":79,"x_max":788,"o":"m 79 943 l 182 943 l 182 385 q 211 192 182 264 q 328 79 242 108 q 436 64 376 64 q 615 122 554 64 q 682 279 668 172 q 688 385 688 319 l 688 943 l 788 943 l 788 375 q 701 78 788 172 q 432 -15 615 -15 q 165 78 251 -15 q 79 369 79 171 l 79 943 z "},"Ú":{"ha":867,"x_min":79,"x_max":788,"o":"m 536 1253 l 661 1253 l 464 1044 l 404 1044 l 536 1253 m 79 943 l 182 943 l 182 385 q 211 192 182 264 q 328 79 242 108 q 436 64 376 64 q 615 122 554 64 q 682 279 668 172 q 688 385 688 319 l 688 943 l 788 943 l 788 375 q 701 78 788 172 q 432 -15 615 -15 q 165 78 251 -15 q 79 369 79 171 l 79 943 z "},"Ŭ":{"ha":867,"x_min":79,"x_max":788,"o":"m 331 1208 q 358 1136 331 1161 q 433 1111 385 1111 q 509 1136 482 1111 q 536 1208 536 1161 l 611 1208 q 559 1089 610 1133 q 435 1044 508 1044 q 309 1089 360 1044 q 257 1208 258 1133 l 331 1208 m 79 943 l 182 943 l 182 385 q 211 192 182 264 q 328 79 242 108 q 436 64 376 64 q 615 122 554 64 q 682 279 668 172 q 688 385 688 319 l 688 943 l 788 943 l 788 375 q 701 78 788 172 q 432 -15 615 -15 q 165 78 251 -15 q 79 369 79 171 l 79 943 z "},"Û":{"ha":867,"x_min":79,"x_max":788,"o":"m 372 1253 l 497 1253 l 610 1044 l 550 1044 l 435 1186 l 318 1044 l 258 1044 l 372 1253 m 79 943 l 182 943 l 182 385 q 211 192 182 264 q 328 79 242 108 q 436 64 376 64 q 615 122 554 64 q 682 279 668 172 q 688 385 688 319 l 688 943 l 788 943 l 788 375 q 701 78 788 172 q 432 -15 615 -15 q 165 78 251 -15 q 79 369 79 171 l 79 943 z "},"Ü":{"ha":867,"x_min":79,"x_max":788,"o":"m 258 1157 l 365 1157 l 365 1044 l 258 1044 l 258 1157 m 608 1157 l 608 1044 l 501 1044 l 501 1157 l 608 1157 m 79 943 l 182 943 l 182 385 q 211 192 182 264 q 328 79 242 108 q 436 64 376 64 q 615 122 554 64 q 682 279 668 172 q 688 385 688 319 l 688 943 l 788 943 l 788 375 q 701 78 788 172 q 432 -15 615 -15 q 165 78 251 -15 q 79 369 79 171 l 79 943 z "},"Ù":{"ha":867,"x_min":79,"x_max":788,"o":"m 207 1253 l 332 1253 l 464 1046 l 403 1044 l 207 1253 m 79 943 l 182 943 l 182 385 q 211 192 182 264 q 328 79 242 108 q 436 64 376 64 q 615 122 554 64 q 682 279 668 172 q 688 385 688 319 l 688 943 l 788 943 l 788 375 q 701 78 788 172 q 432 -15 615 -15 q 165 78 251 -15 q 79 369 79 171 l 79 943 z "},"Ű":{"ha":867,"x_min":79,"x_max":788,"o":"m 582 1253 l 707 1253 l 543 1044 l 494 1044 l 582 1253 m 390 1253 l 513 1253 l 365 1044 l 322 1044 l 390 1253 m 79 943 l 182 943 l 182 385 q 211 192 182 264 q 328 79 242 108 q 436 64 376 64 q 615 122 554 64 q 682 279 668 172 q 688 385 688 319 l 688 943 l 788 943 l 788 375 q 701 78 788 172 q 432 -15 615 -15 q 165 78 251 -15 q 79 369 79 171 l 79 943 z "},"Ū":{"ha":867,"x_min":79,"x_max":788,"o":"m 288 1044 l 288 1117 l 581 1117 l 581 1044 l 288 1044 m 79 943 l 182 943 l 182 385 q 211 192 182 264 q 328 79 242 108 q 436 64 376 64 q 615 122 554 64 q 682 279 668 172 q 688 385 688 319 l 688 943 l 788 943 l 788 375 q 701 78 788 172 q 432 -15 615 -15 q 165 78 251 -15 q 79 369 79 171 l 79 943 z "},"Ų":{"ha":867,"x_min":79,"x_max":788,"o":"m 456 -7 q 442 -40 454 -8 q 433 -57 439 -46 q 421 -89 425 -76 l 415 -106 q 407 -135 408 -128 q 406 -149 406 -140 q 453 -189 406 -189 q 476 -186 457 -189 l 476 -239 q 433 -244 456 -244 q 357 -221 386 -244 q 328 -162 328 -197 q 355 -75 328 -124 q 410 -7 382 -26 l 456 -7 m 79 943 l 182 943 l 182 385 q 211 192 182 264 q 328 79 242 108 q 436 64 376 64 q 615 122 554 64 q 682 279 668 172 q 688 385 688 319 l 688 943 l 788 943 l 788 375 q 701 78 788 172 q 432 -15 615 -15 q 165 78 251 -15 q 79 369 79 171 l 79 943 z "},"Ů":{"ha":867,"x_min":79,"x_max":788,"o":"m 432 1099 q 490 1124 468 1099 q 511 1183 511 1149 q 490 1243 511 1218 q 432 1268 468 1268 q 374 1243 396 1268 q 353 1183 353 1218 q 372 1124 353 1151 q 432 1099 394 1099 m 540 1283 q 559 1263 540 1283 q 579 1185 579 1243 q 539 1085 579 1126 q 432 1044 499 1044 q 328 1085 367 1044 q 289 1183 289 1125 q 328 1282 289 1242 q 432 1322 367 1322 q 540 1283 500 1322 m 79 943 l 182 943 l 182 385 q 211 192 182 264 q 328 79 242 108 q 436 64 376 64 q 615 122 554 64 q 682 279 668 172 q 688 385 688 319 l 688 943 l 788 943 l 788 375 q 701 78 788 172 q 432 -15 615 -15 q 165 78 251 -15 q 79 369 79 171 l 79 943 z "},"V":{"ha":750,"x_min":8,"x_max":742,"o":"m 331 0 l 8 943 l 108 943 l 297 383 l 333 275 q 378 139 353 211 q 422 271 389 174 q 461 383 456 368 l 647 943 l 742 943 l 419 0 l 331 0 z "},"W":{"ha":1157,"x_min":8,"x_max":1150,"o":"m 275 0 l 8 942 l 106 942 q 288 263 226 508 q 315 150 304 190 q 351 264 318 158 q 428 518 381 365 q 557 942 476 675 l 624 942 q 747 501 650 846 q 849 140 844 157 q 950 526 867 204 q 1061 940 1017 793 l 1150 942 l 883 0 l 801 0 q 585 765 604 697 q 560 686 576 739 q 546 640 556 672 q 519 555 536 608 q 488 451 503 501 q 431 271 482 435 q 349 0 381 107 l 275 0 z "},"X":{"ha":803,"x_min":4,"x_max":799,"o":"m 404 572 l 663 943 l 769 943 l 456 494 l 799 0 l 688 0 l 400 413 l 111 0 l 4 0 l 349 492 l 33 943 l 146 943 l 404 572 z "},"Y":{"ha":749,"x_min":-3,"x_max":751,"o":"m 328 354 l -3 943 l 99 943 l 375 439 l 650 943 l 751 943 l 421 354 l 421 0 l 328 0 l 328 354 z "},"Ý":{"ha":749,"x_min":-3,"x_max":751,"o":"m 476 1253 l 601 1253 l 404 1044 l 344 1044 l 476 1253 m 328 354 l -3 943 l 99 943 l 375 439 l 650 943 l 751 943 l 421 354 l 421 0 l 328 0 l 328 354 z "},"Ÿ":{"ha":749,"x_min":-3,"x_max":751,"o":"m 199 1157 l 306 1157 l 306 1044 l 199 1044 l 199 1157 m 549 1157 l 549 1044 l 442 1044 l 442 1157 l 549 1157 m 328 354 l -3 943 l 99 943 l 375 439 l 650 943 l 751 943 l 421 354 l 421 0 l 328 0 l 328 354 z "},"Z":{"ha":757,"x_min":31,"x_max":735,"o":"m 83 874 l 83 943 l 732 943 l 732 890 l 146 68 l 735 68 l 731 0 l 31 0 l 31 64 l 608 874 l 83 874 z "},"Ź":{"ha":757,"x_min":31,"x_max":735,"o":"m 510 1253 l 635 1253 l 438 1044 l 378 1044 l 510 1253 m 83 874 l 83 943 l 732 943 l 732 890 l 146 68 l 735 68 l 731 0 l 31 0 l 31 64 l 608 874 l 83 874 z "},"Ž":{"ha":757,"x_min":31,"x_max":735,"o":"m 469 1044 l 344 1044 l 251 1253 l 310 1253 l 408 1104 l 504 1253 l 564 1253 l 469 1044 m 83 874 l 83 943 l 732 943 l 732 890 l 146 68 l 735 68 l 731 0 l 31 0 l 31 64 l 608 874 l 83 874 z "},"Ż":{"ha":757,"x_min":31,"x_max":735,"o":"m 351 1183 q 361 1194 351 1183 q 408 1206 372 1206 q 465 1183 444 1206 q 486 1125 486 1160 q 465 1067 486 1090 q 408 1044 444 1044 q 351 1067 372 1044 q 329 1125 329 1090 q 351 1183 329 1160 m 83 874 l 83 943 l 732 943 l 732 890 l 146 68 l 735 68 l 731 0 l 31 0 l 31 64 l 608 874 l 83 874 z "},"a":{"ha":657,"x_min":58,"x_max":572,"o":"m 486 75 q 250 -15 375 -15 q 112 31 165 -15 q 58 158 58 76 q 94 268 58 219 q 192 331 118 300 q 332 364 233 346 q 417 378 349 368 l 481 386 l 481 414 q 446 562 481 521 q 325 603 411 603 q 140 519 207 603 q 85 572 140 521 q 331 674 165 674 q 572 435 572 674 l 572 0 l 496 0 l 486 75 m 481 326 l 417 315 q 268 288 313 297 q 176 244 211 272 q 144 171 144 219 q 267 47 144 47 q 481 142 369 47 l 481 326 z "},"á":{"ha":657,"x_min":58,"x_max":572,"o":"m 433 965 l 558 965 l 361 757 l 301 757 l 433 965 m 486 75 q 250 -15 375 -15 q 112 31 165 -15 q 58 158 58 76 q 94 268 58 219 q 192 331 118 300 q 332 364 233 346 q 417 378 349 368 l 481 386 l 481 414 q 446 562 481 521 q 325 603 411 603 q 140 519 207 603 q 85 572 140 521 q 331 674 165 674 q 572 435 572 674 l 572 0 l 496 0 l 486 75 m 481 326 l 417 315 q 268 288 313 297 q 176 244 211 272 q 144 171 144 219 q 267 47 144 47 q 481 142 369 47 l 481 326 z "},"ă":{"ha":657,"x_min":58,"x_max":572,"o":"m 228 921 q 255 849 228 874 q 331 824 282 824 q 406 849 379 824 q 433 921 433 874 l 508 921 q 456 801 507 846 q 332 757 406 757 q 206 801 257 757 q 154 921 156 846 l 228 921 m 486 75 q 250 -15 375 -15 q 112 31 165 -15 q 58 158 58 76 q 94 268 58 219 q 192 331 118 300 q 332 364 233 346 q 417 378 349 368 l 481 386 l 481 414 q 446 562 481 521 q 325 603 411 603 q 140 519 207 603 q 85 572 140 521 q 331 674 165 674 q 572 435 572 674 l 572 0 l 496 0 l 486 75 m 481 326 l 417 315 q 268 288 313 297 q 176 244 211 272 q 144 171 144 219 q 267 47 144 47 q 481 142 369 47 l 481 326 z "},"â":{"ha":657,"x_min":58,"x_max":572,"o":"m 269 965 l 394 965 l 507 757 l 447 757 l 332 899 l 215 757 l 156 757 l 269 965 m 486 75 q 250 -15 375 -15 q 112 31 165 -15 q 58 158 58 76 q 94 268 58 219 q 192 331 118 300 q 332 364 233 346 q 417 378 349 368 l 481 386 l 481 414 q 446 562 481 521 q 325 603 411 603 q 140 519 207 603 q 85 572 140 521 q 331 674 165 674 q 572 435 572 674 l 572 0 l 496 0 l 486 75 m 481 326 l 417 315 q 268 288 313 297 q 176 244 211 272 q 144 171 144 219 q 267 47 144 47 q 481 142 369 47 l 481 326 z "},"´":{"ha":318,"x_min":32,"x_max":289,"o":"m 164 963 l 289 963 l 92 754 l 32 754 l 164 963 z "},"ä":{"ha":657,"x_min":58,"x_max":572,"o":"m 156 869 l 263 869 l 263 757 l 156 757 l 156 869 m 506 869 l 506 757 l 399 757 l 399 869 l 506 869 m 486 75 q 250 -15 375 -15 q 112 31 165 -15 q 58 158 58 76 q 94 268 58 219 q 192 331 118 300 q 332 364 233 346 q 417 378 349 368 l 481 386 l 481 414 q 446 562 481 521 q 325 603 411 603 q 140 519 207 603 q 85 572 140 521 q 331 674 165 674 q 572 435 572 674 l 572 0 l 496 0 l 486 75 m 481 326 l 417 315 q 268 288 313 297 q 176 244 211 272 q 144 171 144 219 q 267 47 144 47 q 481 142 369 47 l 481 326 z "},"æ":{"ha":1074,"x_min":54,"x_max":1022,"o":"m 935 390 q 765 606 935 606 q 635 543 683 606 q 581 382 586 481 l 935 390 m 493 264 q 492 288 493 276 q 491 306 492 300 q 490 314 490 313 l 400 310 q 250 290 286 303 q 160 225 181 267 q 146 165 146 199 q 185 82 146 113 q 283 51 224 51 q 431 90 368 51 q 496 204 496 131 q 493 264 496 206 m 86 597 q 333 674 193 674 q 474 638 418 674 q 542 536 529 603 q 632 637 571 600 q 768 674 693 674 q 964 586 903 674 q 1022 368 1022 503 q 1019 328 1022 350 l 579 318 q 768 53 579 53 q 892 101 847 53 q 936 175 931 144 l 1013 150 q 917 32 983 78 q 769 -15 851 -14 q 628 22 689 -15 q 544 125 568 58 q 276 -15 465 -15 q 88 61 147 -15 q 54 163 54 103 q 151 329 54 278 q 394 375 238 372 l 485 378 q 471 522 485 472 q 403 596 454 578 q 336 606 378 606 q 215 586 264 606 q 131 540 193 576 l 86 597 z "},"à":{"ha":657,"x_min":58,"x_max":572,"o":"m 104 965 l 229 965 l 361 758 l 300 757 l 104 965 m 486 75 q 250 -15 375 -15 q 112 31 165 -15 q 58 158 58 76 q 94 268 58 219 q 192 331 118 300 q 332 364 233 346 q 417 378 349 368 l 481 386 l 481 414 q 446 562 481 521 q 325 603 411 603 q 140 519 207 603 q 85 572 140 521 q 331 674 165 674 q 572 435 572 674 l 572 0 l 496 0 l 486 75 m 481 326 l 417 315 q 268 288 313 297 q 176 244 211 272 q 144 171 144 219 q 267 47 144 47 q 481 142 369 47 l 481 326 z "},"ā":{"ha":657,"x_min":58,"x_max":572,"o":"m 185 757 l 185 829 l 478 829 l 478 757 l 185 757 m 486 75 q 250 -15 375 -15 q 112 31 165 -15 q 58 158 58 76 q 94 268 58 219 q 192 331 118 300 q 332 364 233 346 q 417 378 349 368 l 481 386 l 481 414 q 446 562 481 521 q 325 603 411 603 q 140 519 207 603 q 85 572 140 521 q 331 674 165 674 q 572 435 572 674 l 572 0 l 496 0 l 486 75 m 481 326 l 417 315 q 268 288 313 297 q 176 244 211 272 q 144 171 144 219 q 267 47 144 47 q 481 142 369 47 l 481 326 z "},"&":{"ha":921,"x_min":64,"x_max":897,"o":"m 646 182 q 554 285 632 197 q 446 408 543 297 q 358 506 401 456 q 204 399 251 456 q 157 271 157 343 q 213 124 157 188 q 388 56 271 56 q 646 182 543 56 m 538 692 q 568 776 568 736 q 530 863 568 829 q 436 896 492 896 q 338 863 379 896 q 296 778 296 829 q 392 592 296 696 q 538 692 503 643 m 436 539 l 692 246 q 746 413 729 308 q 752 458 747 424 q 761 515 757 492 l 844 504 q 753 183 822 314 q 799 135 781 156 q 897 38 858 71 l 851 -18 q 774 51 836 -7 l 735 90 l 700 125 q 375 -17 569 -17 q 151 64 239 -17 q 64 267 64 144 q 129 440 64 364 q 311 563 194 515 q 210 779 210 678 q 274 910 210 861 q 435 960 339 960 q 590 911 529 960 q 650 779 650 863 q 598 651 650 707 q 436 539 546 594 z "},"ą":{"ha":657,"x_min":58,"x_max":572,"o":"m 296 -7 q 282 -40 294 -8 q 274 -57 279 -46 q 261 -89 265 -76 l 256 -106 q 247 -135 249 -128 q 246 -149 246 -140 q 293 -189 246 -189 q 317 -186 297 -189 l 317 -239 q 274 -244 296 -244 q 197 -221 226 -244 q 168 -162 168 -197 q 195 -75 168 -124 q 250 -7 222 -26 l 296 -7 m 486 75 q 250 -15 375 -15 q 112 31 165 -15 q 58 158 58 76 q 94 268 58 219 q 192 331 118 300 q 332 364 233 346 q 417 378 349 368 l 481 386 l 481 414 q 446 562 481 521 q 325 603 411 603 q 140 519 207 603 q 85 572 140 521 q 331 674 165 674 q 572 435 572 674 l 572 0 l 496 0 l 486 75 m 481 326 l 417 315 q 268 288 313 297 q 176 244 211 272 q 144 171 144 219 q 267 47 144 47 q 481 142 369 47 l 481 326 z "},"å":{"ha":657,"x_min":58,"x_max":572,"o":"m 329 811 q 387 836 365 811 q 408 896 408 861 q 387 956 408 931 q 329 981 365 981 q 272 956 293 981 q 250 896 250 931 q 269 836 250 864 q 329 811 292 811 m 437 995 q 457 975 437 995 q 476 897 476 956 q 436 798 476 839 q 329 757 396 757 q 225 797 264 757 q 186 896 186 838 q 225 994 186 954 q 329 1035 264 1035 q 437 995 397 1035 m 486 75 q 250 -15 375 -15 q 112 31 165 -15 q 58 158 58 76 q 94 268 58 219 q 192 331 118 300 q 332 364 233 346 q 417 378 349 368 l 481 386 l 481 414 q 446 562 481 521 q 325 603 411 603 q 140 519 207 603 q 85 572 140 521 q 331 674 165 674 q 572 435 572 674 l 572 0 l 496 0 l 486 75 m 481 326 l 417 315 q 268 288 313 297 q 176 244 211 272 q 144 171 144 219 q 267 47 144 47 q 481 142 369 47 l 481 326 z "},"^":{"ha":678,"x_min":65,"x_max":613,"o":"m 156 65 l 65 65 l 303 644 l 383 644 l 613 65 l 514 65 l 338 540 l 156 65 z "},"~":{"ha":621,"x_min":13,"x_max":606,"o":"m 301 492 q 140 532 164 532 q 110 518 119 532 q 90 456 99 503 l 13 456 q 35 553 18 511 q 75 597 46 581 q 126 610 90 606 l 151 610 q 325 571 194 610 q 479 532 456 532 q 510 542 493 532 q 524 578 515 546 q 525 585 524 581 q 527 597 526 589 q 529 610 528 604 l 606 610 q 574 488 603 524 q 488 451 544 451 q 301 492 438 451 z "},"*":{"ha":532,"x_min":39,"x_max":493,"o":"m 299 490 l 233 490 l 240 675 l 69 576 l 40 632 l 217 717 l 39 800 l 68 857 l 240 757 l 233 942 l 299 942 l 292 757 l 463 857 l 493 801 l 315 717 l 493 633 l 463 576 l 292 676 l 299 490 z "},"@":{"ha":1097,"x_min":74,"x_max":1025,"o":"m 724 492 q 571 543 646 543 q 465 507 513 543 q 392 408 417 471 q 367 272 367 346 q 399 157 367 206 q 501 106 432 106 q 589 133 544 106 q 671 238 642 168 q 696 325 688 278 l 724 492 m 606 69 q 492 43 554 43 q 378 76 425 43 q 310 163 333 108 q 286 275 286 214 q 363 500 286 399 q 558 604 439 604 q 738 543 644 604 l 753 592 l 817 592 l 757 210 q 790 143 757 171 q 822 132 806 132 q 874 154 847 132 q 919 218 903 178 q 944 324 936 254 q 949 392 949 356 q 872 610 949 522 q 686 726 794 696 q 571 742 628 742 q 415 711 485 742 q 292 628 350 683 q 207 510 239 575 q 161 372 174 442 q 154 301 154 333 q 253 31 154 138 q 540 -78 353 -76 q 804 -19 661 -78 l 831 -67 q 542 -144 678 -144 q 238 -51 358 -144 q 92 172 128 33 q 74 306 74 235 q 157 589 74 461 q 396 781 247 726 q 568 808 479 808 q 833 732 717 808 q 1001 526 954 653 q 1025 383 1025 456 q 1008 249 1025 313 q 963 151 992 188 q 894 92 929 110 q 810 72 856 72 q 732 110 765 72 q 703 163 714 131 q 606 69 660 96 z "},"ã":{"ha":657,"x_min":58,"x_max":572,"o":"m 244 814 q 225 800 233 814 q 217 757 217 786 l 154 757 q 153 783 153 763 q 236 879 153 879 q 335 850 264 879 q 418 819 401 819 q 443 882 443 819 l 507 882 l 507 860 q 482 784 507 810 q 421 758 457 758 q 324 786 388 758 q 244 814 264 811 m 486 75 q 250 -15 375 -15 q 112 31 165 -15 q 58 158 58 76 q 94 268 58 219 q 192 331 118 300 q 332 364 233 346 q 417 378 349 368 l 481 386 l 481 414 q 446 562 481 521 q 325 603 411 603 q 140 519 207 603 q 85 572 140 521 q 331 674 165 674 q 572 435 572 674 l 572 0 l 496 0 l 486 75 m 481 326 l 417 315 q 268 288 313 297 q 176 244 211 272 q 144 171 144 219 q 267 47 144 47 q 481 142 369 47 l 481 326 z "},"b":{"ha":694,"x_min":81,"x_max":633,"o":"m 81 963 l 172 963 l 172 710 l 172 557 q 381 674 229 674 q 566 581 499 674 q 633 324 633 488 q 565 76 633 168 q 374 -15 496 -15 q 246 16 301 -15 q 165 104 190 47 l 153 0 l 81 0 l 81 963 m 258 571 q 182 446 204 529 q 169 336 169 397 q 364 50 169 50 q 493 127 446 50 q 540 335 540 204 q 491 529 540 453 q 363 606 442 606 q 258 571 304 606 z "},"\\":{"ha":408,"x_min":29,"x_max":379,"o":"m 379 -3 l 285 -3 l 29 943 l 122 943 l 379 -3 z "},"|":{"ha":268,"x_min":88,"x_max":181,"o":"m 181 -126 l 88 -126 l 88 967 l 181 967 l 181 -126 z "},"{":{"ha":414,"x_min":22,"x_max":392,"o":"m 22 486 q 79 501 53 488 q 111 536 94 508 q 124 585 119 551 q 128 638 128 618 l 128 665 l 128 728 q 138 838 128 796 q 174 922 153 901 q 251 976 217 965 q 392 994 306 994 l 392 936 q 311 929 333 936 q 283 921 296 924 q 246 885 263 914 q 229 822 238 874 q 224 729 224 789 l 224 668 l 224 665 q 201 517 224 567 q 122 456 179 468 q 201 392 179 440 q 224 246 224 344 q 232 67 224 108 q 281 -10 244 11 q 392 -26 317 -26 l 392 -83 q 251 -64 310 -83 q 174 -10 214 -53 q 138 74 153 10 q 128 183 128 115 l 128 246 l 128 274 q 124 328 128 294 q 111 375 119 357 q 79 410 90 404 q 22 425 44 424 l 22 486 z "},"}":{"ha":414,"x_min":24,"x_max":392,"o":"m 392 425 q 338 410 372 424 q 306 375 321 401 q 297 351 300 367 q 294 336 296 344 q 292 326 292 328 q 288 274 288 310 l 288 246 q 285 128 288 175 q 264 29 282 82 q 210 -42 253 -4 q 101 -79 181 -68 q 24 -85 69 -85 l 24 -26 q 138 -8 103 -26 q 182 67 174 11 q 190 246 190 108 q 213 391 190 342 q 293 456 236 440 q 213 517 236 468 q 190 665 190 565 l 190 668 l 190 729 q 186 822 190 797 q 169 885 178 874 q 133 919 149 914 q 69 936 86 935 l 24 936 l 24 993 q 164 975 107 993 q 242 922 196 965 q 278 838 263 900 q 288 728 283 815 l 288 665 l 288 638 q 292 583 288 600 q 297 558 296 565 q 318 518 301 539 q 361 492 335 497 q 392 486 372 489 l 392 425 z "},"[":{"ha":457,"x_min":85,"x_max":381,"o":"m 85 -33 l 85 954 l 381 954 l 381 885 l 178 885 l 178 36 l 381 36 l 381 -33 l 85 -33 z "},"]":{"ha":456,"x_min":76,"x_max":371,"o":"m 76 885 l 76 954 l 371 954 l 371 -33 l 76 -33 l 76 36 l 276 36 l 276 885 l 76 885 z "},"˘":{"ha":518,"x_min":82,"x_max":436,"o":"m 156 926 q 183 854 156 879 q 258 829 210 829 q 334 854 307 829 q 361 926 361 879 l 436 926 q 384 807 435 851 q 260 763 333 763 q 134 807 185 763 q 82 926 83 851 l 156 926 z "},"¦":{"ha":268,"x_min":88,"x_max":181,"o":"m 181 568 l 88 568 l 88 968 l 181 968 l 181 568 m 88 -128 l 88 278 l 181 278 l 181 -128 l 88 -128 z "},"c":{"ha":632,"x_min":60,"x_max":588,"o":"m 188 628 q 347 674 253 674 q 490 632 424 674 q 588 472 560 585 l 511 451 q 451 568 489 531 q 351 606 413 606 q 203 533 253 606 q 153 331 153 461 q 197 131 153 203 q 342 53 243 53 q 514 203 469 53 l 585 182 q 489 29 563 81 q 340 -15 424 -15 q 133 77 206 -15 q 60 329 60 169 q 188 628 60 539 z "},"ć":{"ha":632,"x_min":60,"x_max":588,"o":"m 450 965 l 575 965 l 378 757 l 318 757 l 450 965 m 188 628 q 347 674 253 674 q 490 632 424 674 q 588 472 560 585 l 511 451 q 451 568 489 531 q 351 606 413 606 q 203 533 253 606 q 153 331 153 461 q 197 131 153 203 q 342 53 243 53 q 514 203 469 53 l 585 182 q 489 29 563 81 q 340 -15 424 -15 q 133 77 206 -15 q 60 329 60 169 q 188 628 60 539 z "},"ˇ":{"ha":539,"x_min":118,"x_max":431,"o":"m 336 754 l 211 754 l 118 963 l 176 963 l 275 814 l 371 963 l 431 963 l 336 754 z "},"č":{"ha":632,"x_min":60,"x_max":588,"o":"m 408 757 l 283 757 l 190 965 l 249 965 l 347 817 l 443 965 l 503 965 l 408 757 m 188 628 q 347 674 253 674 q 490 632 424 674 q 588 472 560 585 l 511 451 q 451 568 489 531 q 351 606 413 606 q 203 533 253 606 q 153 331 153 461 q 197 131 153 203 q 342 53 243 53 q 514 203 469 53 l 585 182 q 489 29 563 81 q 340 -15 424 -15 q 133 77 206 -15 q 60 329 60 169 q 188 628 60 539 z "},"ç":{"ha":632,"x_min":60,"x_max":588,"o":"m 276 -112 l 276 -7 l 406 -7 l 406 -121 q 383 -214 406 -176 q 318 -251 361 -251 q 292 -246 303 -251 l 292 -203 q 315 -208 308 -208 q 336 -189 329 -208 q 342 -112 342 -172 l 276 -112 m 188 628 q 347 674 253 674 q 490 632 424 674 q 588 472 560 585 l 511 451 q 451 568 489 531 q 351 606 413 606 q 203 533 253 606 q 153 331 153 461 q 197 131 153 203 q 342 53 243 53 q 514 203 469 53 l 585 182 q 489 29 563 81 q 340 -15 424 -15 q 133 77 206 -15 q 60 329 60 169 q 188 628 60 539 z "},"ĉ":{"ha":632,"x_min":60,"x_max":588,"o":"m 286 965 l 411 965 l 524 757 l 464 757 l 349 899 l 232 757 l 172 757 l 286 965 m 188 628 q 347 674 253 674 q 490 632 424 674 q 588 472 560 585 l 511 451 q 451 568 489 531 q 351 606 413 606 q 203 533 253 606 q 153 331 153 461 q 197 131 153 203 q 342 53 243 53 q 514 203 469 53 l 585 182 q 489 29 563 81 q 340 -15 424 -15 q 133 77 206 -15 q 60 329 60 169 q 188 628 60 539 z "},"ċ":{"ha":632,"x_min":60,"x_max":588,"o":"m 290 895 q 300 907 290 895 q 347 918 311 918 q 404 895 383 918 q 425 838 425 872 q 404 780 425 803 q 347 757 383 757 q 290 780 311 757 q 268 838 268 803 q 290 895 268 872 m 188 628 q 347 674 253 674 q 490 632 424 674 q 588 472 560 585 l 511 451 q 451 568 489 531 q 351 606 413 606 q 203 533 253 606 q 153 331 153 461 q 197 131 153 203 q 342 53 243 53 q 514 203 469 53 l 585 182 q 489 29 563 81 q 340 -15 424 -15 q 133 77 206 -15 q 60 329 60 169 q 188 628 60 539 z "},"¸":{"ha":279,"x_min":96,"x_max":225,"o":"m 96 -112 l 96 -7 l 225 -7 l 225 -121 q 203 -214 225 -176 q 138 -251 181 -251 q 111 -246 122 -251 l 111 -203 q 135 -208 128 -208 q 156 -189 149 -208 q 161 -112 161 -172 l 96 -112 z "},"¢":{"ha":640,"x_min":61,"x_max":586,"o":"m 311 603 q 193 517 233 589 q 153 331 153 446 q 222 101 153 172 q 311 56 257 64 l 311 603 m 311 -14 q 89 158 147 0 q 61 329 61 233 q 172 617 61 526 q 311 672 228 661 l 311 807 l 372 807 l 372 672 q 476 639 435 665 q 560 547 526 607 q 586 472 575 517 l 514 451 q 372 604 478 592 l 372 54 q 518 208 478 71 l 583 186 q 524 63 567 107 q 426 -1 479 15 q 372 -14 400 -11 l 372 -135 l 311 -135 l 311 -14 z "},"ˆ":{"ha":540,"x_min":97,"x_max":449,"o":"m 211 963 l 336 963 l 449 754 l 389 754 l 274 896 l 157 754 l 97 754 l 211 963 z "},":":{"ha":310,"x_min":103,"x_max":214,"o":"m 103 660 l 214 660 l 214 521 l 103 521 l 103 660 m 214 250 l 214 110 l 103 110 l 103 250 l 214 250 z "},",":{"ha":286,"x_min":65,"x_max":193,"o":"m 65 142 l 193 142 l 193 86 q 174 -76 189 -25 q 106 -164 160 -126 l 74 -124 q 108 -72 93 -108 q 125 11 124 -36 l 65 18 l 65 142 z "},"©":{"ha":1096,"x_min":79,"x_max":1017,"o":"m 854 807 q 715 901 796 867 q 547 936 635 936 q 382 901 463 936 q 242 807 301 867 q 148 667 182 749 q 114 497 114 585 q 172 281 114 382 q 331 124 229 181 q 547 65 431 65 q 764 123 664 65 q 924 282 864 181 q 982 497 982 382 q 854 807 982 676 m 782 94 q 547 31 675 31 q 314 94 422 31 q 143 265 206 157 q 79 499 79 371 q 142 733 79 624 q 314 906 206 842 q 547 968 419 968 q 781 905 672 968 q 954 733 890 842 q 1017 499 1017 625 q 953 265 1017 374 q 782 94 890 157 m 726 654 l 682 643 q 550 758 654 758 q 385 514 385 758 q 424 326 385 385 q 550 268 463 268 q 688 376 654 268 l 729 361 q 547 222 688 222 q 385 292 439 222 q 332 514 332 363 q 389 731 332 658 q 551 804 446 804 q 726 654 693 804 z "},"¤":{"ha":688,"x_min":50,"x_max":638,"o":"m 503 246 q 344 183 440 183 q 208 225 267 183 l 122 126 l 82 164 l 171 264 q 118 422 118 332 q 151 553 118 497 l 50 643 l 86 683 l 185 596 q 344 660 247 660 q 481 617 425 660 l 567 714 l 607 678 l 518 576 q 568 421 568 511 q 536 289 568 350 l 638 199 l 601 158 l 503 246 m 453 546 q 432 571 453 546 q 344 596 411 596 q 237 545 278 596 q 196 422 196 494 q 237 299 196 349 q 346 249 278 249 q 452 300 410 249 q 494 424 494 351 q 453 546 494 496 z "},"d":{"ha":688,"x_min":58,"x_max":603,"o":"m 428 79 q 503 201 481 110 q 514 322 514 254 q 433 568 514 499 q 324 606 389 606 q 197 528 242 606 q 151 319 151 451 q 199 126 151 200 q 325 53 246 53 q 428 79 385 53 m 310 674 q 511 556 460 674 l 511 950 l 603 950 l 603 0 l 529 0 l 517 111 q 437 19 492 53 q 313 -15 382 -15 q 127 76 196 -15 q 58 322 58 168 q 124 580 58 486 q 310 674 190 674 z "},"ď":{"ha":688,"x_min":58,"x_max":826,"o":"m 428 79 q 503 201 481 110 q 514 322 514 254 q 433 568 514 499 q 324 606 389 606 q 197 528 242 606 q 151 319 151 451 q 199 126 151 200 q 325 53 246 53 q 428 79 385 53 m 310 674 q 511 556 460 674 l 511 950 l 603 950 l 603 0 l 529 0 l 517 111 q 437 19 492 53 q 313 -15 382 -15 q 127 76 196 -15 q 58 322 58 168 q 124 580 58 486 q 310 674 190 674 m 699 950 l 826 950 l 826 894 q 808 733 822 783 q 739 644 793 682 l 707 685 q 742 736 726 700 q 758 819 757 772 l 699 826 l 699 950 z "},"đ":{"ha":660,"x_min":63,"x_max":660,"o":"m 429 79 q 504 201 482 110 q 515 322 515 254 q 476 524 515 447 q 325 606 435 606 q 201 529 246 606 q 156 322 156 453 q 202 127 156 201 q 326 53 249 53 q 429 79 386 53 m 311 674 q 513 556 464 674 l 513 771 l 325 771 l 325 826 l 513 826 l 513 950 l 604 950 l 604 826 l 660 826 l 660 771 l 604 771 l 604 0 l 531 0 l 518 111 q 438 19 493 53 q 314 -15 382 -15 q 130 76 197 -15 q 63 322 63 168 q 127 581 63 488 q 311 674 192 674 z "},"°":{"ha":311,"x_min":0,"x_max":311,"o":"m 219 885 q 207 899 219 885 q 154 913 194 913 q 89 885 114 913 q 64 817 64 857 q 89 748 64 776 q 154 719 114 719 q 220 748 196 719 q 244 817 244 776 q 219 885 244 857 m 154 665 q 44 709 88 665 q 0 817 0 753 q 44 924 0 881 q 154 968 88 968 q 267 925 224 968 q 311 818 311 882 q 267 709 311 753 q 154 665 224 665 z "},"¨":{"ha":554,"x_min":88,"x_max":438,"o":"m 88 881 l 194 881 l 194 768 l 88 768 l 88 881 m 438 881 l 438 768 l 331 768 l 331 881 l 438 881 z "},"÷":{"ha":660,"x_min":65,"x_max":547,"o":"m 547 356 l 65 356 l 65 418 l 547 418 l 547 356 m 251 660 l 364 660 l 364 521 l 251 521 l 251 660 m 364 249 l 364 110 l 251 110 l 251 249 l 364 249 z "},"$":{"ha":853,"x_min":64,"x_max":779,"o":"m 413 -15 q 199 44 300 -12 q 64 240 88 106 l 143 275 q 413 65 197 76 l 413 465 q 390 474 399 469 q 333 494 379 478 q 228 542 272 514 q 150 613 176 571 q 118 719 118 660 q 210 893 118 829 q 413 954 290 947 l 413 1078 l 471 1078 l 471 954 q 758 789 658 944 l 692 740 q 471 879 624 865 l 471 542 q 483 538 475 539 q 490 536 486 536 q 493 535 492 535 q 565 506 525 521 q 681 447 633 478 q 754 368 731 413 q 779 253 779 321 q 698 63 779 133 q 471 -14 617 -7 l 471 -129 l 413 -129 l 413 -15 m 472 65 q 617 113 561 74 q 682 250 682 157 q 647 351 682 310 q 546 418 621 383 q 471 446 510 433 l 471 65 l 472 65 m 413 878 q 271 834 324 872 q 218 726 218 796 q 258 635 218 672 q 356 582 289 607 q 413 561 381 571 l 413 878 z "},"˙":{"ha":347,"x_min":99,"x_max":256,"o":"m 120 976 q 131 987 120 976 q 178 999 142 999 q 235 976 214 999 q 256 918 256 953 q 235 860 256 883 q 178 838 214 838 q 120 860 142 838 q 99 918 99 883 q 120 976 99 953 z "},"ı":{"ha":265,"x_min":90,"x_max":182,"o":"m 90 0 l 90 660 l 182 660 l 182 0 l 90 0 z "},"e":{"ha":661,"x_min":60,"x_max":604,"o":"m 517 385 q 340 606 514 606 q 207 540 251 606 q 154 385 163 479 l 517 385 m 543 583 q 604 363 604 497 q 603 325 604 336 l 153 325 q 197 135 153 207 q 346 53 246 53 q 513 167 475 53 l 583 150 q 531 58 568 97 q 447 3 494 19 q 349 -15 404 -12 l 346 -15 q 126 90 199 -15 q 60 331 60 185 q 135 580 60 486 q 343 674 211 674 q 543 583 478 674 z "},"é":{"ha":661,"x_min":60,"x_max":604,"o":"m 444 965 l 569 965 l 372 757 l 313 757 l 444 965 m 517 385 q 340 606 514 606 q 207 540 251 606 q 154 385 163 479 l 517 385 m 543 583 q 604 363 604 497 q 603 325 604 336 l 153 325 q 197 135 153 207 q 346 53 246 53 q 513 167 475 53 l 583 150 q 531 58 568 97 q 447 3 494 19 q 349 -15 404 -12 l 346 -15 q 126 90 199 -15 q 60 331 60 185 q 135 580 60 486 q 343 674 211 674 q 543 583 478 674 z "},"ě":{"ha":661,"x_min":60,"x_max":604,"o":"m 406 757 l 281 757 l 188 965 l 246 965 l 344 817 l 440 965 l 500 965 l 406 757 m 517 385 q 340 606 514 606 q 207 540 251 606 q 154 385 163 479 l 517 385 m 543 583 q 604 363 604 497 q 603 325 604 336 l 153 325 q 197 135 153 207 q 346 53 246 53 q 513 167 475 53 l 583 150 q 531 58 568 97 q 447 3 494 19 q 349 -15 404 -12 l 346 -15 q 126 90 199 -15 q 60 331 60 185 q 135 580 60 486 q 343 674 211 674 q 543 583 478 674 z "},"ê":{"ha":661,"x_min":60,"x_max":604,"o":"m 281 965 l 406 965 l 518 757 l 458 757 l 343 899 l 226 757 l 167 757 l 281 965 m 517 385 q 340 606 514 606 q 207 540 251 606 q 154 385 163 479 l 517 385 m 543 583 q 604 363 604 497 q 603 325 604 336 l 153 325 q 197 135 153 207 q 346 53 246 53 q 513 167 475 53 l 583 150 q 531 58 568 97 q 447 3 494 19 q 349 -15 404 -12 l 346 -15 q 126 90 199 -15 q 60 331 60 185 q 135 580 60 486 q 343 674 211 674 q 543 583 478 674 z "},"ë":{"ha":661,"x_min":60,"x_max":604,"o":"m 168 869 l 275 869 l 275 757 l 168 757 l 168 869 m 518 869 l 518 757 l 411 757 l 411 869 l 518 869 m 517 385 q 340 606 514 606 q 207 540 251 606 q 154 385 163 479 l 517 385 m 543 583 q 604 363 604 497 q 603 325 604 336 l 153 325 q 197 135 153 207 q 346 53 246 53 q 513 167 475 53 l 583 150 q 531 58 568 97 q 447 3 494 19 q 349 -15 404 -12 l 346 -15 q 126 90 199 -15 q 60 331 60 185 q 135 580 60 486 q 343 674 211 674 q 543 583 478 674 z "},"è":{"ha":661,"x_min":60,"x_max":604,"o":"m 117 965 l 242 965 l 374 758 l 313 757 l 117 965 m 517 385 q 340 606 514 606 q 207 540 251 606 q 154 385 163 479 l 517 385 m 543 583 q 604 363 604 497 q 603 325 604 336 l 153 325 q 197 135 153 207 q 346 53 246 53 q 513 167 475 53 l 583 150 q 531 58 568 97 q 447 3 494 19 q 349 -15 404 -12 l 346 -15 q 126 90 199 -15 q 60 331 60 185 q 135 580 60 486 q 343 674 211 674 q 543 583 478 674 z "},"ē":{"ha":661,"x_min":60,"x_max":604,"o":"m 196 757 l 196 829 l 489 829 l 489 757 l 196 757 m 517 385 q 340 606 514 606 q 207 540 251 606 q 154 385 163 479 l 517 385 m 543 583 q 604 363 604 497 q 603 325 604 336 l 153 325 q 197 135 153 207 q 346 53 246 53 q 513 167 475 53 l 583 150 q 531 58 568 97 q 447 3 494 19 q 349 -15 404 -12 l 346 -15 q 126 90 199 -15 q 60 331 60 185 q 135 580 60 486 q 343 674 211 674 q 543 583 478 674 z "},"—":{"ha":1319,"x_min":88,"x_max":1232,"o":"m 88 215 l 88 271 l 1232 271 l 1232 215 l 88 215 z "},"–":{"ha":660,"x_min":88,"x_max":572,"o":"m 88 215 l 88 271 l 572 271 l 572 215 l 88 215 z "},"ę":{"ha":661,"x_min":60,"x_max":604,"o":"m 369 -7 q 356 -40 368 -8 q 347 -57 353 -46 q 335 -89 339 -76 l 329 -106 q 321 -135 322 -128 q 319 -149 319 -140 q 367 -189 319 -189 q 390 -186 371 -189 l 390 -239 q 347 -244 369 -244 q 271 -221 300 -244 q 242 -162 242 -197 q 269 -75 242 -124 q 324 -7 296 -26 l 369 -7 m 517 385 q 340 606 514 606 q 207 540 251 606 q 154 385 163 479 l 517 385 m 543 583 q 604 363 604 497 q 603 325 604 336 l 153 325 q 197 135 153 207 q 346 53 246 53 q 513 167 475 53 l 583 150 q 531 58 568 97 q 447 3 494 19 q 349 -15 404 -12 l 346 -15 q 126 90 199 -15 q 60 331 60 185 q 135 580 60 486 q 343 674 211 674 q 543 583 478 674 z "},"=":{"ha":528,"x_min":88,"x_max":440,"o":"m 88 193 l 88 257 l 440 257 l 440 193 l 88 193 m 88 356 l 88 418 l 440 418 l 440 356 l 88 356 z "},"ð":{"ha":678,"x_min":61,"x_max":618,"o":"m 151 282 q 202 116 151 178 q 333 54 253 54 q 481 127 431 54 q 531 331 531 200 q 525 418 531 401 q 336 514 439 514 q 203 451 256 514 q 151 282 151 388 m 238 710 l 360 789 q 110 863 261 863 l 110 922 q 417 826 297 922 l 550 913 l 585 865 l 461 785 q 573 591 528 715 q 618 340 618 467 q 553 88 618 183 q 333 -15 485 -15 q 128 79 201 -15 q 61 293 61 164 q 143 510 61 431 q 325 585 218 585 q 522 499 436 585 q 477 634 514 563 q 399 744 440 706 l 272 661 l 238 710 z "},"!":{"ha":276,"x_min":89,"x_max":197,"o":"m 89 126 l 194 126 l 194 0 l 89 0 l 89 126 m 122 197 l 89 943 l 197 943 l 161 197 l 122 197 z "},"¡":{"ha":275,"x_min":79,"x_max":197,"o":"m 90 817 l 90 943 l 196 943 l 196 817 l 90 817 m 113 747 l 161 747 l 197 0 l 79 0 l 113 747 z "},"f":{"ha":401,"x_min":28,"x_max":390,"o":"m 251 861 q 235 810 238 838 q 231 732 231 768 l 231 660 l 360 660 l 360 592 l 231 592 l 231 0 l 140 0 l 140 592 l 28 592 l 28 660 l 140 660 l 140 735 q 175 897 140 846 q 290 947 210 947 q 390 921 343 947 l 369 861 q 297 881 322 881 q 251 861 263 881 z "},"ﬁ":{"ha":690,"x_min":33,"x_max":604,"o":"m 256 861 q 240 810 243 844 q 236 732 236 768 l 236 660 l 604 660 l 604 0 l 513 0 l 513 592 l 236 592 l 236 0 l 146 0 l 146 592 l 33 592 l 33 660 l 146 660 l 146 735 q 181 897 146 846 q 296 947 215 947 q 396 921 349 947 l 375 861 q 303 881 328 881 q 256 861 269 881 m 511 800 l 511 915 l 601 915 l 601 800 l 511 800 z "},"ﬂ":{"ha":690,"x_min":33,"x_max":604,"o":"m 256 861 q 240 810 243 844 q 236 732 236 768 l 236 660 l 513 660 l 513 950 l 604 950 l 604 0 l 513 0 l 513 592 l 236 592 l 236 0 l 146 0 l 146 592 l 33 592 l 33 660 l 146 660 l 146 735 q 181 897 146 846 q 296 947 215 947 q 396 921 349 947 l 375 861 q 303 881 328 881 q 256 861 269 881 z "},"g":{"ha":694,"x_min":61,"x_max":613,"o":"m 106 -172 l 160 -121 q 344 -206 211 -206 q 526 18 526 -206 l 526 83 q 328 -15 451 -15 q 131 81 201 -15 q 61 339 61 176 q 179 629 61 542 q 324 674 240 674 q 535 574 451 674 l 540 660 l 613 660 l 613 13 q 540 -197 613 -118 q 339 -276 468 -276 q 106 -172 168 -276 m 526 350 q 481 536 526 476 q 383 600 442 588 q 333 606 361 606 q 194 524 240 606 q 151 342 151 450 q 199 128 151 204 q 331 53 247 53 q 438 83 390 53 q 514 211 490 117 q 526 329 526 261 l 526 350 z "},"ğ":{"ha":694,"x_min":61,"x_max":613,"o":"m 219 921 q 247 849 219 874 q 322 824 274 824 q 398 849 371 824 q 425 921 425 874 l 500 921 q 448 801 499 846 q 324 757 397 757 q 198 801 249 757 q 146 921 147 846 l 219 921 m 106 -172 l 160 -121 q 344 -206 211 -206 q 526 18 526 -206 l 526 83 q 328 -15 451 -15 q 131 81 201 -15 q 61 339 61 176 q 179 629 61 542 q 324 674 240 674 q 535 574 451 674 l 540 660 l 613 660 l 613 13 q 540 -197 613 -118 q 339 -276 468 -276 q 106 -172 168 -276 m 526 350 q 481 536 526 476 q 383 600 442 588 q 333 606 361 606 q 194 524 240 606 q 151 342 151 450 q 199 128 151 204 q 331 53 247 53 q 438 83 390 53 q 514 211 490 117 q 526 329 526 261 l 526 350 z "},"ĝ":{"ha":694,"x_min":61,"x_max":613,"o":"m 261 965 l 386 965 l 499 757 l 439 757 l 324 899 l 207 757 l 147 757 l 261 965 m 106 -172 l 160 -121 q 344 -206 211 -206 q 526 18 526 -206 l 526 83 q 328 -15 451 -15 q 131 81 201 -15 q 61 339 61 176 q 179 629 61 542 q 324 674 240 674 q 535 574 451 674 l 540 660 l 613 660 l 613 13 q 540 -197 613 -118 q 339 -276 468 -276 q 106 -172 168 -276 m 526 350 q 481 536 526 476 q 383 600 442 588 q 333 606 361 606 q 194 524 240 606 q 151 342 151 450 q 199 128 151 204 q 331 53 247 53 q 438 83 390 53 q 514 211 490 117 q 526 329 526 261 l 526 350 z "},"ġ":{"ha":694,"x_min":61,"x_max":613,"o":"m 267 895 q 278 907 267 895 q 325 918 289 918 q 382 895 361 918 q 403 838 403 872 q 382 780 403 803 q 325 757 361 757 q 267 780 289 757 q 246 838 246 803 q 267 895 246 872 m 106 -172 l 160 -121 q 344 -206 211 -206 q 526 18 526 -206 l 526 83 q 328 -15 451 -15 q 131 81 201 -15 q 61 339 61 176 q 179 629 61 542 q 324 674 240 674 q 535 574 451 674 l 540 660 l 613 660 l 613 13 q 540 -197 613 -118 q 339 -276 468 -276 q 106 -172 168 -276 m 526 350 q 481 536 526 476 q 383 600 442 588 q 333 606 361 606 q 194 524 240 606 q 151 342 151 450 q 199 128 151 204 q 331 53 247 53 q 438 83 390 53 q 514 211 490 117 q 526 329 526 261 l 526 350 z "},"ß":{"ha":772,"x_min":83,"x_max":722,"o":"m 83 0 l 83 742 q 172 907 83 847 q 365 963 256 963 q 544 911 482 963 q 606 775 606 860 q 546 649 606 701 q 436 578 497 606 q 394 554 414 568 q 378 533 378 542 l 378 531 q 446 465 378 497 q 514 435 499 440 q 654 354 601 394 q 722 217 722 300 q 682 79 722 126 q 492 10 636 26 q 310 0 422 0 l 283 0 l 283 75 q 567 113 497 75 q 615 154 603 132 q 628 214 628 176 q 560 319 628 278 q 419 392 519 344 q 303 471 335 429 q 283 525 283 497 q 367 628 283 585 q 386 638 369 629 q 407 649 403 646 q 425 659 411 651 q 445 671 439 667 q 462 683 451 675 q 480 697 472 690 q 494 713 488 704 q 518 778 518 743 q 478 864 518 833 q 364 894 439 894 q 232 851 286 894 q 178 735 178 807 l 178 0 l 83 0 z "},"`":{"ha":319,"x_min":31,"x_max":288,"o":"m 31 963 l 156 963 l 288 756 l 226 754 l 31 963 z "},">":{"ha":676,"x_min":35,"x_max":646,"o":"m 35 522 l 35 613 l 646 376 l 646 296 l 35 65 l 35 165 l 540 340 l 35 522 z "},"«":{"ha":610,"x_min":33,"x_max":576,"o":"m 33 356 l 33 483 l 319 676 l 319 586 l 96 418 l 319 253 l 319 163 l 33 356 m 576 163 l 289 356 l 289 483 l 576 676 l 576 586 l 353 418 l 576 253 l 576 163 z "},"»":{"ha":610,"x_min":35,"x_max":576,"o":"m 576 482 l 576 356 l 290 161 l 290 251 l 514 418 l 290 585 l 290 675 l 576 482 m 35 675 l 321 482 l 321 356 l 35 161 l 35 251 l 257 418 l 35 585 l 35 675 z "},"‹":{"ha":340,"x_min":33,"x_max":279,"o":"m 33 356 l 33 483 l 279 676 l 279 586 l 96 418 l 279 253 l 279 163 l 33 356 z "},"›":{"ha":340,"x_min":33,"x_max":279,"o":"m 33 163 l 33 253 l 218 418 l 33 586 l 33 676 l 279 483 l 279 356 l 33 163 z "},"h":{"ha":710,"x_min":83,"x_max":632,"o":"m 243 547 q 182 401 196 494 q 175 311 175 353 l 175 0 l 83 0 l 83 949 l 175 949 l 175 678 l 175 556 q 401 674 250 674 q 539 638 483 674 q 607 547 583 606 q 631 435 625 499 q 632 376 632 417 l 632 0 l 540 0 l 540 382 q 505 551 540 497 q 388 606 469 606 q 243 547 294 606 z "},"ħ":{"ha":719,"x_min":0,"x_max":639,"o":"m 0 776 l 0 836 l 90 836 l 90 949 l 182 949 l 182 836 l 356 836 l 356 776 l 182 776 l 182 678 l 182 556 q 408 674 257 674 q 546 638 490 674 q 614 547 590 606 q 638 435 632 499 q 639 376 639 417 l 639 0 l 547 0 l 547 382 q 512 551 547 497 q 394 606 476 606 q 250 547 301 606 q 189 401 203 496 q 182 311 182 353 l 182 0 l 90 0 l 90 776 l 0 776 z "},"ĥ":{"ha":713,"x_min":83,"x_max":632,"o":"m 243 547 q 182 401 196 494 q 175 311 175 353 l 175 0 l 83 0 l 83 949 l 175 949 l 175 678 l 175 556 q 401 674 250 674 q 539 638 483 674 q 607 547 583 606 q 631 435 625 499 q 632 376 632 417 l 632 0 l 540 0 l 540 382 q 505 551 540 497 q 388 606 469 606 q 243 547 294 606 m 358 1175 l 446 1175 l 551 968 l 493 968 l 403 1115 l 304 968 l 247 968 l 358 1175 z "},"˝":{"ha":481,"x_min":56,"x_max":440,"o":"m 315 963 l 440 963 l 276 754 l 228 754 l 315 963 m 124 963 l 246 963 l 99 754 l 56 754 l 124 963 z "},"-":{"ha":467,"x_min":65,"x_max":386,"o":"m 65 257 l 65 331 l 386 331 l 386 257 l 65 257 z "},"i":{"ha":264,"x_min":88,"x_max":179,"o":"m 89 0 l 89 660 l 179 660 l 179 0 l 89 0 m 88 800 l 88 915 l 178 915 l 178 800 l 88 800 z "},"í":{"ha":265,"x_min":90,"x_max":364,"o":"m 239 965 l 364 965 l 167 757 l 107 757 l 239 965 m 90 0 l 90 660 l 182 660 l 182 0 l 90 0 z "},"ĭ":{"ha":265,"x_min":-40,"x_max":314,"o":"m 33 921 q 60 849 33 874 q 136 824 88 824 q 212 849 185 824 q 239 921 239 874 l 314 921 q 262 801 313 846 q 138 757 211 757 q 12 801 63 757 q -40 921 -39 846 l 33 921 m 90 0 l 90 660 l 182 660 l 182 0 l 90 0 z "},"î":{"ha":265,"x_min":-39,"x_max":313,"o":"m 75 965 l 200 965 l 313 757 l 253 757 l 138 899 l 21 757 l -39 757 l 75 965 m 90 0 l 90 660 l 182 660 l 182 0 l 90 0 z "},"ï":{"ha":265,"x_min":-39,"x_max":311,"o":"m -39 869 l 68 869 l 68 757 l -39 757 l -39 869 m 311 869 l 311 757 l 204 757 l 204 869 l 311 869 m 90 0 l 90 660 l 182 660 l 182 0 l 90 0 z "},"ì":{"ha":265,"x_min":-90,"x_max":182,"o":"m -90 965 l 35 965 l 167 758 l 106 757 l -90 965 m 90 0 l 90 660 l 182 660 l 182 0 l 90 0 z "},"ĳ":{"ha":574,"x_min":88,"x_max":493,"o":"m 89 0 l 89 660 l 179 660 l 179 0 l 89 0 m 88 800 l 88 915 l 178 915 l 178 800 l 88 800 m 403 800 l 403 915 l 493 915 l 493 800 l 403 800 m 401 660 l 493 660 l 493 -8 q 471 -157 493 -114 q 353 -210 443 -210 q 249 -183 292 -210 l 264 -114 q 340 -135 318 -135 q 401 -58 401 -135 l 401 660 z "},"ī":{"ha":265,"x_min":-10,"x_max":283,"o":"m -10 757 l -10 829 l 283 829 l 283 757 l -10 757 m 90 0 l 90 660 l 182 660 l 182 0 l 90 0 z "},"į":{"ha":264,"x_min":29,"x_max":179,"o":"m 157 8 q 143 -25 156 7 q 135 -42 140 -31 q 122 -74 126 -61 l 117 -90 q 108 -119 110 -112 q 107 -133 107 -125 q 154 -174 107 -174 q 178 -171 158 -174 l 178 -224 q 135 -229 157 -229 q 58 -206 88 -229 q 29 -147 29 -182 q 56 -60 29 -108 q 111 8 83 -11 l 157 8 m 89 0 l 89 660 l 179 660 l 179 0 l 89 0 m 88 800 l 88 915 l 178 915 l 178 800 l 88 800 z "},"ĩ":{"ha":265,"x_min":-42,"x_max":313,"o":"m 50 814 q 31 800 39 814 q 22 757 22 786 l -40 757 q -42 783 -42 763 q 42 879 -42 879 q 140 850 69 879 q 224 819 207 819 q 249 882 249 819 l 313 882 l 313 860 q 288 784 313 810 q 226 758 263 758 q 129 786 193 758 q 50 814 69 811 m 90 0 l 90 660 l 182 660 l 182 0 l 90 0 z "},"j":{"ha":310,"x_min":-15,"x_max":229,"o":"m 139 800 l 139 915 l 229 915 l 229 800 l 139 800 m 138 660 l 229 660 l 229 -8 q 207 -157 229 -114 q 89 -210 179 -210 q -15 -183 28 -210 l 0 -114 q 76 -135 54 -135 q 138 -58 138 -135 l 138 660 z "},"ĵ":{"ha":342,"x_min":21,"x_max":390,"o":"m 153 965 l 278 965 l 390 757 l 331 757 l 215 899 l 99 757 l 39 757 l 153 965 m 169 660 l 260 660 l 260 -8 q 236 -157 260 -108 q 118 -210 211 -210 q 21 -181 69 -210 l 38 -122 q 107 -137 79 -137 q 169 -56 169 -137 l 169 660 z "},"k":{"ha":649,"x_min":83,"x_max":656,"o":"m 514 660 l 618 660 l 372 419 l 656 0 l 553 0 l 313 364 l 175 238 l 175 0 l 83 0 l 83 951 l 174 951 l 174 331 l 514 660 z "},"ĸ":{"ha":650,"x_min":83,"x_max":656,"o":"m 514 660 l 618 660 l 385 400 l 656 0 l 553 0 l 325 351 l 175 193 l 175 0 l 83 0 l 83 660 l 174 660 l 174 288 l 514 660 z "},"l":{"ha":271,"x_min":86,"x_max":178,"o":"m 86 0 l 86 950 l 178 950 l 178 0 l 86 0 z "},"ĺ":{"ha":271,"x_min":86,"x_max":358,"o":"m 233 1242 l 358 1242 l 161 1033 l 101 1033 l 233 1242 m 86 0 l 86 950 l 178 950 l 178 0 l 86 0 z "},"ľ":{"ha":271,"x_min":86,"x_max":431,"o":"m 303 950 l 431 950 l 431 894 q 412 733 426 783 q 343 644 397 682 l 311 685 q 346 736 331 700 q 363 819 361 772 l 303 826 l 303 950 m 86 0 l 86 950 l 178 950 l 178 0 l 86 0 z "},"ŀ":{"ha":550,"x_min":86,"x_max":464,"o":"m 358 488 l 464 488 l 464 350 l 358 350 l 358 488 m 86 0 l 86 950 l 178 950 l 178 0 l 86 0 z "},"<":{"ha":676,"x_min":32,"x_max":643,"o":"m 643 156 l 643 65 l 32 303 l 32 383 l 643 613 l 643 514 l 136 338 l 643 156 z "},"¬":{"ha":660,"x_min":88,"x_max":572,"o":"m 517 432 l 88 432 l 88 488 l 572 488 l 572 217 l 517 217 l 517 432 z "},"ł":{"ha":272,"x_min":-17,"x_max":289,"o":"m -17 419 l -17 507 l 90 567 l 90 950 l 182 950 l 182 611 l 289 667 l 289 579 l 182 524 l 182 0 l 90 0 l 90 479 l -17 419 z "},"m":{"ha":1071,"x_min":82,"x_max":993,"o":"m 172 0 l 82 0 l 82 660 l 169 660 l 172 554 q 382 674 242 674 q 567 536 528 674 q 658 638 599 603 q 789 674 717 674 q 940 607 889 674 q 990 457 982 553 q 993 371 993 404 l 993 0 l 903 0 l 903 390 q 875 546 903 489 q 772 606 844 606 q 675 573 719 606 q 606 488 631 540 q 582 382 582 433 l 582 0 l 490 0 l 490 390 q 460 552 490 499 q 363 606 431 606 q 263 573 307 606 q 196 486 219 540 q 172 376 172 432 l 172 0 z "},"¯":{"ha":467,"x_min":88,"x_max":381,"o":"m 88 785 l 88 857 l 381 857 l 381 785 l 88 785 z "},"−":{"ha":660,"x_min":88,"x_max":517,"o":"m 88 432 l 88 488 l 517 488 l 517 432 l 88 432 z "},"µ":{"ha":724,"x_min":76,"x_max":625,"o":"m 76 -225 l 76 310 l 78 310 l 78 660 l 172 660 l 172 261 q 206 107 172 158 q 317 56 240 56 q 467 117 411 56 q 528 232 515 168 q 533 281 533 256 l 533 660 l 625 660 l 625 0 l 538 0 l 535 103 q 301 -15 460 -15 q 168 38 214 -15 l 168 -225 l 76 -225 z "},"×":{"ha":472,"x_min":76,"x_max":396,"o":"m 122 131 l 78 175 l 192 289 l 76 404 l 122 450 l 238 335 l 351 449 l 396 404 l 282 290 l 396 176 l 350 131 l 236 244 l 122 131 z "},"n":{"ha":700,"x_min":82,"x_max":621,"o":"m 82 0 l 82 660 l 171 660 l 171 639 l 171 599 l 171 553 l 171 535 q 268 642 197 606 q 401 674 335 674 q 524 644 476 674 q 590 574 572 614 q 618 478 611 525 q 621 428 621 439 l 621 376 l 621 0 l 531 0 l 531 388 q 514 519 531 465 q 447 589 496 571 q 388 599 424 599 q 240 547 292 599 q 179 411 196 503 q 172 322 172 367 l 172 0 l 82 0 z "},"ń":{"ha":700,"x_min":82,"x_max":621,"o":"m 453 965 l 578 965 l 381 757 l 321 757 l 453 965 m 82 0 l 82 660 l 171 660 l 171 639 l 171 599 l 171 553 l 171 535 q 268 642 197 606 q 401 674 335 674 q 524 644 476 674 q 590 574 572 614 q 618 478 611 525 q 621 428 621 439 l 621 376 l 621 0 l 531 0 l 531 388 q 514 519 531 465 q 447 589 496 571 q 388 599 424 599 q 240 547 292 599 q 179 411 196 503 q 172 322 172 367 l 172 0 l 82 0 z "},"ň":{"ha":700,"x_min":82,"x_max":621,"o":"m 414 757 l 289 757 l 196 965 l 254 965 l 353 817 l 449 965 l 508 965 l 414 757 m 82 0 l 82 660 l 171 660 l 171 639 l 171 599 l 171 553 l 171 535 q 268 642 197 606 q 401 674 335 674 q 524 644 476 674 q 590 574 572 614 q 618 478 611 525 q 621 428 621 439 l 621 376 l 621 0 l 531 0 l 531 388 q 514 519 531 465 q 447 589 496 571 q 388 599 424 599 q 240 547 292 599 q 179 411 196 503 q 172 322 172 367 l 172 0 l 82 0 z "},"ñ":{"ha":700,"x_min":81,"x_max":621,"o":"m 82 0 l 82 660 l 171 660 l 171 639 l 171 599 l 171 553 l 171 535 q 268 642 197 606 q 401 674 335 674 q 524 644 476 674 q 590 574 572 614 q 618 478 611 525 q 621 428 621 439 l 621 376 l 621 0 l 531 0 l 531 388 q 514 519 531 465 q 447 589 496 571 q 388 599 424 599 q 240 547 292 599 q 179 411 196 503 q 172 322 172 367 l 172 0 l 82 0 m 172 831 q 153 817 161 831 q 144 774 144 803 l 82 774 q 81 800 81 779 q 164 896 81 896 q 263 867 192 896 q 346 836 329 836 q 371 899 371 836 l 435 899 l 435 876 q 410 801 435 826 q 349 775 385 775 q 251 803 315 775 q 172 831 192 828 z "},"#":{"ha":786,"x_min":33,"x_max":757,"o":"m 299 581 l 265 418 l 475 418 l 508 581 l 299 581 m 179 0 l 92 0 l 165 356 l 33 356 l 51 418 l 176 418 l 210 581 l 78 581 l 96 644 l 224 644 l 283 942 l 374 943 l 311 644 l 521 644 l 581 942 l 671 943 l 608 644 l 757 644 l 739 581 l 596 581 l 563 418 l 713 418 l 694 356 l 550 356 l 476 0 l 390 0 l 461 356 l 251 356 l 179 0 z "},"o":{"ha":686,"x_min":60,"x_max":626,"o":"m 192 518 q 153 331 153 440 q 178 175 153 242 q 267 69 203 99 q 343 53 300 53 q 475 111 428 53 q 528 249 517 163 q 533 331 533 282 q 508 485 533 415 q 419 590 481 561 q 343 606 382 606 q 192 518 235 606 m 549 584 q 588 539 549 584 q 626 331 626 494 q 551 76 626 167 q 343 -15 475 -15 q 135 75 211 -15 q 60 329 60 165 q 136 584 60 494 q 343 674 213 674 q 549 584 472 674 z "},"ó":{"ha":686,"x_min":60,"x_max":626,"o":"m 444 965 l 569 965 l 372 757 l 313 757 l 444 965 m 192 518 q 153 331 153 440 q 178 175 153 242 q 267 69 203 99 q 343 53 300 53 q 475 111 428 53 q 528 249 517 163 q 533 331 533 282 q 508 485 533 415 q 419 590 481 561 q 343 606 382 606 q 192 518 235 606 m 549 584 q 588 539 549 584 q 626 331 626 494 q 551 76 626 167 q 343 -15 475 -15 q 135 75 211 -15 q 60 329 60 165 q 136 584 60 494 q 343 674 213 674 q 549 584 472 674 z "},"ŏ":{"ha":686,"x_min":60,"x_max":626,"o":"m 239 921 q 266 849 239 874 q 342 824 293 824 q 417 849 390 824 q 444 921 444 874 l 519 921 q 467 801 518 846 q 343 757 417 757 q 217 801 268 757 q 165 921 167 846 l 239 921 m 192 518 q 153 331 153 440 q 178 175 153 242 q 267 69 203 99 q 343 53 300 53 q 475 111 428 53 q 528 249 517 163 q 533 331 533 282 q 508 485 533 415 q 419 590 481 561 q 343 606 382 606 q 192 518 235 606 m 549 584 q 588 539 549 584 q 626 331 626 494 q 551 76 626 167 q 343 -15 475 -15 q 135 75 211 -15 q 60 329 60 165 q 136 584 60 494 q 343 674 213 674 q 549 584 472 674 z "},"ô":{"ha":686,"x_min":60,"x_max":626,"o":"m 281 965 l 406 965 l 518 757 l 458 757 l 343 899 l 226 757 l 167 757 l 281 965 m 192 518 q 153 331 153 440 q 178 175 153 242 q 267 69 203 99 q 343 53 300 53 q 475 111 428 53 q 528 249 517 163 q 533 331 533 282 q 508 485 533 415 q 419 590 481 561 q 343 606 382 606 q 192 518 235 606 m 549 584 q 588 539 549 584 q 626 331 626 494 q 551 76 626 167 q 343 -15 475 -15 q 135 75 211 -15 q 60 329 60 165 q 136 584 60 494 q 343 674 213 674 q 549 584 472 674 z "},"ö":{"ha":686,"x_min":60,"x_max":626,"o":"m 168 869 l 275 869 l 275 757 l 168 757 l 168 869 m 518 869 l 518 757 l 411 757 l 411 869 l 518 869 m 192 518 q 153 331 153 440 q 178 175 153 242 q 267 69 203 99 q 343 53 300 53 q 475 111 428 53 q 528 249 517 163 q 533 331 533 282 q 508 485 533 415 q 419 590 481 561 q 343 606 382 606 q 192 518 235 606 m 549 584 q 588 539 549 584 q 626 331 626 494 q 551 76 626 167 q 343 -15 475 -15 q 135 75 211 -15 q 60 329 60 165 q 136 584 60 494 q 343 674 213 674 q 549 584 472 674 z "},"œ":{"ha":1210,"x_min":100,"x_max":1113,"o":"m 1086 519 q 1113 358 1113 453 q 1111 343 1113 353 q 1110 322 1110 333 l 661 322 q 688 169 661 239 q 779 67 713 97 q 857 51 814 51 q 1036 204 981 51 l 1097 178 q 1008 37 1072 88 q 857 -15 943 -14 q 617 128 688 -15 q 382 -15 547 -15 q 174 75 249 -15 q 100 331 100 165 q 176 584 100 494 q 382 674 251 674 q 618 528 547 674 q 850 674 688 674 q 997 632 935 674 q 1086 519 1058 590 m 663 382 l 1024 382 q 978 548 1022 489 q 847 607 935 607 q 716 546 764 607 q 663 382 668 485 m 532 518 q 382 606 488 606 q 250 547 297 606 q 199 410 208 497 q 193 331 193 376 q 231 140 193 215 q 382 51 272 51 q 532 140 490 51 q 569 329 569 217 q 532 518 569 439 z "},"˛":{"ha":299,"x_min":75,"x_max":224,"o":"m 203 0 q 189 -33 201 -1 q 181 -50 186 -39 q 168 -82 172 -69 l 163 -99 q 154 -128 156 -121 q 153 -142 153 -133 q 200 -182 153 -182 q 224 -179 204 -182 l 224 -232 q 181 -237 203 -237 q 104 -214 133 -237 q 75 -156 75 -190 q 102 -68 75 -117 q 157 0 129 -19 l 203 0 z "},"ò":{"ha":686,"x_min":60,"x_max":626,"o":"m 117 965 l 242 965 l 374 758 l 313 757 l 117 965 m 192 518 q 153 331 153 440 q 178 175 153 242 q 267 69 203 99 q 343 53 300 53 q 475 111 428 53 q 528 249 517 163 q 533 331 533 282 q 508 485 533 415 q 419 590 481 561 q 343 606 382 606 q 192 518 235 606 m 549 584 q 588 539 549 584 q 626 331 626 494 q 551 76 626 167 q 343 -15 475 -15 q 135 75 211 -15 q 60 329 60 165 q 136 584 60 494 q 343 674 213 674 q 549 584 472 674 z "},"ő":{"ha":686,"x_min":60,"x_max":626,"o":"m 493 965 l 618 965 l 454 757 l 406 757 l 493 965 m 301 965 l 424 965 l 276 757 l 233 757 l 301 965 m 192 518 q 153 331 153 440 q 178 175 153 242 q 267 69 203 99 q 343 53 300 53 q 475 111 428 53 q 528 249 517 163 q 533 331 533 282 q 508 485 533 415 q 419 590 481 561 q 343 606 382 606 q 192 518 235 606 m 549 584 q 588 539 549 584 q 626 331 626 494 q 551 76 626 167 q 343 -15 475 -15 q 135 75 211 -15 q 60 329 60 165 q 136 584 60 494 q 343 674 213 674 q 549 584 472 674 z "},"ō":{"ha":686,"x_min":60,"x_max":626,"o":"m 196 757 l 196 829 l 489 829 l 489 757 l 196 757 m 192 518 q 153 331 153 440 q 178 175 153 242 q 267 69 203 99 q 343 53 300 53 q 475 111 428 53 q 528 249 517 163 q 533 331 533 282 q 508 485 533 415 q 419 590 481 561 q 343 606 382 606 q 192 518 235 606 m 549 584 q 588 539 549 584 q 626 331 626 494 q 551 76 626 167 q 343 -15 475 -15 q 135 75 211 -15 q 60 329 60 165 q 136 584 60 494 q 343 674 213 674 q 549 584 472 674 z "},"½":{"ha":878,"x_min":6,"x_max":851,"o":"m 488 0 q 550 125 488 65 q 663 222 583 157 q 722 314 722 272 l 722 315 q 699 376 722 354 q 638 397 675 397 q 569 376 599 397 q 532 317 540 354 l 519 324 q 474 346 488 343 q 538 430 493 400 q 638 460 582 460 q 747 422 701 460 q 792 321 792 383 q 735 193 792 247 q 681 150 699 163 q 581 51 607 96 l 793 51 l 793 0 l 488 0 m 118 842 l 106 900 l 200 943 l 268 943 l 268 494 l 194 494 l 194 881 l 118 842 m 6 33 l 801 954 l 851 911 l 56 -10 l 6 33 z "},"¼":{"ha":904,"x_min":43,"x_max":889,"o":"m 682 378 l 529 150 l 682 150 l 682 378 m 456 142 l 661 446 l 756 446 l 756 150 l 821 150 l 821 97 l 756 97 l 756 0 l 682 0 l 682 97 l 456 97 l 456 142 m 118 842 l 106 900 l 200 943 l 268 943 l 268 494 l 194 494 l 194 881 l 118 842 m 840 954 l 889 911 l 93 -10 l 43 33 l 840 954 z "},"¹":{"ha":353,"x_min":81,"x_max":242,"o":"m 169 881 l 93 842 l 81 900 l 175 943 l 242 943 l 242 494 l 169 494 l 169 881 z "},"ª":{"ha":610,"x_min":97,"x_max":513,"o":"m 435 63 q 253 -14 353 -14 q 142 25 186 -14 q 97 129 97 64 q 117 207 97 172 q 165 257 129 232 q 240 289 188 274 q 332 310 263 296 q 353 314 336 311 q 382 319 371 317 l 433 328 l 433 369 q 402 464 433 432 q 318 496 371 496 q 168 429 235 496 q 118 475 168 431 q 208 537 150 513 q 317 561 267 561 q 463 508 413 561 q 513 351 513 456 l 513 0 l 444 0 l 435 63 m 433 271 l 383 261 q 224 221 276 244 q 172 147 172 196 q 254 43 172 43 q 433 124 344 43 l 433 271 z "},"º":{"ha":644,"x_min":79,"x_max":565,"o":"m 444 121 q 482 275 482 189 q 414 465 482 403 q 322 497 375 497 q 201 429 240 497 q 164 276 164 363 q 201 121 164 186 q 324 51 242 51 q 444 121 407 51 m 324 561 q 499 486 432 561 q 565 276 565 411 q 499 63 565 140 q 322 -14 433 -14 q 145 63 211 -14 q 79 275 79 139 q 146 485 79 410 q 324 561 213 561 z "},"ø":{"ha":686,"x_min":60,"x_max":626,"o":"m 343 -15 q 226 7 276 -15 l 164 -126 l 117 -103 l 181 32 q 60 329 60 119 q 136 584 60 494 q 343 674 213 674 q 471 646 413 674 l 538 783 l 583 758 l 515 617 q 626 331 626 526 q 551 76 626 167 q 343 -15 475 -15 m 475 111 q 528 249 517 163 q 533 331 533 282 q 481 540 533 467 l 257 72 q 343 53 296 53 q 475 111 428 53 m 192 518 q 153 331 153 440 q 215 106 153 175 l 439 578 q 343 606 399 606 q 192 518 235 606 z "},"õ":{"ha":686,"x_min":60,"x_max":626,"o":"m 192 518 q 153 331 153 440 q 178 175 153 242 q 267 69 203 99 q 343 53 300 53 q 475 111 428 53 q 528 249 517 163 q 533 331 533 282 q 508 485 533 415 q 419 590 481 561 q 343 606 382 606 q 192 518 235 606 m 549 584 q 588 539 549 584 q 626 331 626 494 q 551 76 626 167 q 343 -15 475 -15 q 135 75 211 -15 q 60 329 60 165 q 136 584 60 494 q 343 674 213 674 q 549 584 472 674 m 172 831 q 153 817 161 831 q 144 774 144 803 l 82 774 q 81 800 81 779 q 164 896 81 896 q 263 867 192 896 q 346 836 329 836 q 371 899 371 836 l 435 899 l 435 876 q 410 801 435 826 q 349 775 385 775 q 251 803 315 775 q 172 831 192 828 z "},"p":{"ha":683,"x_min":85,"x_max":624,"o":"m 169 553 q 369 674 233 674 q 564 575 499 674 q 624 335 624 482 q 514 33 624 124 q 381 -15 460 -11 q 256 14 303 -18 q 175 99 204 43 l 175 13 l 175 -225 l 85 -225 l 85 660 l 164 660 l 169 553 m 358 606 q 225 551 269 606 q 178 418 185 504 q 174 333 174 383 q 360 53 174 53 q 485 128 439 53 q 532 335 532 203 q 485 531 532 457 q 358 606 438 606 z "},"¶":{"ha":669,"x_min":56,"x_max":640,"o":"m 300 0 l 300 514 q 126 576 196 514 q 56 731 56 638 q 97 856 56 804 q 260 932 142 910 q 404 943 324 943 l 640 943 l 640 869 l 531 869 l 531 0 l 450 0 l 450 514 l 383 514 l 383 0 l 300 0 z "},"(":{"ha":388,"x_min":22,"x_max":360,"o":"m 360 956 q 118 453 118 886 q 360 -47 118 17 l 336 -117 q 104 64 186 -79 q 22 453 22 207 q 105 843 22 699 q 336 1022 188 988 l 360 956 z "},")":{"ha":388,"x_min":28,"x_max":365,"o":"m 28 -49 q 269 454 269 19 q 28 954 269 889 l 51 1022 q 283 843 200 988 q 365 453 365 699 q 283 63 365 207 q 51 -117 200 -82 l 28 -49 z "},"%":{"ha":1081,"x_min":32,"x_max":1049,"o":"m 726 224 q 785 85 726 133 q 854 60 814 60 q 944 108 910 60 q 978 224 978 156 q 922 361 978 315 q 854 385 892 385 q 761 338 796 385 q 726 224 726 292 m 1028 331 q 1049 224 1049 278 q 961 33 1049 94 q 854 0 915 0 q 747 32 793 0 q 678 115 700 64 q 657 222 657 164 q 706 376 657 308 q 854 446 757 446 q 960 414 914 446 q 1028 331 1007 382 m 104 724 q 138 607 104 654 q 229 560 172 560 q 320 607 286 560 q 354 724 354 654 q 299 861 354 814 q 229 885 268 885 q 138 838 172 885 q 104 724 104 792 m 404 829 q 425 722 425 778 q 338 532 425 597 q 229 499 292 499 q 86 563 140 499 q 32 721 32 628 q 122 913 32 849 q 229 944 169 944 q 336 913 290 944 q 404 829 382 881 m 122 33 l 918 954 l 968 911 l 172 -10 l 122 33 z "},".":{"ha":279,"x_min":88,"x_max":193,"o":"m 88 139 l 193 139 l 193 0 l 88 0 l 88 139 z "},"·":{"ha":279,"x_min":88,"x_max":193,"o":"m 88 488 l 193 488 l 193 350 l 88 350 l 88 488 z "},"+":{"ha":554,"x_min":46,"x_max":501,"o":"m 46 435 l 46 497 l 243 497 l 243 708 l 307 708 l 307 497 l 501 497 l 501 435 l 307 435 l 307 225 l 243 225 l 243 435 l 46 435 z "},"±":{"ha":554,"x_min":83,"x_max":469,"o":"m 83 435 l 83 497 l 244 497 l 244 660 l 310 660 l 310 497 l 469 497 l 469 435 l 310 435 l 310 274 l 244 274 l 244 435 l 83 435 m 83 160 l 83 215 l 469 215 l 469 160 l 83 160 z "},"q":{"ha":681,"x_min":60,"x_max":599,"o":"m 153 336 q 197 128 153 203 q 321 53 242 53 q 508 324 508 53 q 488 488 508 419 q 401 590 463 561 q 324 606 367 606 q 199 531 246 606 q 153 336 153 457 m 514 556 l 522 660 l 599 660 l 599 -225 l 507 -225 l 507 8 l 507 100 q 308 -15 450 -15 q 170 31 228 -15 q 86 156 113 76 q 60 333 60 231 q 171 626 60 538 q 310 674 226 674 q 514 556 463 674 z "},"?":{"ha":650,"x_min":22,"x_max":606,"o":"m 225 139 l 331 139 l 331 0 l 225 0 l 225 139 m 471 829 q 314 889 425 889 q 86 758 171 889 l 22 804 q 321 961 121 961 q 542 879 467 961 q 606 704 606 806 q 547 526 606 608 q 488 447 514 479 q 331 231 382 317 l 236 231 q 397 468 313 372 q 499 619 479 563 q 513 701 513 656 q 471 829 513 772 z "},"¿":{"ha":750,"x_min":83,"x_max":667,"o":"m 464 807 l 358 807 l 358 946 l 464 946 l 464 807 m 218 117 q 375 57 264 57 q 603 188 518 57 l 667 142 q 368 -15 568 -15 q 147 67 222 -15 q 83 242 83 140 q 142 419 83 339 q 201 499 175 467 q 358 715 307 629 l 453 715 q 292 478 376 574 q 190 326 210 383 q 176 244 176 290 q 218 117 176 172 z "},"\"":{"ha":329,"x_min":35,"x_max":294,"o":"m 35 943 l 133 943 l 100 644 l 67 644 l 35 943 m 294 943 l 261 644 l 228 644 l 196 943 l 294 943 z "},"„":{"ha":479,"x_min":71,"x_max":406,"o":"m 82 60 l 206 60 q 203 -23 204 0 q 196 -89 201 -46 q 181 -153 190 -132 q 151 -200 171 -174 q 103 -247 132 -226 l 71 -206 q 105 -149 90 -187 q 121 -64 119 -111 l 119 -64 q 115 -62 117 -64 q 113 -61 114 -61 q 110 -60 111 -61 q 101 -58 104 -60 q 98 -58 100 -58 q 94 -56 96 -57 q 82 -53 90 -56 l 82 60 m 279 60 l 406 60 q 401 -42 404 -11 q 389 -119 399 -74 q 358 -192 379 -164 q 301 -247 338 -221 l 269 -206 q 304 -149 289 -187 q 321 -64 319 -111 l 279 -53 l 279 60 z "},"“":{"ha":407,"x_min":19,"x_max":342,"o":"m 138 908 q 86 771 88 861 l 147 763 l 147 642 l 19 642 l 19 699 q 25 811 19 767 q 65 908 32 863 q 107 949 83 932 l 138 908 m 328 908 q 275 771 276 865 l 342 763 l 342 642 l 213 642 l 213 699 q 215 765 213 740 q 217 794 215 781 q 221 825 218 814 q 224 837 221 828 q 228 853 226 846 q 238 881 229 868 q 251 904 246 894 q 296 949 264 925 l 328 908 z "},"”":{"ha":407,"x_min":65,"x_max":386,"o":"m 65 832 l 65 943 l 194 943 l 194 894 q 193 844 193 871 q 182 751 193 783 q 140 672 163 696 q 103 639 124 653 l 71 679 q 106 735 90 697 q 122 821 121 774 l 108 824 q 93 826 103 825 q 79 829 83 828 l 65 832 m 258 832 l 258 943 l 386 943 l 386 901 q 385 857 385 881 q 378 775 385 807 q 349 700 364 725 q 292 639 326 664 l 258 679 q 293 733 278 694 q 310 821 308 772 l 258 832 z "},"‘":{"ha":213,"x_min":19,"x_max":147,"o":"m 138 922 q 97 842 106 868 q 88 774 88 817 l 147 765 l 147 639 l 19 639 l 19 701 l 19 742 q 25 818 19 794 q 47 888 39 874 q 93 946 69 928 l 138 922 z "},"’":{"ha":213,"x_min":65,"x_max":193,"o":"m 65 832 l 65 943 l 193 943 l 193 894 q 190 799 193 838 q 165 711 188 764 q 103 639 149 674 l 71 679 q 106 735 90 697 q 122 821 121 774 l 108 824 q 93 826 103 825 q 79 829 83 828 l 65 832 z "},"‚":{"ha":281,"x_min":71,"x_max":206,"o":"m 82 60 l 206 60 q 203 -23 204 0 q 196 -89 201 -46 q 181 -153 190 -132 q 151 -200 171 -174 q 103 -247 132 -226 l 71 -206 q 105 -149 90 -187 q 121 -64 119 -111 l 82 -53 l 82 60 z "},"'":{"ha":181,"x_min":44,"x_max":144,"o":"m 111 644 l 79 644 l 44 943 l 144 943 l 111 644 z "},"r":{"ha":376,"x_min":79,"x_max":364,"o":"m 168 660 l 168 536 q 219 608 186 578 q 290 650 253 639 q 364 660 324 660 l 364 576 q 213 504 257 576 q 171 343 171 439 l 171 0 l 79 0 l 79 660 l 168 660 z "},"ŕ":{"ha":376,"x_min":79,"x_max":449,"o":"m 324 965 l 449 965 l 251 757 l 192 757 l 324 965 m 168 660 l 168 536 q 219 608 186 578 q 290 650 253 639 q 364 660 324 660 l 364 576 q 213 504 257 576 q 171 343 171 439 l 171 0 l 79 0 l 79 660 l 168 660 z "},"ř":{"ha":376,"x_min":65,"x_max":378,"o":"m 283 757 l 158 757 l 65 965 l 124 965 l 222 817 l 318 965 l 378 965 l 283 757 m 168 660 l 168 536 q 219 608 186 578 q 290 650 253 639 q 364 660 324 660 l 364 576 q 213 504 257 576 q 171 343 171 439 l 171 0 l 79 0 l 79 660 l 168 660 z "},"®":{"ha":1096,"x_min":79,"x_max":1017,"o":"m 547 65 q 764 123 664 65 q 924 282 864 181 q 982 499 982 382 q 924 715 982 614 q 764 875 865 815 q 547 933 664 933 q 330 874 431 933 q 172 715 229 815 q 114 499 114 615 q 172 281 114 382 q 331 122 229 181 q 547 65 432 65 m 551 804 q 760 656 760 804 q 644 511 760 547 q 738 301 651 485 l 764 244 l 708 244 l 590 501 l 426 501 l 426 246 l 372 246 l 372 804 l 551 804 m 428 763 l 428 544 l 547 544 q 635 556 601 544 q 694 606 679 571 q 703 654 703 625 q 669 736 703 708 q 590 761 643 758 q 546 763 578 763 l 428 763 m 782 94 q 547 31 675 31 q 314 94 422 31 q 143 265 206 157 q 79 499 79 371 q 142 733 79 624 q 314 906 206 842 q 547 968 419 968 q 781 905 672 968 q 954 733 890 842 q 1017 499 1017 625 q 953 265 1017 374 q 782 94 890 157 z "},"˚":{"ha":468,"x_min":92,"x_max":382,"o":"m 235 801 q 292 826 271 801 q 314 886 314 851 q 292 946 314 921 q 235 971 271 971 q 177 946 199 971 q 156 886 156 921 q 175 826 156 854 q 235 801 197 801 m 342 985 q 362 966 342 985 q 382 888 382 946 q 342 788 382 829 q 235 747 301 747 q 131 788 169 747 q 92 886 92 828 q 131 985 92 944 q 235 1025 169 1025 q 342 985 303 1025 z "},"s":{"ha":599,"x_min":43,"x_max":547,"o":"m 479 510 q 314 604 440 604 q 151 489 151 604 q 183 421 151 447 q 268 386 208 397 q 324 374 290 379 q 493 309 439 353 q 547 185 547 265 q 286 -15 547 -15 q 140 18 203 -15 q 43 146 68 57 l 113 172 q 178 82 136 110 q 296 54 221 54 q 464 167 464 54 q 425 254 464 228 q 263 304 386 279 q 147 344 200 318 q 76 424 99 367 q 65 490 65 454 q 132 624 65 575 q 308 674 199 674 q 453 644 399 674 q 542 544 508 614 l 479 510 z "},"ś":{"ha":599,"x_min":43,"x_max":547,"o":"m 411 965 l 536 965 l 339 757 l 279 757 l 411 965 m 479 510 q 314 604 440 604 q 151 489 151 604 q 183 421 151 447 q 268 386 208 397 q 324 374 290 379 q 493 309 439 353 q 547 185 547 265 q 286 -15 547 -15 q 140 18 203 -15 q 43 146 68 57 l 113 172 q 178 82 136 110 q 296 54 221 54 q 464 167 464 54 q 425 254 464 228 q 263 304 386 279 q 147 344 200 318 q 76 424 99 367 q 65 490 65 454 q 132 624 65 575 q 308 674 199 674 q 453 644 399 674 q 542 544 508 614 l 479 510 z "},"š":{"ha":599,"x_min":43,"x_max":547,"o":"m 369 757 l 244 757 l 151 965 l 210 965 l 308 817 l 404 965 l 464 965 l 369 757 m 479 510 q 314 604 440 604 q 151 489 151 604 q 183 421 151 447 q 268 386 208 397 q 324 374 290 379 q 493 309 439 353 q 547 185 547 265 q 286 -15 547 -15 q 140 18 203 -15 q 43 146 68 57 l 113 172 q 178 82 136 110 q 296 54 221 54 q 464 167 464 54 q 425 254 464 228 q 263 304 386 279 q 147 344 200 318 q 76 424 99 367 q 65 490 65 454 q 132 624 65 575 q 308 674 199 674 q 453 644 399 674 q 542 544 508 614 l 479 510 z "},"ş":{"ha":599,"x_min":43,"x_max":547,"o":"m 221 -112 l 221 -7 l 350 -7 l 350 -121 q 328 -214 350 -176 q 263 -251 306 -251 q 236 -246 247 -251 l 236 -203 q 260 -208 253 -208 q 281 -189 274 -208 q 286 -112 286 -172 l 221 -112 m 479 510 q 314 604 440 604 q 151 489 151 604 q 183 421 151 447 q 268 386 208 397 q 324 374 290 379 q 493 309 439 353 q 547 185 547 265 q 286 -15 547 -15 q 140 18 203 -15 q 43 146 68 57 l 113 172 q 178 82 136 110 q 296 54 221 54 q 464 167 464 54 q 425 254 464 228 q 263 304 386 279 q 147 344 200 318 q 76 424 99 367 q 65 490 65 454 q 132 624 65 575 q 308 674 199 674 q 453 644 399 674 q 542 544 508 614 l 479 510 z "},"ŝ":{"ha":599,"x_min":43,"x_max":547,"o":"m 247 965 l 372 965 l 485 757 l 425 757 l 310 899 l 193 757 l 133 757 l 247 965 m 479 510 q 314 604 440 604 q 151 489 151 604 q 183 421 151 447 q 268 386 208 397 q 324 374 290 379 q 493 309 439 353 q 547 185 547 265 q 286 -15 547 -15 q 140 18 203 -15 q 43 146 68 57 l 113 172 q 178 82 136 110 q 296 54 221 54 q 464 167 464 54 q 425 254 464 228 q 263 304 386 279 q 147 344 200 318 q 76 424 99 367 q 65 490 65 454 q 132 624 65 575 q 308 674 199 674 q 453 644 399 674 q 542 544 508 614 l 479 510 z "},"§":{"ha":647,"x_min":82,"x_max":578,"o":"m 214 6 q 108 96 143 36 q 82 171 88 132 l 147 194 q 349 47 190 47 q 456 75 417 47 q 496 153 496 103 l 496 157 q 493 190 494 179 q 478 218 492 201 q 440 247 465 235 q 293 304 408 263 q 153 378 194 339 q 113 482 113 418 q 181 633 113 549 q 108 769 108 676 q 169 905 108 857 q 339 953 231 953 q 481 923 428 953 q 569 824 535 893 l 511 786 q 445 862 482 840 q 344 883 408 883 q 193 767 196 883 l 193 764 q 196 746 193 754 q 226 699 203 714 q 329 653 249 685 q 360 640 349 644 q 519 558 475 597 q 563 456 563 518 q 504 304 563 396 q 578 164 578 251 q 344 -21 578 -21 q 214 6 274 -21 m 279 393 q 410 346 338 364 q 436 338 428 339 q 476 453 476 407 q 464 496 476 478 q 428 526 451 514 q 371 556 399 543 l 336 569 q 296 585 333 569 q 251 600 286 589 q 194 471 194 524 q 279 393 194 436 z "},";":{"ha":307,"x_min":96,"x_max":225,"o":"m 214 660 l 214 521 l 103 521 l 103 660 l 214 660 m 96 142 l 225 142 l 225 86 q 206 -76 221 -25 q 138 -164 192 -126 l 106 -124 q 140 -72 125 -108 q 157 11 156 -36 l 96 18 l 96 142 z "},"/":{"ha":382,"x_min":28,"x_max":371,"o":"m 97 -22 l 28 -6 l 296 989 l 371 971 l 97 -22 z "}," ":{"ha":290,"x_min":0,"x_max":0,"o":""},"£":{"ha":751,"x_min":42,"x_max":647,"o":"m 149 -19 l 100 39 q 153 180 138 114 q 168 338 168 246 q 156 447 168 358 l 42 447 l 42 514 l 150 514 q 139 636 139 592 q 415 960 139 960 q 576 906 521 960 q 647 742 631 853 l 569 731 q 506 867 551 838 q 419 890 468 890 q 274 832 321 890 q 228 649 228 774 q 238 556 228 624 q 242 514 239 525 l 497 514 l 497 447 l 246 447 q 254 324 254 339 q 235 151 254 206 q 197 61 214 92 q 476 108 328 108 q 647 83 553 108 l 631 0 q 623 1 629 0 q 609 4 617 3 q 594 7 601 6 q 557 15 569 14 q 548 17 554 15 q 535 19 542 18 q 524 21 529 19 q 436 28 488 28 q 149 -19 339 28 z "},"t":{"ha":414,"x_min":25,"x_max":399,"o":"m 399 21 q 285 -11 350 -11 q 160 41 199 -11 q 122 210 122 93 l 122 594 l 25 594 l 25 660 l 129 660 l 129 869 l 215 893 l 215 660 l 358 660 l 358 594 l 215 594 l 215 168 q 304 58 215 58 q 382 81 333 58 l 399 21 z "},"ť":{"ha":414,"x_min":25,"x_max":468,"o":"m 340 893 l 468 893 l 468 838 q 449 676 464 726 q 381 588 435 625 l 349 628 q 383 679 368 643 q 400 763 399 715 l 340 769 l 340 893 m 399 21 q 285 -11 350 -11 q 160 41 199 -11 q 122 210 122 93 l 122 594 l 25 594 l 25 660 l 129 660 l 129 869 l 215 893 l 215 660 l 358 660 l 358 594 l 215 594 l 215 168 q 304 58 215 58 q 382 81 333 58 l 399 21 z "},"þ":{"ha":682,"x_min":85,"x_max":622,"o":"m 360 607 q 229 532 283 607 q 175 333 175 457 q 360 53 175 53 q 484 127 439 53 q 529 335 529 201 q 481 535 529 463 q 360 607 433 607 m 175 943 l 175 564 q 369 674 239 674 q 564 575 499 674 q 622 335 622 481 q 564 89 622 185 q 374 -15 500 -12 q 175 99 235 -15 l 175 13 l 175 -244 l 85 -253 l 85 943 l 175 943 z "},"¾":{"ha":929,"x_min":71,"x_max":917,"o":"m 296 738 q 380 678 356 719 q 395 593 404 636 q 357 522 386 550 q 238 481 314 481 q 140 508 183 481 q 83 586 96 536 l 135 613 q 243 538 158 538 q 301 561 276 538 q 326 614 326 585 q 204 706 326 706 l 204 761 q 304 836 304 763 q 235 900 304 900 q 144 842 169 900 l 96 875 q 149 932 108 910 q 233 954 190 954 q 336 922 297 954 q 375 843 375 890 q 353 780 375 808 q 296 738 332 751 m 706 150 l 706 378 l 553 150 l 706 150 m 481 97 l 481 142 l 686 446 l 779 446 l 779 150 l 844 150 l 844 97 l 779 97 l 779 0 l 706 0 l 706 97 l 481 97 m 71 33 l 868 954 l 917 911 l 121 -10 l 71 33 z "},"³":{"ha":497,"x_min":83,"x_max":404,"o":"m 375 843 q 353 780 375 808 q 296 738 332 751 q 380 678 356 719 q 395 593 404 636 q 357 522 386 550 q 238 481 314 481 q 140 508 183 481 q 83 586 96 536 l 135 613 q 243 538 158 538 q 301 561 276 538 q 326 614 326 585 q 204 706 326 706 l 204 761 q 304 836 304 763 q 235 900 304 900 q 144 842 169 900 l 96 875 q 149 932 108 910 q 233 954 190 954 q 336 922 297 954 q 375 843 375 890 z "},"˜":{"ha":514,"x_min":81,"x_max":435,"o":"m 172 831 q 153 817 161 831 q 144 774 144 803 l 82 774 q 81 800 81 779 q 164 896 81 896 q 263 867 192 896 q 346 836 329 836 q 371 899 371 836 l 435 899 l 435 876 q 410 801 435 826 q 349 775 385 775 q 251 803 315 775 q 172 831 192 828 z "},"அ":{"ha":1344,"x_min":83,"x_max":1219,"o":"m 455 397 q 466 384 455 397 q 508 372 476 372 q 561 396 540 372 q 582 456 582 419 q 561 523 582 496 q 510 550 540 550 q 457 527 478 550 q 433 468 436 504 l 433 460 q 455 397 433 421 m 858 147 l 260 147 q 194 128 219 147 q 169 78 169 108 q 253 -15 169 21 q 463 -51 336 -51 q 709 0 607 -51 q 858 147 811 51 m 883 214 q 896 319 896 261 q 825 548 896 457 q 632 639 754 639 q 514 606 565 639 q 617 560 576 603 q 657 454 657 518 q 614 349 657 390 q 506 308 571 308 q 398 351 440 308 q 356 461 356 394 q 434 638 356 567 q 632 710 513 710 q 886 601 790 710 q 982 318 982 492 q 971 214 982 265 l 1132 214 l 1133 696 l 1219 696 l 1218 -154 l 1132 -154 l 1132 147 l 951 147 q 774 -52 900 18 q 465 -122 647 -122 q 191 -67 299 -122 q 83 79 83 -11 q 133 176 83 139 q 260 214 182 214 l 883 214 z "},"ஆ":{"ha":1553,"x_min":83,"x_max":1525,"o":"m 455 397 q 466 384 455 397 q 508 372 476 372 q 561 396 540 372 q 582 456 582 419 q 561 523 582 496 q 510 550 540 550 q 457 527 478 550 q 433 468 436 504 l 433 460 q 455 397 433 421 m 775 -265 q 815 -170 775 -208 q 921 -132 856 -132 q 1023 -168 985 -132 q 1061 -264 1061 -204 l 975 -264 q 960 -220 975 -237 q 921 -203 944 -203 q 878 -222 894 -203 q 863 -267 863 -242 q 927 -344 863 -317 q 1090 -371 992 -371 q 1344 -299 1250 -371 q 1439 -107 1439 -226 q 1391 32 1439 -21 q 1265 85 1343 85 l 1218 85 l 1218 -154 l 1132 -154 l 1132 147 l 951 147 q 774 -52 900 18 q 465 -122 647 -122 q 191 -67 299 -122 q 83 79 83 -11 q 133 176 83 139 q 260 214 182 214 l 883 214 q 896 319 896 261 q 825 548 896 457 q 632 639 754 639 q 514 606 565 639 q 617 560 576 603 q 657 454 657 518 q 614 349 657 390 q 506 308 571 308 q 398 351 440 308 q 356 461 356 394 q 434 638 356 567 q 632 710 513 710 q 886 601 790 710 q 982 318 982 492 q 971 214 982 265 l 1132 214 l 1133 696 l 1219 696 l 1218 153 l 1265 153 q 1453 81 1382 153 q 1525 -108 1525 10 q 1407 -350 1525 -258 q 1090 -442 1289 -442 q 862 -394 949 -442 q 775 -265 775 -347 m 858 147 l 260 147 q 194 128 219 147 q 169 78 169 108 q 253 -15 169 21 q 463 -51 336 -51 q 709 0 607 -51 q 858 147 811 51 z "},"ஐ":{"ha":1031,"x_min":90,"x_max":933,"o":"m 539 -160 q 340 -253 482 -253 q 160 -182 229 -253 q 92 3 92 -111 q 171 199 92 125 q 381 274 250 274 l 654 274 q 790 338 739 274 q 842 506 842 401 q 811 635 842 586 q 718 682 781 683 q 631 644 663 681 q 597 549 599 607 l 596 428 l 500 428 l 500 544 q 461 644 500 606 q 351 682 422 682 q 240 647 283 682 l 249 647 q 363 601 318 647 q 408 486 408 556 q 365 372 408 417 q 253 326 321 326 q 136 372 182 326 q 90 488 90 418 q 161 679 90 606 q 351 753 232 753 q 551 661 492 753 q 718 753 603 753 q 874 684 818 753 q 929 506 929 615 q 853 288 929 371 q 654 206 778 206 l 381 206 q 233 150 289 206 q 178 3 178 94 q 222 -131 178 -81 q 340 -182 267 -182 q 448 -147 407 -182 q 489 -57 489 -112 l 490 64 l 583 65 l 583 -50 q 622 -142 583 -107 q 721 -178 660 -178 q 813 -140 778 -178 q 847 -37 847 -101 q 821 65 847 26 q 751 104 794 104 l 751 175 q 883 117 833 175 q 933 -37 933 58 q 875 -190 933 -132 q 721 -249 817 -249 q 539 -160 594 -249 m 174 488 q 197 424 174 451 q 254 396 219 396 q 305 421 285 396 q 325 486 325 446 q 303 551 325 525 q 247 578 281 578 q 194 554 214 578 q 174 488 174 531 z "},"ஂ":{"ha":0,"x_min":-139,"x_max":151,"o":"m 6 826 q 57 847 36 826 q 78 897 78 867 q 58 947 78 928 q 6 967 38 967 q -47 947 -26 967 q -68 897 -68 928 q -47 847 -68 867 q 6 826 -26 826 m 110 797 q 90 778 110 797 q 6 758 69 758 q -99 797 -58 758 q -139 897 -139 836 q -97 996 -139 957 q 6 1035 -56 1035 q 110 996 69 1035 q 151 897 151 957 q 110 797 151 836 z "},"ஔ":{"ha":2219,"x_min":83,"x_max":2192,"o":"m 678 64 q 760 -42 678 -42 l 926 -42 l 926 -110 l 821 -110 q 700 -271 772 -217 q 508 -325 628 -325 q 328 -280 390 -325 q 267 -160 267 -235 q 321 -52 267 -94 q 461 -10 375 -10 l 461 -82 q 383 -103 413 -82 q 354 -160 354 -125 q 397 -228 354 -203 q 508 -254 439 -254 q 653 -211 593 -254 q 729 -110 713 -168 q 630 -58 669 -101 q 590 58 590 -15 l 590 260 l 678 260 q 707 164 678 200 q 788 128 736 128 q 863 185 836 128 q 889 340 889 243 q 789 585 889 489 q 536 682 689 682 q 313 617 404 682 q 189 429 222 551 q 276 454 229 454 q 416 396 361 454 q 471 249 471 338 q 419 100 471 158 q 288 42 368 42 q 141 112 199 42 q 83 290 83 182 q 208 630 83 507 q 536 753 332 753 q 851 636 726 753 q 975 340 975 519 q 924 135 975 214 q 788 57 872 57 q 678 86 728 57 l 678 64 m 2192 639 l 2028 639 l 2028 13 l 1942 13 l 1942 639 l 1814 639 q 1715 604 1744 639 q 1686 500 1686 569 l 1686 13 l 1600 13 l 1600 358 l 1600 447 q 1546 593 1600 536 q 1406 650 1492 650 q 1244 568 1308 650 q 1172 358 1179 486 q 1292 410 1219 410 q 1432 353 1378 410 q 1486 206 1486 296 q 1434 57 1486 115 q 1303 -1 1382 -1 q 1143 90 1201 -1 q 1085 332 1085 181 q 1173 615 1085 510 q 1406 721 1261 721 q 1622 613 1546 721 q 1814 707 1671 707 l 2192 707 l 2192 639 m 171 290 q 203 161 171 213 q 288 110 236 110 q 358 149 331 110 q 385 249 385 188 q 355 347 385 308 q 281 386 325 386 q 202 359 233 386 q 171 290 171 332 m 1176 256 q 1303 67 1196 67 q 1373 106 1346 67 q 1400 206 1400 144 q 1370 303 1400 265 q 1296 342 1340 342 q 1176 256 1208 342 z "},"ௗ":{"ha":1226,"x_min":92,"x_max":1199,"o":"m 1199 626 l 1035 626 l 1035 0 l 949 0 l 949 626 l 821 626 q 722 592 751 626 q 693 488 693 557 l 693 0 l 607 0 l 607 346 l 607 435 q 553 581 607 524 q 413 638 499 638 q 251 556 315 638 q 179 346 186 474 q 299 397 226 397 q 439 340 385 397 q 493 193 493 283 q 441 44 493 103 q 310 -14 389 -14 q 150 77 208 -14 q 92 319 92 168 q 180 603 92 497 q 413 708 268 708 q 629 600 553 708 q 821 694 678 694 l 1199 694 l 1199 626 m 183 244 q 310 54 204 54 q 380 93 353 54 q 407 193 407 132 q 377 292 407 253 q 303 331 347 331 q 183 244 215 331 z "},"ச":{"ha":817,"x_min":83,"x_max":733,"o":"m 478 338 l 343 338 q 215 299 261 338 q 169 194 169 260 q 208 94 169 132 q 315 57 247 57 q 436 105 394 57 q 478 240 478 153 l 478 338 m 478 406 l 478 626 l 289 626 l 289 401 q 343 406 314 406 l 478 406 m 564 406 l 733 406 l 733 338 l 564 338 l 564 240 q 498 54 564 122 q 315 -14 432 -14 q 147 44 211 -14 q 83 194 83 101 q 114 303 83 256 q 201 378 144 351 l 201 694 l 733 694 l 733 626 l 564 626 l 564 406 z "},"எ":{"ha":875,"x_min":92,"x_max":847,"o":"m 460 694 l 847 694 l 847 626 l 711 626 l 711 0 l 625 0 l 625 626 l 460 626 q 260 549 336 626 q 178 344 185 472 q 299 397 226 397 q 439 340 385 397 q 493 193 493 283 q 441 44 493 103 q 310 -14 389 -14 q 149 76 207 -14 q 92 319 92 167 q 192 590 92 486 q 460 694 293 694 m 182 243 q 310 54 201 54 q 380 93 353 54 q 407 193 407 132 q 377 292 407 253 q 303 331 347 331 q 229 307 261 331 q 182 243 197 283 z "},"ஏ":{"ha":875,"x_min":92,"x_max":847,"o":"m 460 692 l 847 692 l 847 624 l 711 624 l 711 -7 l 386 -244 l 350 -175 l 625 28 l 625 624 l 460 624 q 260 547 336 624 q 178 342 185 469 q 299 396 228 396 q 439 338 385 396 q 493 190 493 281 q 441 42 493 101 q 310 -17 389 -17 q 149 74 207 -17 q 92 318 92 165 q 192 588 92 485 q 460 692 293 692 m 182 242 q 310 51 203 51 q 380 90 353 51 q 407 190 407 129 q 377 289 407 250 q 303 328 347 328 q 182 242 214 328 z "},"௮":{"ha":1344,"x_min":83,"x_max":1219,"o":"m 356 415 q 435 627 356 546 q 644 708 515 708 q 892 599 803 708 q 982 307 982 489 q 974 213 982 258 l 1132 213 l 1133 694 l 1219 694 l 1218 -156 l 1132 -156 l 1132 146 l 957 146 q 783 -82 910 1 q 475 -165 656 -165 q 192 -97 300 -165 q 83 76 83 -29 q 131 175 83 138 q 260 213 179 213 l 886 213 q 896 307 896 264 q 831 548 896 458 q 644 638 767 638 q 496 577 550 638 q 442 415 442 517 l 356 415 m 868 146 l 260 146 q 194 127 218 146 q 169 76 169 108 q 253 -47 169 1 q 475 -94 338 -94 q 722 -31 618 -94 q 868 146 825 33 z "},"௺":{"ha":1135,"x_min":104,"x_max":1107,"o":"m 640 724 q 528 769 572 724 q 483 885 483 815 q 488 928 483 907 q 408 813 408 897 q 437 726 408 758 q 518 693 465 693 l 658 693 l 658 625 l 494 625 l 494 404 l 543 404 q 733 335 663 404 q 804 153 804 265 q 715 -74 804 11 q 464 -158 625 -158 l 225 -158 q 176 -192 176 -158 q 218 -225 176 -225 l 218 -293 q 135 -265 165 -293 q 104 -189 104 -237 q 138 -118 104 -146 q 225 -90 171 -90 l 464 -90 q 652 -26 588 -90 q 717 153 717 39 q 671 286 717 236 q 543 336 625 336 l 494 336 l 494 0 l 408 0 l 408 625 l 213 625 l 213 0 l 126 0 l 126 693 l 365 693 q 321 813 321 740 q 375 947 321 893 q 521 1010 429 1000 q 738 1111 590 1111 q 897 1055 833 1111 q 960 913 960 999 q 932 806 960 851 l 1107 806 l 1107 739 l 801 739 l 801 806 l 839 806 q 874 913 874 844 q 835 1006 874 969 q 738 1043 797 1043 q 625 1006 671 1043 q 734 951 696 992 q 772 850 772 910 q 735 759 772 794 q 640 724 697 724 m 579 940 q 569 885 569 911 q 590 815 569 844 q 640 786 610 786 q 683 804 667 786 q 700 850 700 822 q 669 913 700 889 q 579 940 638 938 z "},"௫":{"ha":1396,"x_min":97,"x_max":1276,"o":"m 97 364 q 261 811 97 646 q 728 976 425 976 q 1125 850 974 976 q 1276 508 1276 724 l 1276 0 l 1190 0 l 1190 508 q 1063 799 1190 692 q 728 906 935 906 q 324 760 464 906 q 185 364 185 615 q 296 -42 185 103 q 628 -187 407 -187 q 910 -97 807 -187 q 1013 142 1013 -7 q 960 304 1013 243 q 804 371 907 365 l 804 0 l 718 0 l 718 625 l 508 625 l 508 0 l 421 0 l 421 693 l 967 693 l 967 625 l 804 625 l 804 442 q 1021 353 943 436 q 1099 142 1099 271 q 972 -149 1099 -39 q 628 -258 846 -258 q 233 -92 369 -258 q 97 364 97 75 z "},"௪":{"ha":994,"x_min":83,"x_max":911,"o":"m 478 338 l 343 338 q 215 299 261 338 q 169 194 169 260 q 208 94 169 132 q 317 57 247 57 q 436 105 394 57 q 478 240 478 153 l 478 338 m 478 406 l 478 626 l 289 626 l 289 401 q 343 406 314 406 l 478 406 m 564 406 l 831 406 l 831 626 l 911 626 l 911 406 l 911 338 l 831 338 l 564 338 l 564 240 q 498 54 564 122 q 317 -14 432 -14 q 147 44 211 -14 q 83 194 83 101 q 114 303 83 256 q 201 378 144 351 l 201 694 l 733 694 l 733 626 l 564 626 l 564 406 z "},"ஹ":{"ha":1679,"x_min":92,"x_max":1576,"o":"m 900 492 q 949 649 900 589 q 1086 708 999 708 q 1174 681 1136 708 q 1226 613 1213 653 q 1286 681 1246 653 q 1382 708 1326 708 q 1524 648 1472 708 q 1576 489 1576 588 l 1576 175 q 1475 -113 1576 -12 q 1201 -214 1374 -214 l 276 -214 q 242 -223 256 -214 q 229 -247 229 -232 q 241 -272 229 -262 q 271 -281 253 -281 l 271 -349 q 188 -320 219 -349 q 157 -244 157 -292 q 190 -173 157 -200 q 276 -146 222 -146 l 1201 -146 q 1413 -64 1335 -146 q 1490 175 1490 18 l 1490 489 q 1382 640 1490 640 q 1295 600 1325 640 q 1265 489 1265 560 l 1265 0 l 1179 0 l 1179 493 q 1086 638 1179 638 q 988 492 988 638 l 988 0 l 540 0 l 540 68 l 579 68 q 631 179 611 101 q 651 344 651 257 q 590 558 651 479 q 421 638 528 638 q 251 556 318 638 q 178 344 185 474 q 299 397 226 397 q 439 340 385 397 q 493 192 493 282 q 441 44 493 103 q 310 -14 389 -14 q 149 76 207 -14 q 92 319 92 167 q 182 603 92 497 q 421 708 272 708 q 655 606 571 708 q 739 344 739 503 q 717 187 739 267 q 663 68 694 107 l 900 68 l 900 492 m 182 243 q 310 54 201 54 q 379 93 351 54 q 407 192 407 132 q 377 290 407 251 q 303 329 347 329 q 182 243 214 329 z "},"௱":{"ha":989,"x_min":119,"x_max":961,"o":"m 961 693 l 961 625 l 797 625 l 797 0 l 711 0 l 711 625 l 611 625 q 513 590 542 625 q 485 486 485 556 l 485 371 l 485 0 l 397 0 l 397 371 l 397 493 q 306 638 397 638 q 206 492 206 638 l 206 0 l 119 0 l 119 492 q 169 649 119 589 q 306 708 218 708 q 449 638 400 708 q 611 693 501 693 l 961 693 z "},"இ":{"ha":1244,"x_min":92,"x_max":1133,"o":"m 465 472 q 490 397 467 422 q 543 371 513 371 q 595 395 575 371 q 615 458 615 419 q 593 523 615 497 q 538 549 571 549 q 487 527 507 549 q 465 472 467 506 m 518 604 q 543 606 526 606 q 649 563 607 606 q 690 457 690 521 q 649 349 690 392 q 543 307 607 307 q 432 352 476 307 q 388 478 388 397 q 449 641 388 574 q 624 708 511 708 q 828 608 756 708 q 900 335 900 508 q 883 181 900 251 q 1042 88 986 146 q 1099 -43 1099 31 q 1026 -179 1099 -128 q 828 -231 953 -231 q 601 -185 713 -231 q 381 -231 501 -231 q 170 -176 249 -231 q 92 -35 92 -122 q 239 158 92 86 q 146 504 146 329 q 282 839 146 713 q 643 965 418 965 q 998 847 863 965 q 1133 535 1133 728 l 1133 286 l 1047 286 l 1047 535 q 939 795 1047 696 q 656 894 831 894 q 350 778 467 894 q 233 479 233 663 q 315 189 233 332 q 586 224 432 224 q 800 204 700 224 q 814 346 814 269 q 765 560 814 482 q 622 639 715 639 q 518 604 557 639 m 781 135 q 583 153 696 153 q 356 126 454 153 q 613 -94 460 -14 q 781 135 731 -15 m 275 97 q 178 -29 178 47 q 234 -122 178 -86 q 389 -158 290 -158 q 515 -140 460 -158 q 275 97 376 -56 m 693 -131 q 846 -158 772 -158 q 969 -126 928 -158 q 1011 -42 1011 -93 q 864 111 1011 57 q 693 -131 813 -39 z "},"ஈ":{"ha":817,"x_min":125,"x_max":789,"o":"m 700 407 q 747 388 728 407 q 765 344 765 369 q 747 297 765 317 q 700 278 729 278 q 654 298 674 278 q 635 344 635 318 q 654 388 635 369 q 700 407 674 407 m 125 693 l 789 693 l 789 625 l 565 625 l 565 0 l 478 0 l 478 625 l 211 625 l 211 0 l 125 0 l 125 693 m 346 407 q 394 388 375 407 q 413 344 413 369 q 394 297 413 317 q 346 278 375 278 q 300 298 319 278 q 281 344 281 318 q 300 388 281 369 q 346 407 319 407 z "},"ஜ":{"ha":1031,"x_min":90,"x_max":938,"o":"m 654 258 q 790 322 739 258 q 842 490 842 386 q 811 619 842 571 q 718 667 781 668 q 631 628 663 665 q 597 533 599 592 l 596 413 l 500 413 l 500 529 q 461 628 500 590 q 351 667 422 667 q 220 613 267 667 q 174 472 174 560 q 197 408 174 436 q 254 381 219 381 q 305 406 285 381 q 325 471 325 431 q 303 536 325 510 q 247 563 281 563 q 194 539 214 563 q 174 472 174 515 l 114 472 q 151 588 114 544 q 249 632 189 632 q 363 586 318 632 q 408 471 408 540 q 365 356 408 401 q 253 311 321 311 q 136 357 182 311 q 90 472 90 403 q 161 664 90 590 q 351 738 232 738 q 521 681 458 738 q 583 536 583 625 l 583 515 l 525 515 l 525 536 q 578 681 525 625 q 718 738 631 738 q 874 669 818 738 q 929 490 929 600 q 853 273 929 356 q 654 190 778 190 l 385 190 q 238 135 293 190 q 182 -14 182 79 q 222 -145 182 -93 q 333 -197 261 -197 q 421 -172 378 -197 q 486 -122 464 -147 q 542 -54 508 -97 q 612 33 586 4 q 679 89 638 63 q 765 115 721 115 q 885 67 832 115 q 938 -68 938 18 q 876 -211 938 -158 q 713 -264 814 -264 l 713 -193 q 814 -160 776 -193 q 851 -67 851 -126 q 823 15 851 -14 q 758 44 794 44 q 703 24 731 44 q 658 -19 675 3 q 617 -76 642 -40 q 611 -85 613 -82 q 477 -229 538 -190 q 340 -268 417 -268 q 156 -194 215 -268 q 96 -15 96 -121 q 175 184 96 110 q 385 258 254 258 l 654 258 z "},"க":{"ha":917,"x_min":83,"x_max":833,"o":"m 478 338 l 343 338 q 216 299 261 338 q 171 194 171 260 q 209 94 171 131 q 317 57 247 57 q 436 105 394 57 q 478 240 478 153 l 478 338 m 478 406 l 478 626 l 289 626 l 289 401 q 343 406 314 406 l 478 406 m 565 406 l 603 406 q 769 347 706 406 q 833 197 833 289 q 760 45 833 104 q 568 -14 688 -14 l 568 54 q 698 94 649 54 q 747 197 747 135 q 708 299 747 260 q 603 338 668 338 l 565 338 l 565 240 q 499 55 565 124 q 317 -14 433 -14 q 147 44 211 -14 q 83 194 83 101 q 203 378 83 324 l 203 694 l 733 694 l 733 626 l 565 626 l 565 406 z "},"ல":{"ha":1157,"x_min":92,"x_max":1065,"o":"m 849 57 q 979 336 979 57 q 936 553 979 468 q 826 638 893 638 l 826 708 q 998 604 931 708 q 1065 336 1065 500 q 1012 82 1065 178 q 849 -14 958 -14 q 700 51 751 -14 q 633 225 653 111 q 617 340 626 264 q 407 638 581 638 q 249 554 313 638 q 178 344 185 471 q 299 397 226 397 q 439 340 385 397 q 493 193 493 283 q 441 44 493 103 q 310 -14 389 -14 q 149 76 207 -14 q 92 319 92 167 q 179 602 92 496 q 407 708 267 708 q 612 617 544 708 q 697 340 679 525 q 745 127 710 197 q 849 57 781 57 m 182 243 q 310 54 201 54 q 380 93 353 54 q 407 193 407 132 q 377 292 407 253 q 303 331 347 331 q 229 307 261 331 q 182 243 197 283 z "},"ள":{"ha":1226,"x_min":92,"x_max":1199,"o":"m 1199 626 l 1035 626 l 1035 0 l 949 0 l 949 626 l 821 626 q 722 592 751 626 q 693 488 693 557 l 693 0 l 607 0 l 607 346 l 607 435 q 553 581 607 524 q 413 638 499 638 q 251 556 315 638 q 179 346 186 474 q 299 397 226 397 q 439 340 385 397 q 493 193 493 283 q 441 44 493 103 q 310 -14 389 -14 q 150 77 208 -14 q 92 319 92 168 q 180 603 92 497 q 413 708 268 708 q 629 600 553 708 q 821 694 678 694 l 1199 694 l 1199 626 m 183 244 q 310 54 204 54 q 380 93 353 54 q 407 193 407 132 q 377 292 407 253 q 303 331 347 331 q 183 244 215 331 z "},"ழ":{"ha":967,"x_min":125,"x_max":856,"o":"m 511 67 l 676 67 q 744 99 718 67 q 769 182 769 131 l 769 451 q 733 585 769 535 q 639 636 697 636 q 547 585 582 636 q 511 451 511 535 l 511 67 m 425 67 l 425 451 q 484 636 425 565 q 639 707 543 707 q 796 637 736 707 q 856 451 856 567 l 856 171 q 806 47 856 94 q 676 0 757 0 l 513 0 q 541 -79 519 -50 q 593 -108 563 -108 l 788 -108 l 788 -176 l 654 -176 q 522 -301 604 -253 q 343 -349 439 -349 q 201 -310 257 -349 q 144 -211 144 -272 q 185 -125 144 -158 q 294 -92 226 -92 l 294 -164 q 248 -177 265 -164 q 231 -212 231 -190 q 263 -260 231 -242 q 350 -278 296 -278 q 474 -250 415 -278 q 563 -176 532 -222 q 470 -122 507 -169 q 426 0 433 -74 l 125 0 l 125 693 l 211 693 l 211 67 l 425 67 z "},"ம":{"ha":967,"x_min":125,"x_max":856,"o":"m 511 68 l 676 68 q 744 99 718 68 q 769 182 769 131 l 769 453 q 733 587 769 536 q 639 638 697 638 q 547 587 582 638 q 511 453 511 536 l 511 68 m 425 68 l 425 453 q 484 638 425 567 q 639 708 543 708 q 796 638 736 708 q 856 453 856 568 l 856 172 q 806 47 856 94 q 676 0 757 0 l 125 0 l 125 693 l 211 693 l 211 68 l 425 68 z "},"௴":{"ha":1276,"x_min":125,"x_max":1249,"o":"m 782 724 q 669 769 714 724 q 625 883 625 815 q 629 928 625 907 q 550 811 550 897 q 600 708 550 739 q 786 453 786 706 l 786 172 q 607 0 786 0 l 125 0 l 125 693 l 211 693 l 211 68 l 411 68 l 411 453 q 511 689 411 639 q 463 811 463 738 q 517 947 463 893 q 664 1010 571 1000 q 879 1111 733 1111 q 1038 1055 975 1111 q 1101 913 1101 999 q 1074 806 1101 851 l 1249 806 l 1249 738 l 943 738 l 943 806 l 981 806 q 1015 913 1015 844 q 977 1006 1015 969 q 879 1043 939 1043 q 767 1006 813 1043 q 876 951 838 992 q 914 850 914 910 q 876 759 914 794 q 782 724 839 724 m 721 940 q 711 883 711 911 q 731 815 711 843 q 782 786 751 786 q 825 804 808 786 q 842 850 842 822 q 810 913 842 889 q 721 940 779 938 m 497 68 l 607 68 q 678 95 656 68 q 700 182 700 122 l 700 453 q 676 592 700 547 q 597 638 653 638 q 497 453 497 638 l 497 68 z "},"௸":{"ha":2065,"x_min":92,"x_max":2038,"o":"m 968 -14 q 833 51 886 -14 q 779 204 779 115 q 865 441 779 353 q 1093 535 951 529 q 933 838 1051 728 q 635 947 814 947 q 308 817 436 947 q 179 483 179 686 q 314 119 179 233 q 296 193 296 156 q 351 341 296 285 q 497 397 406 397 q 644 341 589 397 q 700 193 700 285 q 644 44 700 103 q 501 -14 588 -14 q 201 124 311 -14 q 92 483 92 263 q 245 867 92 717 q 635 1018 399 1018 q 994 886 851 1018 q 1182 528 1138 754 q 1359 435 1292 508 q 1426 257 1426 361 q 1379 68 1426 158 l 1664 68 q 1573 192 1606 113 q 1540 371 1540 271 q 1606 614 1540 517 q 1775 711 1671 711 q 1928 634 1868 711 q 1989 460 1989 557 q 1968 350 1989 411 q 1926 249 1947 289 q 1865 136 1906 208 l 1826 68 l 2038 68 l 2038 0 l 1788 0 l 1715 -128 q 1697 -204 1689 -181 q 1761 -228 1704 -228 l 1761 -296 q 1615 -206 1615 -296 q 1650 -93 1615 -165 q 1699 0 1674 -44 l 1243 0 l 1243 68 l 1296 68 q 1340 257 1340 140 q 1300 378 1340 326 q 1193 451 1260 431 q 1200 332 1200 386 q 1135 84 1200 182 q 968 -14 1069 -14 m 1749 86 q 1762 108 1753 93 q 1775 129 1771 122 q 1879 321 1860 267 q 1903 454 1903 386 q 1867 583 1903 525 q 1775 640 1832 640 q 1669 562 1710 640 q 1628 368 1628 483 q 1660 191 1628 267 q 1749 86 1693 115 m 417 94 q 435 74 417 94 q 501 54 453 54 q 582 93 550 54 q 614 193 614 132 q 581 291 614 253 q 497 329 549 329 q 414 291 446 329 q 382 193 382 253 q 417 94 382 133 m 1104 464 q 932 393 997 463 q 867 204 867 324 q 895 99 867 144 q 968 54 924 54 q 1072 132 1032 54 q 1113 332 1113 210 q 1104 464 1113 401 z "},"ந":{"ha":886,"x_min":104,"x_max":803,"o":"m 464 -146 q 646 -64 575 -146 q 717 139 717 18 q 670 285 717 235 q 543 336 624 336 l 493 336 l 493 0 l 407 0 l 407 625 l 213 625 l 213 0 l 125 0 l 125 693 l 657 693 l 657 625 l 493 625 l 493 404 l 543 404 q 730 338 657 404 q 803 139 803 271 q 708 -113 803 -12 q 464 -214 614 -214 l 224 -214 q 190 -223 203 -214 q 176 -247 176 -232 q 188 -272 176 -262 q 218 -281 200 -281 l 218 -349 q 136 -320 168 -349 q 104 -246 104 -292 q 136 -173 104 -200 q 224 -146 168 -146 l 464 -146 z "},"௳":{"ha":1088,"x_min":92,"x_max":1060,"o":"m 439 340 q 466 312 439 340 q 493 193 493 283 q 441 44 493 103 q 310 -14 389 -14 q 149 76 207 -14 q 92 319 92 167 q 182 603 92 497 q 421 708 272 708 q 656 606 572 708 q 739 344 739 503 q 717 188 739 268 q 663 68 694 108 l 1060 68 l 1060 0 l 526 0 l 526 68 l 581 68 q 633 181 613 103 q 653 344 653 258 q 591 558 653 479 q 421 638 529 638 q 252 556 318 638 q 179 346 186 474 q 299 397 226 397 q 439 340 385 397 m 182 246 q 310 54 200 54 q 380 93 353 54 q 407 193 407 132 q 377 292 407 253 q 303 331 347 331 q 229 308 261 331 q 182 246 197 285 z "},"ங":{"ha":1121,"x_min":125,"x_max":996,"o":"m 910 68 l 910 693 l 996 693 l 996 0 l 399 0 l 399 68 l 507 68 q 656 115 604 68 q 708 243 708 163 q 656 360 708 317 q 507 403 604 403 l 507 203 l 421 203 l 421 625 l 211 625 l 211 0 l 125 0 l 125 693 l 671 693 l 671 625 l 507 625 l 507 474 q 719 411 643 474 q 794 243 794 349 q 711 68 794 131 l 910 68 z "},"௯":{"ha":1356,"x_min":83,"x_max":1286,"o":"m 1286 256 q 1236 62 1286 138 q 1104 -14 1186 -14 l 1104 57 q 1174 112 1149 57 q 1200 256 1200 167 q 1141 426 1200 360 q 989 493 1082 493 q 817 401 882 493 q 987 324 925 388 q 1049 168 1049 261 q 1002 38 1049 89 q 881 -14 956 -14 q 737 55 794 -14 q 679 228 679 124 q 694 338 679 285 l 564 338 l 564 240 q 498 55 564 124 q 315 -14 432 -14 q 147 44 211 -14 q 83 194 83 101 q 114 303 83 256 q 201 378 144 351 l 201 694 l 733 694 l 733 626 l 564 626 l 564 406 l 724 406 q 833 519 764 478 q 989 561 903 561 q 1203 475 1119 561 q 1286 256 1286 389 m 288 401 q 343 406 314 406 l 478 406 l 478 626 l 288 626 l 288 401 m 478 338 l 343 338 q 215 299 261 338 q 169 194 169 260 q 208 94 169 132 q 315 57 247 57 q 436 105 394 57 q 478 240 478 153 l 478 338 m 783 336 q 767 228 767 289 q 799 103 767 153 q 881 54 832 54 q 940 86 917 54 q 963 168 963 118 q 915 281 963 236 q 783 336 867 326 z "},"ண":{"ha":1881,"x_min":92,"x_max":1853,"o":"m 1387 61 q 1359 24 1387 61 q 1242 -14 1332 -14 q 1097 60 1151 -14 q 1043 256 1043 135 q 1203 586 1043 460 q 1011 638 1121 638 q 838 599 911 638 q 974 256 974 471 q 919 61 974 136 q 774 -14 864 -14 q 629 60 683 -14 q 575 256 575 135 q 711 599 575 471 q 540 638 636 638 q 299 559 396 638 q 183 349 201 481 q 299 397 232 397 q 439 340 385 397 q 493 193 493 283 q 441 44 493 103 q 310 -14 389 -14 q 151 72 210 -14 q 92 290 92 157 q 216 594 92 479 q 540 708 340 708 q 775 646 674 708 q 1011 708 878 708 q 1269 631 1161 708 q 1539 694 1386 694 l 1853 694 l 1853 626 l 1689 626 l 1689 0 l 1603 0 l 1603 626 l 1543 626 q 1326 579 1424 626 q 1442 256 1442 456 q 1387 61 1442 136 m 181 243 q 221 106 188 157 q 310 54 254 54 q 380 93 353 54 q 407 193 407 132 q 377 292 407 253 q 303 331 347 331 q 228 307 261 331 q 181 243 196 283 m 775 554 q 661 256 661 451 q 691 111 661 165 q 774 57 721 57 q 856 111 826 57 q 886 256 886 165 q 775 554 886 451 m 1261 538 q 1129 256 1129 435 q 1159 111 1129 165 q 1242 57 1189 57 q 1324 111 1294 57 q 1354 256 1354 165 q 1261 538 1354 436 z "},"ன":{"ha":1413,"x_min":92,"x_max":1385,"o":"m 691 111 q 706 84 691 111 q 774 57 721 57 q 856 111 826 57 q 886 256 886 165 q 792 538 886 436 q 661 256 661 433 q 691 111 661 165 m 800 629 q 1071 694 922 694 l 1385 694 l 1385 626 l 1221 626 l 1221 0 l 1135 0 l 1135 626 l 1075 626 q 857 579 954 626 q 974 256 974 454 q 919 61 974 136 q 774 -14 864 -14 q 629 60 683 -14 q 575 256 575 135 q 733 586 575 461 q 540 638 651 638 q 299 559 396 638 q 183 349 201 481 q 299 397 232 397 q 439 340 385 397 q 493 193 493 283 q 441 44 493 103 q 310 -14 389 -14 q 151 72 210 -14 q 92 290 92 157 q 216 594 92 479 q 540 708 340 708 q 800 629 690 708 m 181 243 q 221 106 188 157 q 310 54 254 54 q 380 93 353 54 q 407 193 407 132 q 377 292 407 253 q 303 331 347 331 q 228 307 261 331 q 181 243 196 283 z "},"ஞ":{"ha":1324,"x_min":97,"x_max":1240,"o":"m 713 693 l 1082 693 l 1082 625 l 946 625 l 946 442 q 1163 353 1085 436 q 1240 142 1240 271 q 1091 -150 1240 -42 q 683 -258 942 -258 q 257 -123 417 -258 q 97 232 97 13 q 204 583 97 449 l 268 550 q 208 415 232 500 q 185 232 185 329 q 319 -72 185 43 q 683 -187 453 -187 q 1028 -99 903 -187 q 1154 142 1154 -10 q 1101 304 1154 243 q 946 371 1049 365 l 946 0 l 858 0 l 858 625 l 713 625 q 515 549 590 625 q 433 346 440 472 q 551 397 481 397 q 692 340 638 397 q 746 192 746 282 q 694 44 746 103 q 563 -14 642 -14 q 402 76 460 -14 q 344 319 344 167 q 445 590 344 486 q 713 693 546 693 m 435 246 q 563 54 453 54 q 633 93 606 54 q 660 192 660 132 q 630 290 660 251 q 556 329 600 329 q 435 246 467 329 z "},"ஒ":{"ha":1058,"x_min":83,"x_max":975,"o":"m 678 64 q 760 -42 678 -42 l 926 -42 l 926 -110 l 821 -110 q 700 -271 772 -217 q 508 -325 628 -325 q 328 -280 390 -325 q 267 -160 267 -235 q 321 -52 267 -94 q 461 -10 375 -10 l 461 -82 q 383 -103 413 -82 q 354 -160 354 -125 q 397 -228 354 -203 q 508 -254 439 -254 q 653 -211 593 -254 q 729 -110 713 -168 q 630 -58 669 -101 q 590 58 590 -15 l 590 260 l 678 260 q 707 164 678 200 q 788 128 736 128 q 863 185 836 128 q 889 340 889 243 q 789 585 889 489 q 536 682 689 682 q 313 617 404 682 q 189 429 222 551 q 276 454 229 454 q 416 396 361 454 q 471 249 471 338 q 419 100 471 158 q 288 42 368 42 q 141 112 199 42 q 83 290 83 182 q 208 630 83 507 q 536 753 332 753 q 851 636 726 753 q 975 340 975 519 q 924 135 975 214 q 788 57 872 57 q 678 86 728 57 l 678 64 m 171 290 q 203 161 171 213 q 288 110 236 110 q 358 149 331 110 q 385 249 385 188 q 355 347 385 308 q 281 386 325 386 q 202 359 233 386 q 171 290 171 332 z "},"ௐ":{"ha":1058,"x_min":83,"x_max":975,"o":"m 975 369 q 922 186 975 258 q 788 114 869 114 q 678 147 725 114 l 678 121 q 760 15 678 15 l 926 15 l 926 -51 l 806 -51 q 746 -221 799 -137 q 658 -297 715 -268 q 528 -325 600 -325 q 335 -262 411 -325 q 258 -87 258 -199 l 258 -44 l 339 -44 l 339 -87 q 389 -212 339 -169 q 528 -254 439 -254 q 688 -174 636 -254 q 729 -51 726 -111 q 640 1 674 -44 q 606 115 606 47 l 606 318 l 678 318 q 707 222 678 258 q 788 185 736 185 q 860 237 832 185 q 889 369 889 289 q 789 593 889 504 q 536 682 689 682 q 313 617 404 682 q 189 429 222 551 q 276 454 229 454 q 416 396 361 454 q 471 249 471 338 q 419 100 471 158 q 288 42 368 42 q 141 112 199 42 q 83 290 83 182 q 208 630 83 507 q 536 753 332 753 q 851 644 726 753 q 975 369 975 535 m 533 10 q 515 17 522 10 q 507 36 507 25 q 515 55 507 47 q 533 63 522 63 q 551 55 543 63 q 558 36 558 47 q 551 17 558 25 q 533 10 543 10 m 171 290 q 203 161 171 213 q 288 110 236 110 q 358 149 331 110 q 385 249 385 188 q 355 347 385 308 q 281 386 325 386 q 202 359 233 386 q 171 290 171 332 m 550 -149 l 582 -149 q 610 -115 610 -149 l 610 -96 q 579 -40 610 -40 q 550 -96 550 -40 l 550 -149 m 511 -149 l 511 -82 q 531 -28 511 -49 q 579 -7 550 -7 q 628 -28 610 -7 q 647 -82 647 -49 l 647 -132 q 594 -182 647 -182 l 421 -182 l 421 -17 l 458 -17 l 458 -149 l 511 -149 z "},"௧":{"ha":917,"x_min":83,"x_max":833,"o":"m 478 338 l 343 338 q 216 299 261 338 q 171 194 171 260 q 209 94 171 131 q 317 57 247 57 q 436 105 394 57 q 478 240 478 153 l 478 338 m 478 406 l 478 626 l 289 626 l 289 401 q 343 406 314 406 l 478 406 m 565 406 l 603 406 q 769 347 706 406 q 833 197 833 289 q 760 45 833 104 q 568 -14 688 -14 l 568 54 q 698 94 649 54 q 747 197 747 135 q 708 299 747 260 q 603 338 668 338 l 565 338 l 565 240 q 499 55 565 124 q 317 -14 433 -14 q 147 44 211 -14 q 83 194 83 101 q 203 378 83 324 l 203 694 l 733 694 l 733 626 l 565 626 l 565 406 z "},"ஓ":{"ha":1058,"x_min":83,"x_max":975,"o":"m 314 -53 q 338 -31 314 -53 q 432 -10 361 -10 q 547 -52 503 -10 q 592 -160 592 -94 q 572 -239 592 -204 q 675 -183 632 -219 q 729 -110 718 -147 q 631 -56 671 -103 q 590 58 590 -8 l 590 260 l 678 260 q 707 164 678 200 q 788 128 736 128 q 863 185 836 128 q 889 340 889 243 q 789 585 889 489 q 536 682 689 682 q 313 617 404 682 q 189 429 222 551 q 276 454 229 454 q 416 396 361 454 q 471 249 471 338 q 419 100 471 158 q 288 42 368 42 q 141 112 199 42 q 83 290 83 182 q 208 630 83 507 q 536 753 332 753 q 851 636 726 753 q 975 340 975 519 q 924 135 975 214 q 788 57 872 57 q 678 86 728 57 l 678 64 q 760 -42 678 -42 l 926 -42 l 926 -110 l 821 -110 q 687 -265 774 -204 q 479 -325 600 -325 q 324 -280 381 -325 q 267 -160 267 -235 q 314 -53 267 -96 m 171 290 q 203 161 171 213 q 288 110 236 110 q 358 149 331 110 q 385 249 385 188 q 355 347 385 308 q 281 386 325 386 q 202 359 233 386 q 171 290 171 332 m 446 -251 q 492 -219 475 -244 q 510 -160 510 -194 q 488 -104 510 -126 q 432 -82 465 -82 q 376 -104 399 -82 q 354 -160 354 -126 q 446 -251 354 -239 z "},"ப":{"ha":890,"x_min":125,"x_max":765,"o":"m 679 68 l 679 693 l 765 693 l 765 0 l 125 0 l 125 693 l 213 693 l 213 68 l 679 68 z "},"௶":{"ha":1028,"x_min":119,"x_max":903,"o":"m 376 -160 q 278 -188 315 -160 q 240 -264 240 -217 q 277 -333 240 -307 q 374 -358 314 -358 q 476 -326 438 -358 q 515 -242 515 -294 l 515 -160 l 376 -160 m 603 -93 l 817 -93 l 817 693 l 903 693 l 903 -160 l 603 -160 l 603 -242 q 540 -378 603 -326 q 374 -429 476 -429 q 214 -383 275 -429 q 153 -264 153 -337 q 214 -140 153 -186 q 376 -93 275 -93 l 515 -93 l 515 36 q 364 -14 454 -14 q 184 60 249 -14 q 119 260 119 133 l 119 693 l 207 693 l 207 260 q 247 110 207 164 q 364 57 288 57 q 476 110 438 57 q 515 258 515 163 l 515 693 l 603 693 l 603 254 l 603 -93 z "},"ர":{"ha":728,"x_min":125,"x_max":700,"o":"m 700 625 l 536 625 l 536 -6 l 211 -243 l 175 -174 l 450 29 l 450 625 l 211 625 l 211 0 l 125 0 l 125 693 l 700 693 l 700 625 z "},"ற":{"ha":911,"x_min":103,"x_max":808,"o":"m 614 708 q 756 648 704 708 q 808 489 808 588 l 808 146 q 705 -115 808 -15 q 433 -214 601 -214 l 224 -214 q 188 -223 201 -214 q 175 -247 175 -232 q 218 -281 175 -281 l 218 -349 q 135 -320 167 -349 q 103 -247 103 -292 q 136 -174 103 -201 q 224 -146 169 -146 l 433 -146 q 643 -66 564 -146 q 722 146 722 14 l 722 489 q 614 640 722 640 q 527 600 557 640 q 497 489 497 560 l 497 0 l 411 0 l 411 493 q 318 638 411 638 q 219 492 219 638 l 219 0 l 132 0 l 132 492 q 181 649 132 589 q 318 708 231 708 q 406 681 368 708 q 458 613 444 653 q 518 681 478 653 q 614 708 558 708 z "},"௹":{"ha":1239,"x_min":97,"x_max":1156,"o":"m 1024 753 l 796 753 l 796 806 l 835 806 q 868 913 868 843 q 830 1006 868 969 q 732 1043 792 1043 q 625 1010 667 1043 q 727 956 688 1000 q 767 850 767 911 q 730 759 767 794 q 636 724 693 724 q 532 769 571 724 q 493 885 493 814 q 497 929 493 908 q 264 742 344 892 q 183 364 183 593 q 313 -40 183 107 q 685 -187 442 -187 q 967 -97 864 -187 q 1069 142 1069 -7 q 1017 304 1069 243 q 861 371 964 365 l 861 0 l 774 0 l 774 625 l 565 625 l 565 0 l 478 0 l 478 693 l 1024 693 l 1024 625 l 861 625 l 861 442 q 1078 353 1000 436 q 1156 142 1156 271 q 1029 -149 1156 -39 q 685 -258 903 -258 q 250 -90 403 -258 q 97 364 97 78 q 209 808 97 635 q 525 1007 321 981 q 732 1111 589 1111 q 892 1055 829 1111 q 954 913 954 999 q 926 806 954 851 l 1024 806 l 1024 753 m 575 940 q 565 885 565 911 q 585 815 565 843 q 636 786 606 786 q 678 804 663 786 q 694 850 694 822 q 666 914 694 888 q 597 940 638 940 l 575 940 z "},"ஸ":{"ha":1442,"x_min":92,"x_max":1350,"o":"m 1133 57 q 1264 336 1264 57 q 1221 553 1264 468 q 1111 638 1178 638 l 1111 708 q 1283 604 1215 708 q 1350 336 1350 500 q 1297 82 1350 178 q 1133 -14 1243 -14 q 1044 6 1082 -14 q 983 53 1006 25 q 943 134 960 82 q 919 228 926 186 q 901 340 911 271 q 896 386 900 356 q 887 456 890 433 q 877 514 883 478 q 863 567 871 550 q 844 603 856 583 q 816 630 832 622 q 778 638 800 638 q 693 492 693 638 l 693 0 l 606 0 l 606 376 l 606 435 q 552 581 606 524 q 413 638 499 638 q 251 556 315 638 q 179 346 186 474 q 299 397 226 397 q 439 340 385 397 q 493 193 493 283 q 441 44 493 103 q 310 -14 389 -14 q 149 76 207 -14 q 92 319 92 167 q 180 603 92 497 q 413 708 268 708 q 626 603 549 708 q 778 708 671 708 q 843 696 814 708 q 892 666 872 683 q 926 615 911 649 q 950 556 942 582 q 965 485 958 531 q 975 415 972 440 q 982 340 978 389 q 1030 127 994 197 q 1133 57 1065 57 m 182 246 q 310 54 200 54 q 380 93 353 54 q 407 193 407 132 q 377 292 407 253 q 303 331 347 331 q 229 308 261 331 q 182 246 197 285 z "},"௭":{"ha":875,"x_min":92,"x_max":847,"o":"m 460 694 l 847 694 l 847 626 l 711 626 l 711 0 l 625 0 l 625 626 l 460 626 q 260 549 336 626 q 178 344 185 472 q 299 397 226 397 q 439 340 385 397 q 493 193 493 283 q 441 44 493 103 q 310 -14 389 -14 q 149 76 207 -14 q 92 319 92 167 q 192 590 92 486 q 460 694 293 694 m 182 243 q 310 54 201 54 q 380 93 353 54 q 407 193 407 132 q 377 292 407 253 q 303 331 347 331 q 229 307 261 331 q 182 243 197 283 z "},"ஶ":{"ha":1125,"x_min":119,"x_max":1014,"o":"m 485 197 q 438 43 485 100 q 306 -14 392 -14 q 169 45 218 -14 q 119 203 119 104 l 119 694 l 207 694 l 207 203 q 306 57 207 57 q 399 201 399 57 l 399 694 l 835 694 q 1014 522 1014 694 l 1014 242 q 825 -14 1014 -14 q 639 242 639 -14 l 639 626 l 485 626 l 485 197 m 725 626 l 725 242 q 825 57 725 57 q 904 102 881 57 q 928 242 928 147 l 928 513 q 906 599 928 572 q 835 626 883 626 l 725 626 z "},"௬":{"ha":1193,"x_min":83,"x_max":1165,"o":"m 1165 406 l 1165 338 l 1044 338 l 1044 0 l 957 0 l 957 338 l 933 338 q 835 303 864 338 q 806 199 806 268 l 806 0 l 719 0 l 719 199 q 690 303 719 268 q 592 338 661 338 l 564 338 l 564 240 q 498 54 564 122 q 315 -14 432 -14 q 147 44 211 -14 q 83 194 83 101 q 114 303 83 256 q 201 378 144 351 l 201 694 l 733 694 l 733 626 l 564 626 l 564 406 l 592 406 q 763 340 708 406 q 933 406 817 406 l 1165 406 m 289 401 q 343 406 314 406 l 478 406 l 478 626 l 289 626 l 289 401 m 478 338 l 343 338 q 215 299 261 338 q 169 194 169 260 q 208 94 169 132 q 315 57 247 57 q 436 105 394 57 q 478 240 478 153 l 478 338 z "},"ஷ":{"ha":1378,"x_min":92,"x_max":1350,"o":"m 439 340 q 466 312 439 340 q 493 193 493 283 q 441 44 493 103 q 310 -14 389 -14 q 149 76 207 -14 q 92 319 92 167 q 182 603 92 497 q 421 708 272 708 q 655 606 571 708 q 739 344 739 503 q 717 188 739 268 q 663 68 694 108 l 971 68 q 851 368 851 165 q 917 611 851 514 q 1086 708 982 708 q 1240 631 1179 708 q 1300 457 1300 554 q 1279 347 1300 408 q 1238 246 1258 286 q 1176 133 1217 206 l 1139 68 l 1350 68 l 1350 0 l 1100 0 l 1026 -131 q 1008 -207 1000 -183 q 1072 -231 1015 -231 l 1072 -299 q 926 -208 926 -299 q 961 -96 926 -168 q 1011 0 986 -46 l 540 0 l 540 68 l 581 68 q 633 180 613 101 q 653 344 653 258 q 591 558 653 479 q 421 638 529 638 q 252 556 318 638 q 179 346 186 474 q 299 397 226 397 q 439 340 385 397 m 1060 83 q 1073 105 1064 90 q 1086 126 1082 119 q 1190 318 1171 264 q 1214 451 1214 383 q 1178 580 1214 522 q 1086 638 1143 638 q 980 559 1021 638 q 939 365 939 481 q 972 188 939 264 q 1060 83 1004 113 m 182 246 q 310 54 200 54 q 380 93 353 54 q 407 193 407 132 q 377 291 407 253 q 303 329 347 329 q 182 246 215 329 z "},"த":{"ha":917,"x_min":83,"x_max":833,"o":"m 494 -146 q 676 -64 606 -146 q 747 139 747 18 q 701 285 747 235 q 574 336 654 336 l 565 336 l 565 240 q 499 54 565 122 q 317 -14 433 -14 q 148 44 213 -14 q 83 193 83 101 q 203 376 83 322 l 203 693 l 733 693 l 733 625 l 565 625 l 565 404 l 574 404 q 760 338 688 404 q 833 139 833 271 q 739 -113 833 -12 q 494 -214 644 -214 l 215 -214 q 181 -223 194 -214 q 168 -247 168 -232 q 180 -272 168 -262 q 210 -281 192 -281 l 210 -349 q 128 -320 160 -349 q 96 -246 96 -292 q 128 -173 96 -200 q 215 -146 160 -146 l 494 -146 m 289 401 q 343 404 306 404 l 478 404 l 478 625 l 289 625 l 289 401 m 478 336 l 343 336 q 216 297 261 336 q 171 193 171 258 q 209 94 171 131 q 317 57 247 57 q 436 105 394 57 q 478 240 478 153 l 478 336 z "},"௰":{"ha":915,"x_min":119,"x_max":796,"o":"m 796 206 q 744 46 796 106 q 601 -14 692 -14 q 506 13 546 -14 q 446 82 465 40 q 394 14 432 42 q 306 -14 357 -14 q 169 45 218 -14 q 119 203 119 104 l 119 694 l 207 694 l 207 203 q 306 57 207 57 q 399 201 399 57 l 399 694 l 485 694 l 485 206 q 515 94 485 135 q 601 54 544 54 q 710 206 710 54 l 710 554 q 639 783 710 708 q 421 857 568 857 l 178 857 l 178 925 l 421 925 q 701 831 606 925 q 796 554 796 736 l 796 206 z "},"௲":{"ha":1285,"x_min":83,"x_max":1215,"o":"m 919 -133 q 1072 -88 1015 -133 q 1129 32 1129 -43 q 1097 134 1129 94 q 1010 178 1065 174 l 1010 139 q 955 -3 1010 50 q 806 -57 900 -57 q 679 -15 728 -57 q 631 92 631 26 q 678 203 631 161 q 818 246 726 246 l 924 246 l 924 338 l 564 338 l 564 240 q 498 55 564 124 q 315 -14 432 -14 q 147 44 211 -14 q 83 194 83 101 q 114 303 83 256 q 201 378 144 351 l 201 694 l 733 694 l 733 626 l 564 626 l 564 406 l 1183 406 l 1183 338 l 1010 338 l 1010 246 q 1160 184 1104 243 q 1215 32 1215 125 q 1134 -137 1215 -72 q 919 -201 1053 -201 l 271 -201 q 224 -235 224 -201 q 265 -268 224 -268 l 265 -336 q 182 -308 213 -336 q 151 -232 151 -281 q 184 -161 151 -189 q 271 -133 217 -133 l 919 -133 m 478 338 l 343 338 q 215 299 261 338 q 169 194 169 260 q 208 94 169 132 q 315 57 247 57 q 436 105 394 57 q 478 240 478 153 l 478 338 m 478 406 l 478 626 l 288 626 l 288 401 q 343 406 314 406 l 478 406 m 924 178 l 818 178 q 717 92 717 178 q 742 36 717 58 q 806 14 767 14 q 924 139 924 14 l 924 178 z "},"௩":{"ha":1024,"x_min":125,"x_max":996,"o":"m 996 68 l 996 0 l 399 0 l 399 68 l 507 68 q 656 115 604 68 q 708 243 708 163 q 656 360 708 317 q 507 403 604 403 l 507 203 l 421 203 l 421 625 l 211 625 l 211 0 l 125 0 l 125 693 l 671 693 l 671 625 l 507 625 l 507 474 q 719 411 643 474 q 794 243 794 349 q 711 68 794 131 l 996 68 z "},"ட":{"ha":988,"x_min":125,"x_max":960,"o":"m 211 68 l 960 68 l 960 0 l 125 0 l 125 694 l 211 694 l 211 68 z "},"௨":{"ha":1231,"x_min":83,"x_max":1203,"o":"m 83 439 q 159 632 83 556 q 351 708 235 708 q 548 631 471 708 q 625 433 625 553 q 553 224 625 301 q 350 147 482 147 l 235 147 q 171 108 171 147 q 235 68 171 68 l 1203 68 l 1203 0 l 235 0 q 126 30 167 0 q 85 108 85 60 q 125 186 85 157 q 235 215 165 215 l 350 215 q 492 273 444 215 q 539 433 539 331 q 485 579 539 521 q 351 638 432 638 q 219 583 269 638 q 169 439 169 528 l 83 439 z "},"உ":{"ha":1206,"x_min":49,"x_max":1178,"o":"m 169 579 q 201 583 183 583 q 302 541 263 583 q 342 433 342 499 q 301 333 342 372 q 196 294 260 294 q 90 338 132 294 q 49 456 49 382 q 123 636 49 564 q 324 708 197 708 q 527 631 450 708 q 604 433 604 554 q 533 224 604 301 q 331 147 461 147 l 215 147 q 151 108 151 147 q 215 68 151 68 l 1178 68 l 1178 0 l 215 0 q 105 30 146 0 q 64 108 64 60 q 105 186 64 157 q 215 215 146 215 l 331 215 q 471 273 424 215 q 518 433 518 331 q 467 580 518 522 q 322 638 415 638 q 169 579 225 638 m 121 451 q 142 378 121 404 q 197 351 163 351 q 249 374 228 351 q 269 433 269 397 q 249 500 269 474 q 196 526 228 526 q 142 503 164 526 q 121 451 121 481 z "},"ஊ":{"ha":1504,"x_min":49,"x_max":1464,"o":"m 1464 585 l 1364 585 l 1364 157 l 1289 157 l 1289 585 l 1218 585 q 1149 560 1169 585 q 1128 488 1128 536 l 1128 157 l 1053 157 l 1053 404 l 1053 467 q 1013 560 1053 522 q 914 597 974 597 q 806 544 846 597 q 761 404 765 492 q 843 440 793 440 q 942 399 903 440 q 981 297 981 358 q 945 192 981 233 q 853 151 910 151 q 733 217 779 151 q 686 385 686 282 q 748 583 686 507 q 914 660 810 660 q 1071 582 1018 660 q 1203 644 1106 644 l 1464 644 l 1464 585 m 169 579 q 201 583 183 583 q 302 541 263 583 q 342 433 342 499 q 301 333 342 372 q 196 294 260 294 q 90 338 132 294 q 49 456 49 382 q 123 636 49 564 q 324 708 197 708 q 527 631 450 708 q 604 433 604 554 q 533 224 604 301 q 331 147 461 147 l 215 147 q 151 108 151 147 q 215 68 151 68 l 1456 68 l 1456 0 l 215 0 q 105 30 146 0 q 64 108 64 60 q 105 186 64 157 q 215 215 146 215 l 331 215 q 471 273 424 215 q 518 433 518 331 q 467 580 518 522 q 322 638 415 638 q 169 579 225 638 m 121 451 q 142 378 121 404 q 197 351 163 351 q 249 374 228 351 q 269 433 269 397 q 249 500 269 474 q 196 526 228 526 q 142 503 164 526 q 121 451 121 481 m 771 296 q 853 213 793 213 q 890 237 875 213 q 906 297 906 261 q 888 356 906 333 q 840 378 869 378 q 771 296 775 378 z "},"வ":{"ha":1185,"x_min":92,"x_max":1060,"o":"m 439 340 q 466 312 439 340 q 493 193 493 283 q 441 44 493 103 q 310 -14 389 -14 q 149 76 207 -14 q 92 319 92 167 q 182 603 92 497 q 421 708 272 708 q 656 606 572 708 q 739 344 739 503 q 717 188 739 268 q 663 68 694 108 l 974 68 l 974 694 l 1060 694 l 1060 0 l 540 0 l 540 68 l 581 68 q 633 181 613 103 q 653 344 653 258 q 591 558 653 479 q 421 638 529 638 q 252 556 318 638 q 179 346 186 474 q 299 397 226 397 q 439 340 385 397 m 182 246 q 310 54 200 54 q 380 93 353 54 q 407 193 407 132 q 377 292 407 253 q 303 331 347 331 q 229 308 261 331 q 182 246 197 285 z "},"௷":{"ha":1775,"x_min":92,"x_max":1664,"o":"m 1664 550 l 1664 0 l 1271 0 l 1271 68 l 1317 68 q 1372 256 1372 128 q 1315 426 1372 360 q 1165 493 1257 493 q 990 401 1056 493 q 1160 324 1099 388 q 1222 168 1222 261 q 1175 38 1222 89 q 1053 -14 1128 -14 q 910 55 967 -14 q 853 228 853 124 q 868 338 853 285 l 713 338 l 713 0 l 625 0 l 625 626 l 461 626 q 263 549 338 626 q 181 346 188 472 q 299 397 228 397 q 440 340 385 397 q 494 193 494 283 q 442 44 494 103 q 311 -14 390 -14 q 150 77 208 -14 q 92 319 92 168 q 192 590 92 486 q 461 694 293 694 l 847 694 l 847 626 l 713 626 l 713 406 l 897 406 q 1008 519 938 478 q 1165 561 1078 561 q 1376 475 1294 561 q 1458 256 1458 389 q 1410 68 1458 150 l 1578 68 l 1578 550 l 1664 550 m 957 336 q 939 228 939 285 q 971 102 939 150 q 1053 54 1003 54 q 1112 86 1089 54 q 1135 168 1135 118 q 1088 281 1135 236 q 957 336 1040 326 m 183 244 q 311 54 204 54 q 380 93 353 54 q 407 193 407 132 q 377 292 407 253 q 303 331 347 331 q 183 244 215 331 z "},"௵":{"ha":2371,"x_min":92,"x_max":2343,"o":"m 2017 582 q 2050 460 2017 507 q 2136 414 2083 414 q 2224 465 2192 414 q 2257 601 2257 517 l 2343 601 q 2288 414 2343 485 q 2138 343 2232 343 q 1988 409 2046 343 q 1931 582 1931 475 l 1931 599 q 1731 824 1931 739 q 1189 908 1531 908 q 445 742 713 908 q 178 294 178 576 q 411 -138 178 26 q 1033 -303 644 -303 q 1426 -249 1253 -303 q 1699 -94 1600 -194 q 1797 135 1797 6 q 1741 299 1797 235 q 1589 369 1685 363 l 1589 0 l 1503 0 l 1503 625 l 1293 625 l 1293 0 l 850 0 l 850 68 l 890 68 q 942 179 922 101 q 963 344 963 257 q 901 558 963 479 q 731 638 839 638 q 562 556 628 638 q 489 346 496 474 q 608 397 536 397 q 749 340 694 397 q 803 192 803 282 q 751 44 803 103 q 619 -14 699 -14 q 459 76 517 -14 q 401 319 401 167 q 492 603 401 497 q 731 708 582 708 q 965 606 881 708 q 1049 344 1049 503 q 1026 187 1049 267 q 972 68 1004 107 l 1207 68 l 1207 693 l 1753 693 l 1753 625 l 1589 625 l 1589 442 q 1803 353 1722 436 q 1883 138 1883 269 q 1645 -231 1883 -90 q 1031 -371 1407 -371 q 347 -187 601 -371 q 92 300 92 -3 q 374 796 92 613 q 1176 979 656 979 q 1793 876 1569 979 q 2017 599 2017 772 l 2017 582 m 492 246 q 619 54 510 54 q 690 93 663 54 q 717 192 717 132 q 687 290 717 251 q 613 329 657 329 q 492 246 524 329 z "},"்":{"ha":0,"x_min":-72,"x_max":69,"o":"m -51 827 q -62 837 -51 827 q -72 878 -72 847 q -51 928 -72 908 q 0 949 -31 949 q 50 928 31 949 q 69 878 69 908 q 50 827 69 847 q 0 807 31 807 q -51 827 -31 807 z "},"ஃ":{"ha":906,"x_min":83,"x_max":822,"o":"m 663 67 q 724 90 700 67 q 749 151 749 114 q 724 212 749 188 q 663 236 700 236 q 599 212 624 236 q 574 151 574 188 q 599 91 574 115 q 663 67 624 67 m 663 -1 q 548 42 593 -1 q 503 151 503 86 q 548 260 503 218 q 663 303 593 303 q 777 260 732 303 q 822 151 822 218 q 776 42 822 86 q 663 -1 731 -1 m 178 91 q 191 79 178 91 q 242 67 204 67 q 303 90 279 67 q 328 151 328 114 q 303 212 328 188 q 242 236 279 236 q 178 212 204 236 q 153 151 153 188 q 178 91 153 115 m 242 -1 q 128 42 172 -1 q 83 151 83 85 q 128 260 83 218 q 242 303 172 303 q 356 260 311 303 q 401 151 401 218 q 356 42 401 86 q 242 -1 310 -1 m 456 467 q 517 490 493 467 q 542 551 542 514 q 517 612 542 588 q 456 636 493 636 q 392 612 417 636 q 367 551 367 588 q 392 491 367 515 q 456 467 417 467 m 456 399 q 341 442 386 399 q 296 551 296 486 q 341 661 296 618 q 456 704 386 704 q 570 661 525 704 q 615 551 615 618 q 569 442 615 486 q 456 399 524 399 z "},"ா":{"ha":756,"x_min":125,"x_max":700,"o":"m 125 693 l 700 693 l 700 625 l 536 625 l 536 0 l 450 0 l 450 625 l 211 625 l 211 0 l 125 0 l 125 693 z "},"ை":{"ha":1375,"x_min":78,"x_max":1297,"o":"m 1058 -14 l 1058 57 q 1168 142 1125 57 q 1211 358 1211 226 q 1146 562 1211 486 q 965 638 1081 638 q 819 603 883 638 q 960 256 960 475 q 905 61 960 136 q 760 -14 850 -14 q 615 60 669 -14 q 561 256 561 135 q 694 600 561 471 q 526 638 624 638 q 285 559 382 638 q 169 349 188 481 q 285 397 218 397 q 425 340 371 397 q 479 193 479 283 q 427 44 479 103 q 296 -14 375 -14 q 137 72 196 -14 q 78 290 78 157 q 202 594 78 479 q 526 708 326 708 q 756 649 651 708 q 965 708 850 708 q 1208 612 1118 708 q 1297 358 1297 515 q 1230 90 1297 194 q 1058 -14 1163 -14 m 167 243 q 207 106 174 157 q 296 54 240 54 q 366 93 339 54 q 393 193 393 132 q 363 292 393 253 q 289 331 333 331 q 215 307 247 331 q 167 243 182 283 m 757 557 q 647 256 647 454 q 677 111 647 165 q 760 57 707 57 q 842 111 813 57 q 872 256 872 165 q 757 557 872 454 z "},"ௌ":{"ha":3018,"x_min":78,"x_max":2943,"o":"m 438 -14 q 178 125 279 -14 q 78 493 78 264 q 185 874 78 729 q 469 1019 292 1019 q 744 889 638 1019 q 850 547 850 758 l 850 0 l 764 0 l 764 547 q 682 838 764 726 q 469 949 600 949 q 249 822 332 949 q 165 490 165 696 q 242 175 165 294 q 240 199 240 182 q 297 341 240 285 q 443 397 353 397 q 589 341 533 397 q 644 192 644 285 q 593 45 644 104 q 438 -14 542 -14 m 2943 626 l 2779 626 l 2779 0 l 2693 0 l 2693 626 l 2565 626 q 2467 592 2496 626 q 2438 488 2438 557 l 2438 0 l 2351 0 l 2351 346 l 2351 435 q 2297 581 2351 524 q 2157 638 2243 638 q 1995 556 2060 638 q 1924 346 1931 474 q 2043 397 1971 397 q 2183 340 2129 397 q 2238 193 2238 283 q 2185 44 2238 103 q 2054 -14 2133 -14 q 1894 77 1953 -14 q 1836 319 1836 168 q 1924 603 1836 497 q 2157 708 2013 708 q 2374 600 2297 708 q 2565 694 2422 694 l 2943 694 l 2943 626 m 1394 47 q 1578 106 1500 47 q 1594 85 1582 100 q 1614 61 1607 71 q 1518 7 1561 26 q 1394 -14 1447 -14 l 1383 -14 q 1368 -12 1369 -14 l 1371 47 l 1385 47 l 1394 47 m 1146 179 q 1322 56 1213 82 l 1307 -4 q 1185 53 1243 14 l 1186 53 q 1094 146 1135 88 l 1146 179 m 1756 340 q 1656 97 1751 200 l 1614 140 q 1694 340 1692 222 l 1756 340 m 1094 210 l 1067 194 q 1033 347 1033 269 q 1051 457 1033 401 l 1107 436 q 1094 347 1094 392 q 1124 224 1094 290 q 1094 210 1106 217 m 1690 389 q 1588 578 1678 504 l 1607 603 l 1626 626 q 1710 524 1685 571 q 1753 397 1736 478 l 1690 389 m 1286 628 q 1128 483 1179 588 l 1072 513 q 1149 613 1099 568 q 1267 683 1200 658 l 1286 628 m 1322 703 q 1394 710 1367 710 q 1581 660 1493 710 l 1547 607 q 1394 646 1479 646 q 1335 640 1364 646 l 1322 703 m 385 61 q 435 54 413 54 q 527 91 496 54 q 558 190 558 128 q 527 292 558 254 q 443 331 496 331 q 360 292 392 331 q 328 193 328 254 q 385 61 328 103 m 1928 244 q 2054 54 1949 54 q 2124 93 2097 54 q 2151 193 2151 132 q 2122 292 2151 253 q 2047 331 2092 331 q 1928 244 1960 331 z "},"ெ":{"ha":956,"x_min":78,"x_max":850,"o":"m 438 -14 q 178 125 279 -14 q 78 493 78 264 q 185 874 78 729 q 469 1019 292 1019 q 744 889 638 1019 q 850 547 850 758 l 850 0 l 764 0 l 764 547 q 682 838 764 726 q 469 949 600 949 q 249 822 332 949 q 165 490 165 696 q 242 175 165 294 q 240 199 240 182 q 297 341 240 285 q 443 397 353 397 q 589 341 533 397 q 644 192 644 285 q 593 45 644 104 q 438 -14 542 -14 m 385 61 q 435 54 413 54 q 527 91 496 54 q 558 190 558 128 q 527 292 558 254 q 443 331 496 331 q 360 292 392 331 q 328 193 328 254 q 385 61 328 103 z "},"ே":{"ha":874,"x_min":78,"x_max":804,"o":"m 718 200 q 692 294 718 258 q 619 331 667 331 q 544 296 574 331 q 514 207 514 261 q 535 110 514 151 q 593 58 557 69 q 684 108 650 69 q 718 200 718 147 m 594 947 q 536 896 558 936 q 514 799 514 856 q 544 710 514 744 q 619 675 574 675 q 692 710 667 675 q 718 804 718 746 q 686 898 718 860 q 594 947 654 936 m 489 947 q 253 806 340 926 q 165 503 165 686 q 253 200 165 319 q 489 58 340 81 q 436 207 436 118 q 488 343 436 289 q 619 397 539 397 q 754 342 704 397 q 804 200 804 288 q 732 47 804 107 q 549 -14 660 -14 q 208 128 338 -14 q 78 501 78 269 q 208 877 78 735 q 549 1019 338 1019 q 736 960 668 1019 q 804 804 804 900 q 754 662 804 717 q 619 607 704 607 q 488 661 539 607 q 436 799 436 715 q 489 947 436 890 z "},"ி":{"ha":283,"x_min":-329,"x_max":186,"o":"m 186 0 l 100 0 l 100 636 q -115 901 100 901 q -204 867 -165 901 q -243 782 -243 832 q -222 719 -243 744 q -168 693 -200 693 l -168 636 q -284 677 -239 636 q -329 782 -329 718 q -266 917 -329 863 q -115 972 -203 972 q 108 884 32 972 q 186 636 183 796 l 186 0 z "},"ீ":{"ha":0,"x_min":-428,"x_max":94,"o":"m -135 1057 q -285 1006 -228 1054 q -342 876 -342 958 q -294 744 -342 796 q -160 693 -246 693 l -160 628 q -356 699 -283 628 q -428 876 -428 769 q -346 1058 -428 990 q -128 1126 -264 1126 q 32 1075 -31 1126 q 94 944 94 1024 q 55 839 94 881 q -46 797 15 797 q -152 838 -110 797 q -194 938 -194 879 q -135 1057 -194 1015 m -40 1038 q -98 1004 -76 1031 q -119 938 -119 978 q -98 883 -119 907 q -46 858 -76 858 q 3 883 -17 858 q 22 944 22 907 q -40 1038 22 1006 z "},"ொ":{"ha":2486,"x_min":78,"x_max":2389,"o":"m 438 -14 q 178 125 279 -14 q 78 493 78 264 q 185 874 78 729 q 469 1019 292 1019 q 744 889 638 1019 q 850 547 850 758 l 850 0 l 764 0 l 764 547 q 682 838 764 726 q 469 949 600 949 q 249 822 332 949 q 165 490 165 696 q 242 175 165 294 q 240 199 240 182 q 297 341 240 285 q 443 397 353 397 q 589 341 533 397 q 644 192 644 285 q 593 45 644 104 q 438 -14 542 -14 m 1814 694 l 2389 694 l 2389 626 l 2225 626 l 2225 0 l 2139 0 l 2139 626 l 1900 626 l 1900 0 l 1814 0 l 1814 694 m 1389 47 q 1572 106 1494 47 q 1608 61 1586 89 q 1513 7 1564 31 q 1389 -14 1442 -14 l 1378 -14 q 1364 -12 1365 -14 l 1367 47 l 1379 47 l 1389 47 m 1140 179 q 1317 56 1210 82 l 1301 -4 q 1181 53 1239 14 l 1182 53 q 1089 146 1128 90 l 1140 179 m 1750 340 q 1651 97 1746 200 l 1608 140 q 1690 340 1688 224 l 1750 340 m 1089 210 l 1061 194 q 1028 347 1028 275 q 1046 457 1028 401 l 1101 436 q 1089 347 1089 392 q 1118 224 1089 290 q 1089 210 1100 217 m 1686 389 q 1583 578 1671 504 l 1601 603 l 1621 626 q 1706 524 1681 571 q 1747 397 1732 476 l 1686 389 m 1281 628 q 1122 483 1174 588 l 1067 513 q 1144 613 1093 568 q 1261 683 1194 658 l 1281 628 m 1317 703 q 1389 710 1361 710 q 1575 660 1488 710 l 1543 607 q 1389 646 1474 646 q 1331 640 1358 646 l 1317 703 m 385 61 q 435 54 413 54 q 527 91 496 54 q 558 190 558 128 q 527 292 558 254 q 443 331 496 331 q 360 292 392 331 q 328 193 328 254 q 385 61 328 103 z "},"ோ":{"ha":2428,"x_min":78,"x_max":2331,"o":"m 718 200 q 692 294 718 258 q 619 331 667 331 q 544 296 574 331 q 514 207 514 261 q 535 110 514 151 q 593 58 557 69 q 684 108 650 69 q 718 200 718 147 m 1756 694 l 2331 694 l 2331 626 l 2167 626 l 2167 0 l 2081 0 l 2081 626 l 1842 626 l 1842 0 l 1756 0 l 1756 694 m 1274 47 q 1457 106 1381 47 q 1493 61 1471 89 q 1397 7 1449 31 q 1274 -14 1326 -14 l 1263 -14 q 1249 -12 1250 -14 l 1251 47 l 1264 47 l 1274 47 m 1025 179 q 1201 56 1094 82 l 1186 -4 q 1065 53 1124 14 l 1067 53 q 974 146 1013 90 l 1025 179 m 1635 340 q 1536 97 1631 200 l 1493 140 q 1575 340 1572 224 l 1635 340 m 974 210 l 946 194 q 913 347 913 275 q 931 457 913 401 l 986 436 q 974 347 974 392 q 1003 224 974 290 q 974 210 985 217 m 1571 389 q 1468 578 1556 504 l 1486 603 l 1506 626 q 1591 524 1565 571 q 1632 397 1617 476 l 1571 389 m 1165 628 q 1007 483 1058 588 l 951 513 q 1028 613 978 568 q 1146 683 1079 658 l 1165 628 m 1201 703 q 1274 710 1246 710 q 1460 660 1372 710 l 1428 607 q 1274 646 1358 646 q 1215 640 1243 646 l 1201 703 m 594 947 q 536 896 558 936 q 514 799 514 856 q 544 710 514 744 q 619 675 574 675 q 692 710 667 675 q 718 804 718 746 q 686 898 718 860 q 594 947 654 936 m 489 947 q 253 806 340 926 q 165 503 165 686 q 253 200 165 319 q 489 58 340 81 q 436 207 436 118 q 488 343 436 289 q 619 397 539 397 q 754 342 704 397 q 804 200 804 288 q 732 47 804 107 q 549 -14 660 -14 q 208 128 338 -14 q 78 501 78 269 q 208 877 78 735 q 549 1019 338 1019 q 736 960 668 1019 q 804 804 804 900 q 754 662 804 717 q 619 607 704 607 q 488 661 539 607 q 436 799 436 715 q 489 947 436 890 z "},"ு":{"ha":488,"x_min":-243,"x_max":447,"o":"m 144 626 q 174 490 144 539 q 261 440 203 440 q 361 626 361 440 l 144 626 m -243 626 l -243 694 l 447 694 l 447 626 q 399 439 447 508 q 261 369 350 369 q 111 440 165 369 q 57 626 57 510 l -243 626 z "},"ூ":{"ha":800,"x_min":-237,"x_max":744,"o":"m 68 693 q 176 906 88 828 q 407 985 264 985 q 655 886 565 985 q 744 625 744 788 q 649 334 744 443 q 388 225 554 225 l 156 225 l 156 293 l 388 293 q 588 383 517 293 q 658 625 658 472 q 592 835 658 757 q 407 914 526 914 q 237 855 301 914 q 156 693 172 796 l 453 693 l 453 625 q 404 438 453 507 q 267 368 356 368 q 117 438 171 368 q 63 625 63 508 l -237 625 l -237 693 l 68 693 m 150 625 q 179 488 150 538 q 267 439 208 439 q 367 625 367 439 l 150 625 z "},"ய":{"ha":935,"x_min":119,"x_max":810,"o":"m 724 68 l 724 694 l 810 694 l 810 0 l 613 0 q 449 57 503 0 q 306 -14 400 -14 q 169 45 218 -14 q 119 203 119 104 l 119 694 l 207 694 l 207 203 q 306 57 207 57 q 399 201 399 57 l 399 322 l 399 694 l 485 694 l 485 322 l 485 207 q 514 103 485 138 q 613 68 543 68 l 724 68 z "},"௦":{"ha":761,"x_min":92,"x_max":669,"o":"m 235 138 q 263 97 235 138 q 381 57 292 57 q 526 138 469 57 q 583 347 583 218 q 526 557 583 476 q 381 638 469 638 q 235 557 292 638 q 178 347 178 476 q 235 138 178 218 m 169 605 q 208 657 169 605 q 381 708 247 708 q 592 605 514 708 q 669 347 669 501 q 592 90 669 193 q 381 -14 514 -14 q 169 90 247 -14 q 92 347 92 193 q 169 605 92 501 z "},"™":{"ha":1190,"x_min":75,"x_max":1107,"o":"m 604 397 l 604 943 l 697 943 l 857 565 q 1022 943 917 707 l 1107 943 l 1107 397 l 1040 397 l 1040 817 l 883 471 l 825 471 l 674 818 l 674 397 l 604 397 m 75 883 l 75 943 l 488 943 l 488 883 l 317 883 l 317 397 l 244 397 l 244 883 l 75 883 z "},"²":{"ha":793,"x_min":235,"x_max":554,"o":"m 554 501 l 249 501 q 311 626 250 568 q 424 724 335 649 q 483 815 483 774 l 483 818 q 460 878 483 856 q 399 900 436 900 q 331 878 360 900 q 293 819 301 856 l 279 825 q 235 849 246 840 q 299 932 254 903 q 399 961 343 961 q 508 923 463 961 q 553 822 553 885 q 494 696 553 747 q 442 653 453 660 q 342 553 368 596 l 554 553 l 554 501 z "},"u":{"ha":721,"x_min":78,"x_max":615,"o":"m 524 660 l 615 660 l 615 0 l 526 0 l 526 124 q 436 22 501 58 q 296 -15 371 -15 q 164 21 211 -15 q 100 110 119 53 q 79 224 82 163 q 78 281 78 240 l 78 660 l 169 660 l 169 261 q 202 106 169 157 q 311 56 235 56 q 460 114 404 56 q 519 226 507 161 q 524 281 524 253 l 524 660 z "},"ú":{"ha":721,"x_min":78,"x_max":615,"o":"m 449 965 l 574 965 l 376 757 l 317 757 l 449 965 m 524 660 l 615 660 l 615 0 l 526 0 l 526 124 q 436 22 501 58 q 296 -15 371 -15 q 164 21 211 -15 q 100 110 119 53 q 79 224 82 163 q 78 281 78 240 l 78 660 l 169 660 l 169 261 q 202 106 169 157 q 311 56 235 56 q 460 114 404 56 q 519 226 507 161 q 524 281 524 253 l 524 660 z "},"ŭ":{"ha":721,"x_min":78,"x_max":615,"o":"m 243 921 q 270 849 243 874 q 346 824 297 824 q 422 849 394 824 q 449 921 449 874 l 524 921 q 472 801 522 846 q 347 757 421 757 q 222 801 272 757 q 169 921 171 846 l 243 921 m 524 660 l 615 660 l 615 0 l 526 0 l 526 124 q 436 22 501 58 q 296 -15 371 -15 q 164 21 211 -15 q 100 110 119 53 q 79 224 82 163 q 78 281 78 240 l 78 660 l 169 660 l 169 261 q 202 106 169 157 q 311 56 235 56 q 460 114 404 56 q 519 226 507 161 q 524 281 524 253 l 524 660 z "},"û":{"ha":721,"x_min":78,"x_max":615,"o":"m 285 965 l 410 965 l 522 757 l 463 757 l 347 899 l 231 757 l 171 757 l 285 965 m 524 660 l 615 660 l 615 0 l 526 0 l 526 124 q 436 22 501 58 q 296 -15 371 -15 q 164 21 211 -15 q 100 110 119 53 q 79 224 82 163 q 78 281 78 240 l 78 660 l 169 660 l 169 261 q 202 106 169 157 q 311 56 235 56 q 460 114 404 56 q 519 226 507 161 q 524 281 524 253 l 524 660 z "},"ü":{"ha":721,"x_min":78,"x_max":615,"o":"m 171 869 l 278 869 l 278 757 l 171 757 l 171 869 m 521 869 l 521 757 l 414 757 l 414 869 l 521 869 m 524 660 l 615 660 l 615 0 l 526 0 l 526 124 q 436 22 501 58 q 296 -15 371 -15 q 164 21 211 -15 q 100 110 119 53 q 79 224 82 163 q 78 281 78 240 l 78 660 l 169 660 l 169 261 q 202 106 169 157 q 311 56 235 56 q 460 114 404 56 q 519 226 507 161 q 524 281 524 253 l 524 660 z "},"ù":{"ha":721,"x_min":78,"x_max":615,"o":"m 119 965 l 244 965 l 376 758 l 315 757 l 119 965 m 524 660 l 615 660 l 615 0 l 526 0 l 526 124 q 436 22 501 58 q 296 -15 371 -15 q 164 21 211 -15 q 100 110 119 53 q 79 224 82 163 q 78 281 78 240 l 78 660 l 169 660 l 169 261 q 202 106 169 157 q 311 56 235 56 q 460 114 404 56 q 519 226 507 161 q 524 281 524 253 l 524 660 z "},"ű":{"ha":721,"x_min":78,"x_max":621,"o":"m 496 965 l 621 965 l 457 757 l 408 757 l 496 965 m 304 965 l 426 965 l 279 757 l 236 757 l 304 965 m 524 660 l 615 660 l 615 0 l 526 0 l 526 124 q 436 22 501 58 q 296 -15 371 -15 q 164 21 211 -15 q 100 110 119 53 q 79 224 82 163 q 78 281 78 240 l 78 660 l 169 660 l 169 261 q 202 106 169 157 q 311 56 235 56 q 460 114 404 56 q 519 226 507 161 q 524 281 524 253 l 524 660 z "},"ū":{"ha":721,"x_min":78,"x_max":615,"o":"m 200 757 l 200 829 l 493 829 l 493 757 l 200 757 m 524 660 l 615 660 l 615 0 l 526 0 l 526 124 q 436 22 501 58 q 296 -15 371 -15 q 164 21 211 -15 q 100 110 119 53 q 79 224 82 163 q 78 281 78 240 l 78 660 l 169 660 l 169 261 q 202 106 169 157 q 311 56 235 56 q 460 114 404 56 q 519 226 507 161 q 524 281 524 253 l 524 660 z "},"_":{"ha":561,"x_min":64,"x_max":483,"o":"m 64 0 l 483 0 l 483 -64 l 64 -64 l 64 0 z "}," ":{"ha":319,"x_min":0,"x_max":0,"o":""},"Ģ":{"ha":885,"x_min":74,"x_max":804,"o":"m 388 -207 l 388 -99 l 515 -99 l 515 -201 q 491 -305 515 -256 q 444 -354 467 -354 l 414 -340 q 458 -207 457 -308 l 388 -207 m 797 742 l 718 706 q 472 885 651 885 q 244 782 317 885 q 172 464 172 679 q 236 167 172 265 q 463 60 301 60 q 628 115 551 60 q 711 286 711 178 l 711 428 l 471 428 l 471 508 l 804 508 l 804 375 l 797 0 l 738 0 l 717 122 q 608 23 679 61 q 451 -15 536 -15 q 74 465 74 -15 q 183 847 74 725 q 474 961 288 961 q 671 905 586 961 q 797 742 756 849 z "},"ģ":{"ha":694,"x_min":61,"x_max":613,"o":"m 106 -172 l 160 -121 q 344 -206 211 -206 q 526 18 526 -206 l 526 83 q 328 -15 451 -15 q 131 81 201 -15 q 61 339 61 176 q 179 629 61 542 q 324 674 240 674 q 535 574 451 674 l 540 660 l 613 660 l 613 13 q 540 -197 613 -118 q 339 -276 468 -276 q 106 -172 168 -276 m 526 350 q 481 536 526 476 q 383 600 442 588 q 333 606 361 606 q 194 524 240 606 q 151 342 151 450 q 199 128 151 204 q 331 53 247 53 q 438 83 390 53 q 514 211 490 117 q 526 329 526 261 l 526 350 m 418 765 l 290 765 l 290 821 q 309 983 294 932 q 378 1071 324 1033 l 410 1031 q 375 979 390 1015 q 358 896 360 943 l 418 889 l 418 765 z "},"Ķ":{"ha":806,"x_min":94,"x_max":801,"o":"m 385 -192 l 385 -83 l 513 -83 l 513 -186 q 488 -290 513 -240 q 442 -339 464 -339 l 411 -325 q 456 -192 454 -293 l 385 -192 m 760 944 l 429 596 l 801 0 l 694 0 l 361 533 l 190 356 l 190 0 l 94 0 l 94 944 l 190 944 l 190 467 l 647 944 l 760 944 z "},"ķ":{"ha":649,"x_min":83,"x_max":656,"o":"m 306 -192 l 306 -83 l 433 -83 l 433 -186 q 409 -290 433 -240 q 363 -339 385 -339 l 332 -325 q 376 -192 375 -293 l 306 -192 m 514 660 l 618 660 l 372 419 l 656 0 l 553 0 l 313 364 l 175 238 l 175 0 l 83 0 l 83 951 l 174 951 l 174 331 l 514 660 z "},"Ļ":{"ha":657,"x_min":94,"x_max":671,"o":"m 318 -192 l 318 -83 l 446 -83 l 446 -186 q 422 -290 446 -240 q 375 -339 397 -339 l 344 -325 q 389 -192 388 -293 l 318 -192 m 671 0 l 94 0 l 94 943 l 190 943 l 190 72 l 671 72 l 671 0 z "},"ļ":{"ha":271,"x_min":68,"x_max":196,"o":"m 68 -192 l 68 -83 l 196 -83 l 196 -186 q 172 -290 196 -240 q 125 -339 147 -339 l 94 -325 q 139 -192 138 -293 l 68 -192 m 86 0 l 86 950 l 178 950 l 178 0 l 86 0 z "},"Ņ":{"ha":961,"x_min":94,"x_max":865,"o":"m 415 -192 l 415 -83 l 543 -83 l 543 -186 q 519 -290 543 -240 q 472 -339 494 -339 l 442 -325 q 486 -192 485 -293 l 415 -192 m 94 0 l 94 943 l 200 943 l 782 143 l 782 396 l 782 943 l 865 943 l 865 0 l 779 0 l 181 831 l 181 564 l 181 0 l 94 0 z "},"ņ":{"ha":700,"x_min":82,"x_max":621,"o":"m 288 -192 l 288 -83 l 415 -83 l 415 -186 q 391 -290 415 -240 q 344 -339 367 -339 l 314 -325 q 358 -192 357 -293 l 288 -192 m 82 0 l 82 660 l 171 660 l 171 639 l 171 599 l 171 553 l 171 535 q 268 642 197 606 q 401 674 335 674 q 524 644 476 674 q 590 574 572 614 q 618 478 611 525 q 621 428 621 439 l 621 376 l 621 0 l 531 0 l 531 388 q 514 519 531 465 q 447 589 496 571 q 388 599 424 599 q 240 547 292 599 q 179 411 196 503 q 172 322 172 367 l 172 0 l 82 0 z "},"Ŗ":{"ha":829,"x_min":94,"x_max":797,"o":"m 382 -192 l 382 -83 l 510 -83 l 510 -186 q 485 -290 510 -240 q 439 -339 461 -339 l 408 -325 q 453 -192 451 -293 l 382 -192 m 189 874 l 189 507 l 414 507 q 569 525 510 507 q 671 610 643 547 q 686 692 686 647 q 635 828 686 782 q 508 871 597 863 q 431 874 467 874 l 189 874 m 578 447 l 797 0 l 697 0 l 483 435 l 189 435 l 189 0 l 94 0 l 94 943 l 436 943 q 701 883 619 943 q 782 693 782 824 q 578 447 782 503 z "},"ŗ":{"ha":376,"x_min":61,"x_max":364,"o":"m 61 -192 l 61 -83 l 189 -83 l 189 -186 q 165 -290 189 -240 q 118 -339 140 -339 l 88 -325 q 132 -192 131 -293 l 61 -192 m 168 660 l 168 536 q 219 608 186 578 q 290 650 253 639 q 364 660 324 660 l 364 576 q 213 504 257 576 q 171 343 171 439 l 171 0 l 79 0 l 79 660 l 168 660 z "},"Ǆ":{"ha":1660,"x_min":31,"x_max":1586,"o":"m 469 1044 l 344 1044 l 251 1253 l 310 1253 l 408 1104 l 504 1253 l 564 1253 l 469 1044 m 83 874 l 83 943 l 732 943 l 732 890 l 146 68 l 735 68 l 731 0 l 31 0 l 31 64 l 608 874 l 83 874 m 851 943 l 1176 943 q 1482 840 1379 943 q 1586 475 1586 735 q 1407 47 1586 139 q 1172 0 1318 0 l 851 0 l 851 943 m 947 869 l 947 74 l 1142 74 q 1418 167 1340 74 q 1494 475 1494 261 q 1429 767 1494 669 q 1178 869 1361 869 l 947 869 z "},"ǅ":{"ha":1469,"x_min":42,"x_max":1396,"o":"m 661 943 l 986 943 q 1292 840 1189 943 q 1396 475 1396 735 q 1217 47 1396 139 q 982 0 1128 0 l 661 0 l 661 943 m 757 869 l 757 74 l 951 74 q 1228 167 1150 74 q 1304 475 1304 261 q 1239 767 1304 669 q 988 869 1171 869 l 757 869 z "},"Ǉ":{"ha":1272,"x_min":13,"x_max":1286,"o":"m 97 238 q 158 103 119 146 q 269 60 197 60 q 381 103 344 60 q 425 208 417 144 q 435 349 435 276 l 435 943 l 526 943 l 526 351 q 466 71 526 157 q 261 -15 406 -15 q 13 215 60 -15 l 97 238 m 1286 0 l 710 0 l 710 943 l 806 943 l 806 72 l 1286 72 l 1286 0 z "},"ǈ":{"ha":967,"x_min":-15,"x_max":981,"o":"m 139 800 l 139 915 l 229 915 l 229 800 l 139 800 m 138 660 l 229 660 l 229 -8 q 207 -157 229 -114 q 89 -210 179 -210 q -15 -183 28 -210 l 0 -114 q 76 -135 54 -135 q 138 -58 138 -135 l 138 660 m 981 0 l 404 0 l 404 943 l 500 943 l 500 72 l 981 72 l 981 0 z "},"Ǌ":{"ha":1576,"x_min":13,"x_max":1481,"o":"m 97 238 q 158 103 119 146 q 269 60 197 60 q 381 103 344 60 q 425 208 417 144 q 435 349 435 276 l 435 943 l 526 943 l 526 351 q 466 71 526 157 q 261 -15 406 -15 q 13 215 60 -15 l 97 238 m 710 0 l 710 943 l 815 943 l 1397 143 l 1397 396 l 1397 943 l 1481 943 l 1481 0 l 1394 0 l 796 831 l 796 564 l 796 0 l 710 0 z "},"ǋ":{"ha":1271,"x_min":-15,"x_max":1175,"o":"m 139 800 l 139 915 l 229 915 l 229 800 l 139 800 m 138 660 l 229 660 l 229 -8 q 207 -157 229 -114 q 89 -210 179 -210 q -15 -183 28 -210 l 0 -114 q 76 -135 54 -135 q 138 -58 138 -135 l 138 660 m 404 0 l 404 943 l 510 943 l 1092 143 l 1092 396 l 1092 943 l 1175 943 l 1175 0 l 1089 0 l 490 831 l 490 564 l 490 0 l 404 0 z "},"Ǳ":{"ha":1660,"x_min":31,"x_max":1586,"o":"m 83 874 l 83 943 l 732 943 l 732 890 l 146 68 l 735 68 l 731 0 l 31 0 l 31 64 l 608 874 l 83 874 m 851 943 l 1176 943 q 1482 840 1379 943 q 1586 475 1586 735 q 1407 47 1586 139 q 1172 0 1318 0 l 851 0 l 851 943 m 947 869 l 947 74 l 1142 74 q 1418 167 1340 74 q 1494 475 1494 261 q 1429 767 1494 669 q 1178 869 1361 869 l 947 869 z "},"ǲ":{"ha":1469,"x_min":42,"x_max":1396,"o":"m 56 593 l 56 660 l 539 660 l 539 597 l 146 65 l 538 65 l 538 0 l 42 0 l 42 61 l 431 593 l 56 593 m 661 943 l 986 943 q 1292 840 1189 943 q 1396 475 1396 735 q 1217 47 1396 139 q 982 0 1128 0 l 661 0 l 661 943 m 757 869 l 757 74 l 951 74 q 1228 167 1150 74 q 1304 475 1304 261 q 1239 767 1304 669 q 988 869 1171 869 l 757 869 z "},"Ǵ":{"ha":885,"x_min":74,"x_max":804,"o":"m 575 1253 l 700 1253 l 503 1044 l 443 1044 l 575 1253 m 797 742 l 718 706 q 472 885 651 885 q 244 782 317 885 q 172 464 172 679 q 236 167 172 265 q 463 60 301 60 q 628 115 551 60 q 711 286 711 178 l 711 428 l 471 428 l 471 508 l 804 508 l 804 375 l 797 0 l 738 0 l 717 122 q 608 23 679 61 q 451 -15 536 -15 q 74 465 74 -15 q 183 847 74 725 q 474 961 288 961 q 671 905 586 961 q 797 742 756 849 z "},"ǵ":{"ha":694,"x_min":61,"x_max":613,"o":"m 425 965 l 550 965 l 353 757 l 293 757 l 425 965 m 106 -172 l 160 -121 q 344 -206 211 -206 q 526 18 526 -206 l 526 83 q 328 -15 451 -15 q 131 81 201 -15 q 61 339 61 176 q 179 629 61 542 q 324 674 240 674 q 535 574 451 674 l 540 660 l 613 660 l 613 13 q 540 -197 613 -118 q 339 -276 468 -276 q 106 -172 168 -276 m 526 350 q 481 536 526 476 q 383 600 442 588 q 333 606 361 606 q 194 524 240 606 q 151 342 151 450 q 199 128 151 204 q 331 53 247 53 q 438 83 390 53 q 514 211 490 117 q 526 329 526 261 l 526 350 z "},"Ȁ":{"ha":785,"x_min":17,"x_max":768,"o":"m 315 1253 l 432 1253 l 513 1044 l 468 1044 l 315 1253 m 122 1253 l 240 1253 l 321 1044 l 272 1044 l 122 1253 m 357 776 q 325 671 332 697 l 215 328 l 564 328 l 454 671 q 388 878 417 782 q 357 776 375 832 m 17 0 l 331 943 l 454 943 l 768 0 l 672 0 l 585 257 l 193 257 l 111 0 l 17 0 z "},"ȁ":{"ha":657,"x_min":58,"x_max":572,"o":"m 254 965 l 371 965 l 451 757 l 407 757 l 254 965 m 61 965 l 179 965 l 260 757 l 211 757 l 61 965 m 486 75 q 250 -15 375 -15 q 112 31 165 -15 q 58 158 58 76 q 94 268 58 219 q 192 331 118 300 q 332 364 233 346 q 417 378 349 368 l 481 386 l 481 414 q 446 562 481 521 q 325 603 411 603 q 140 519 207 603 q 85 572 140 521 q 331 674 165 674 q 572 435 572 674 l 572 0 l 496 0 l 486 75 m 481 326 l 417 315 q 268 288 313 297 q 176 244 211 272 q 144 171 144 219 q 267 47 144 47 q 481 142 369 47 l 481 326 z "},"Ȃ":{"ha":785,"x_min":17,"x_max":768,"o":"m 494 1044 q 465 1114 493 1089 q 393 1139 436 1139 q 320 1114 350 1139 q 289 1044 290 1089 l 215 1044 q 267 1164 217 1119 q 393 1208 318 1208 q 517 1164 467 1208 q 569 1044 568 1119 l 494 1044 m 357 776 q 325 671 332 697 l 215 328 l 564 328 l 454 671 q 388 878 417 782 q 357 776 375 832 m 17 0 l 331 943 l 454 943 l 768 0 l 672 0 l 585 257 l 193 257 l 111 0 l 17 0 z "},"ȃ":{"ha":657,"x_min":58,"x_max":572,"o":"m 433 757 q 403 826 432 801 q 332 851 375 851 q 259 826 289 851 q 228 757 229 801 l 154 757 q 206 876 156 832 q 332 921 257 921 q 456 876 406 921 q 508 757 507 832 l 433 757 m 486 75 q 250 -15 375 -15 q 112 31 165 -15 q 58 158 58 76 q 94 268 58 219 q 192 331 118 300 q 332 364 233 346 q 417 378 349 368 l 481 386 l 481 414 q 446 562 481 521 q 325 603 411 603 q 140 519 207 603 q 85 572 140 521 q 331 674 165 674 q 572 435 572 674 l 572 0 l 496 0 l 486 75 m 481 326 l 417 315 q 268 288 313 297 q 176 244 211 272 q 144 171 144 219 q 267 47 144 47 q 481 142 369 47 l 481 326 z "},"Ȅ":{"ha":736,"x_min":94,"x_max":726,"o":"m 329 1253 l 446 1253 l 526 1044 l 482 1044 l 329 1253 m 136 1253 l 254 1253 l 335 1044 l 286 1044 l 136 1253 m 726 0 l 94 0 l 94 943 l 719 943 l 719 871 l 190 871 l 190 540 l 650 540 l 650 465 l 190 465 l 190 72 l 726 72 l 726 0 z "},"ȅ":{"ha":661,"x_min":60,"x_max":604,"o":"m 265 965 l 382 965 l 463 757 l 418 757 l 265 965 m 72 965 l 190 965 l 271 757 l 222 757 l 72 965 m 517 385 q 340 606 514 606 q 207 540 251 606 q 154 385 163 479 l 517 385 m 543 583 q 604 363 604 497 q 603 325 604 336 l 153 325 q 197 135 153 207 q 346 53 246 53 q 513 167 475 53 l 583 150 q 531 58 568 97 q 447 3 494 19 q 349 -15 404 -12 l 346 -15 q 126 90 199 -15 q 60 331 60 185 q 135 580 60 486 q 343 674 211 674 q 543 583 478 674 z "},"Ȇ":{"ha":736,"x_min":94,"x_max":726,"o":"m 508 1044 q 478 1114 507 1089 q 407 1139 450 1139 q 334 1114 364 1139 q 303 1044 304 1089 l 229 1044 q 281 1164 231 1119 q 407 1208 332 1208 q 531 1164 481 1208 q 583 1044 582 1119 l 508 1044 m 726 0 l 94 0 l 94 943 l 719 943 l 719 871 l 190 871 l 190 540 l 650 540 l 650 465 l 190 465 l 190 72 l 726 72 l 726 0 z "},"ȇ":{"ha":661,"x_min":60,"x_max":604,"o":"m 444 757 q 415 826 443 801 q 343 851 386 851 q 270 826 300 851 q 239 757 240 801 l 165 757 q 217 876 167 832 q 343 921 268 921 q 467 876 417 921 q 519 757 518 832 l 444 757 m 517 385 q 340 606 514 606 q 207 540 251 606 q 154 385 163 479 l 517 385 m 543 583 q 604 363 604 497 q 603 325 604 336 l 153 325 q 197 135 153 207 q 346 53 246 53 q 513 167 475 53 l 583 150 q 531 58 568 97 q 447 3 494 19 q 349 -15 404 -12 l 346 -15 q 126 90 199 -15 q 60 331 60 185 q 135 580 60 486 q 343 674 211 674 q 543 583 478 674 z "},"Ȉ":{"ha":300,"x_min":-118,"x_max":272,"o":"m 75 1253 l 192 1253 l 272 1044 l 228 1044 l 75 1253 m -118 1253 l 0 1253 l 81 1044 l 32 1044 l -118 1253 m 199 0 l 106 0 l 106 943 l 199 943 l 199 0 z "},"ȉ":{"ha":265,"x_min":-133,"x_max":257,"o":"m 60 965 l 176 965 l 257 757 l 213 757 l 60 965 m -133 965 l -15 965 l 65 757 l 17 757 l -133 965 m 90 0 l 90 660 l 182 660 l 182 0 l 90 0 z "},"Ȋ":{"ha":300,"x_min":-25,"x_max":329,"o":"m 254 1044 q 224 1114 253 1089 q 153 1139 196 1139 q 80 1114 110 1139 q 49 1044 50 1089 l -25 1044 q 27 1164 -24 1119 q 153 1208 78 1208 q 277 1164 226 1208 q 329 1044 328 1119 l 254 1044 m 199 0 l 106 0 l 106 943 l 199 943 l 199 0 z "},"ȋ":{"ha":265,"x_min":-40,"x_max":314,"o":"m 239 757 q 209 826 238 801 q 138 851 181 851 q 65 826 94 851 q 33 757 35 801 l -40 757 q 12 876 -39 832 q 138 921 63 921 q 262 876 211 921 q 314 757 313 832 l 239 757 m 90 0 l 90 660 l 182 660 l 182 0 l 90 0 z "},"Ȍ":{"ha":935,"x_min":74,"x_max":860,"o":"m 388 1253 l 504 1253 l 585 1044 l 540 1044 l 388 1253 m 194 1253 l 313 1253 l 393 1044 l 344 1044 l 194 1253 m 264 814 q 182 617 200 749 q 172 478 172 560 q 240 158 172 257 q 465 60 307 60 q 692 158 625 60 q 760 476 760 256 q 722 728 760 636 q 583 867 676 833 q 465 885 535 885 q 264 814 332 885 m 754 850 q 860 478 860 733 q 761 104 860 224 q 465 -15 663 -15 q 176 97 275 -15 q 74 476 74 213 q 178 850 74 733 q 465 961 276 961 q 754 850 653 961 z "},"ȍ":{"ha":686,"x_min":60,"x_max":626,"o":"m 265 965 l 382 965 l 463 757 l 418 757 l 265 965 m 72 965 l 190 965 l 271 757 l 222 757 l 72 965 m 192 518 q 153 331 153 440 q 178 175 153 242 q 267 69 203 99 q 343 53 300 53 q 475 111 428 53 q 528 249 517 163 q 533 331 533 282 q 508 485 533 415 q 419 590 481 561 q 343 606 382 606 q 192 518 235 606 m 549 584 q 588 539 549 584 q 626 331 626 494 q 551 76 626 167 q 343 -15 475 -15 q 135 75 211 -15 q 60 329 60 165 q 136 584 60 494 q 343 674 213 674 q 549 584 472 674 z "},"Ȏ":{"ha":935,"x_min":74,"x_max":860,"o":"m 567 1044 q 537 1114 565 1089 q 465 1139 508 1139 q 392 1114 422 1139 q 361 1044 363 1089 l 288 1044 q 340 1164 289 1119 q 465 1208 390 1208 q 590 1164 539 1208 q 642 1044 640 1119 l 567 1044 m 264 814 q 182 617 200 749 q 172 478 172 560 q 240 158 172 257 q 465 60 307 60 q 692 158 625 60 q 760 476 760 256 q 722 728 760 636 q 583 867 676 833 q 465 885 535 885 q 264 814 332 885 m 754 850 q 860 478 860 733 q 761 104 860 224 q 465 -15 663 -15 q 176 97 275 -15 q 74 476 74 213 q 178 850 74 733 q 465 961 276 961 q 754 850 653 961 z "},"ȏ":{"ha":686,"x_min":60,"x_max":626,"o":"m 444 757 q 415 826 443 801 q 343 851 386 851 q 270 826 300 851 q 239 757 240 801 l 165 757 q 217 876 167 832 q 343 921 268 921 q 467 876 417 921 q 519 757 518 832 l 444 757 m 192 518 q 153 331 153 440 q 178 175 153 242 q 267 69 203 99 q 343 53 300 53 q 475 111 428 53 q 528 249 517 163 q 533 331 533 282 q 508 485 533 415 q 419 590 481 561 q 343 606 382 606 q 192 518 235 606 m 549 584 q 588 539 549 584 q 626 331 626 494 q 551 76 626 167 q 343 -15 475 -15 q 135 75 211 -15 q 60 329 60 165 q 136 584 60 494 q 343 674 213 674 q 549 584 472 674 z "},"Ș":{"ha":783,"x_min":29,"x_max":746,"o":"m 332 -207 l 332 -99 l 460 -99 l 460 -201 q 435 -305 460 -256 q 389 -354 411 -354 l 358 -340 q 403 -207 401 -308 l 332 -207 m 725 793 l 657 742 q 555 843 619 807 q 411 879 490 879 q 244 840 306 879 q 183 726 183 801 q 229 631 183 669 q 338 575 269 597 q 395 556 347 572 q 460 535 443 540 q 531 506 503 517 q 646 447 599 478 q 719 368 694 415 q 746 253 746 318 q 651 56 746 128 q 396 -15 557 -15 q 215 19 300 -15 q 68 139 114 61 q 29 240 39 185 l 108 275 q 403 65 165 65 q 539 90 478 65 q 633 176 608 117 q 647 250 647 206 q 626 338 647 290 q 594 369 618 353 q 558 394 568 386 q 449 442 543 404 q 378 467 431 447 q 364 471 368 468 q 277 503 306 492 q 208 535 249 514 q 147 574 167 556 q 109 622 126 593 q 86 688 92 651 q 85 719 85 697 q 182 899 85 838 q 399 956 272 956 q 725 793 624 956 z "},"ș":{"ha":599,"x_min":43,"x_max":547,"o":"m 222 -207 l 222 -99 l 350 -99 l 350 -201 q 326 -305 350 -256 q 279 -354 301 -354 l 249 -340 q 293 -207 292 -308 l 222 -207 m 479 510 q 314 604 440 604 q 151 489 151 604 q 183 421 151 447 q 268 386 208 397 q 324 374 290 379 q 493 309 439 353 q 547 185 547 265 q 286 -15 547 -15 q 140 18 203 -15 q 43 146 68 57 l 113 172 q 178 82 136 110 q 296 54 221 54 q 464 167 464 54 q 425 254 464 228 q 263 304 386 279 q 147 344 200 318 q 76 424 99 367 q 65 490 65 454 q 132 624 65 575 q 308 674 199 674 q 453 644 399 674 q 542 544 508 614 l 479 510 z "},"Ț":{"ha":721,"x_min":6,"x_max":715,"o":"m 296 -192 l 296 -83 l 424 -83 l 424 -186 q 399 -290 424 -240 q 353 -339 375 -339 l 322 -325 q 367 -192 365 -293 l 296 -192 m 6 871 l 6 943 l 715 943 l 715 871 l 410 871 l 410 0 l 311 0 l 311 871 l 6 871 z "},"ț":{"ha":414,"x_min":25,"x_max":399,"o":"m 221 -203 l 221 -94 l 349 -94 l 349 -197 q 324 -301 349 -251 q 278 -350 300 -350 l 247 -336 q 292 -203 290 -304 l 221 -203 m 399 21 q 285 -11 350 -11 q 160 41 199 -11 q 122 210 122 93 l 122 594 l 25 594 l 25 660 l 129 660 l 129 869 l 215 893 l 215 660 l 358 660 l 358 594 l 215 594 l 215 168 q 304 58 215 58 q 382 81 333 58 l 399 21 z "},"ȷ":{"ha":342,"x_min":21,"x_max":260,"o":"m 169 660 l 260 660 l 260 -8 q 236 -157 260 -108 q 118 -210 211 -210 q 21 -181 69 -210 l 38 -122 q 107 -137 79 -137 q 169 -56 169 -137 l 169 660 z "},"̇":{"ha":347,"x_min":94,"x_max":251,"o":"m 103 858 q 94 897 94 878 q 116 955 94 932 q 174 978 138 978 q 231 955 210 978 q 251 897 251 932 q 231 840 251 863 q 172 817 210 817 q 103 858 122 817 z "},"̏":{"ha":479,"x_min":47,"x_max":438,"o":"m 240 963 l 357 963 l 438 754 l 393 754 l 240 963 m 47 963 l 165 963 l 246 754 l 197 754 l 47 963 z "},"̑":{"ha":518,"x_min":82,"x_max":436,"o":"m 361 763 q 331 832 360 807 q 260 857 303 857 q 187 832 217 857 q 156 763 157 807 l 82 763 q 134 882 83 838 q 260 926 185 926 q 384 882 333 926 q 436 763 435 838 l 361 763 z "},"̦":{"ha":264,"x_min":65,"x_max":193,"o":"m 65 -108 l 65 0 l 193 0 l 193 -103 q 169 -206 193 -157 q 122 -256 144 -256 l 92 -242 q 136 -108 135 -210 l 65 -108 z "},"μ":{"ha":721,"x_min":88,"x_max":633,"o":"m 542 660 l 633 660 l 633 0 l 557 0 l 543 103 q 338 -17 474 -17 q 182 56 246 -17 l 182 -144 l 88 -144 l 88 660 l 182 660 l 182 281 q 335 56 182 56 q 482 115 429 56 q 538 231 524 164 q 542 281 542 258 l 542 660 z "},"।":{"ha":329,"x_min":128,"x_max":188,"o":"m 128 -196 l 128 799 l 188 799 l 188 -196 l 128 -196 z "},"॥":{"ha":485,"x_min":103,"x_max":363,"o":"m 303 -196 l 303 799 l 363 799 l 363 -196 l 303 -196 m 103 -193 l 103 800 l 161 800 l 161 -193 l 103 -193 z "},"⁴":{"ha":929,"x_min":154,"x_max":518,"o":"m 381 647 l 381 875 l 226 647 l 381 647 m 154 594 l 154 639 l 360 943 l 454 943 l 454 647 l 518 647 l 518 594 l 454 594 l 454 497 l 381 497 l 381 594 l 154 594 z "},"◌":{"ha":889,"x_min":83,"x_max":806,"o":"m 444 47 q 628 106 550 47 q 644 85 632 100 q 664 61 657 71 q 567 7 614 29 q 444 -14 497 -14 l 433 -14 q 418 -12 419 -14 l 421 47 l 435 47 l 444 47 m 196 179 q 372 56 263 82 l 357 -4 q 235 53 294 13 l 236 53 q 144 146 181 90 l 196 179 m 806 340 q 706 97 801 200 l 664 140 q 744 340 742 222 l 806 340 m 144 210 l 117 194 q 83 347 83 269 q 100 457 83 399 l 157 436 q 144 347 144 392 q 172 224 144 292 q 144 210 154 215 m 740 389 q 638 578 728 504 l 657 603 l 675 626 q 760 524 735 571 q 803 397 786 478 l 740 389 m 336 628 q 178 483 229 588 l 122 513 q 315 683 178 631 l 336 628 m 372 703 q 444 710 417 710 q 631 660 543 710 l 597 607 q 444 646 529 646 q 385 640 414 646 l 372 703 z "},"ų":{"ha":721,"x_min":78,"x_max":615,"o":"m 342 -7 q 328 -40 340 -8 q 319 -57 325 -46 q 307 -89 311 -76 l 301 -106 q 293 -135 294 -128 q 292 -149 292 -140 q 339 -189 292 -189 q 363 -186 343 -189 l 363 -239 q 319 -244 342 -244 q 243 -221 272 -244 q 214 -162 214 -197 q 241 -75 214 -124 q 296 -7 268 -26 l 342 -7 m 524 660 l 615 660 l 615 0 l 526 0 l 526 124 q 436 22 501 58 q 296 -15 371 -15 q 164 21 211 -15 q 100 110 119 53 q 79 224 82 163 q 78 281 78 240 l 78 660 l 169 660 l 169 261 q 202 106 169 157 q 311 56 235 56 q 460 114 404 56 q 519 226 507 161 q 524 281 524 253 l 524 660 z "},"ů":{"ha":721,"x_min":78,"x_max":615,"o":"m 344 811 q 402 836 381 811 q 424 896 424 861 q 402 956 424 931 q 344 981 381 981 q 287 956 308 981 q 265 896 265 931 q 285 836 265 864 q 344 811 307 811 m 452 995 q 472 975 452 995 q 492 897 492 956 q 451 798 492 839 q 344 757 411 757 q 240 797 279 757 q 201 896 201 838 q 240 994 201 954 q 344 1035 279 1035 q 452 995 413 1035 m 524 660 l 615 660 l 615 0 l 526 0 l 526 124 q 436 22 501 58 q 296 -15 371 -15 q 164 21 211 -15 q 100 110 119 53 q 79 224 82 163 q 78 281 78 240 l 78 660 l 169 660 l 169 261 q 202 106 169 157 q 311 56 235 56 q 460 114 404 56 q 519 226 507 161 q 524 281 524 253 l 524 660 z "},"v":{"ha":614,"x_min":14,"x_max":596,"o":"m 508 660 l 596 660 l 343 0 l 261 0 l 14 660 l 113 660 l 306 97 l 508 660 z "},"w":{"ha":958,"x_min":13,"x_max":942,"o":"m 225 0 l 13 660 l 111 660 l 272 114 l 343 331 l 451 660 l 513 660 l 613 332 l 681 115 l 853 660 l 942 660 l 718 0 l 636 0 l 478 515 l 307 0 l 225 0 z "},"x":{"ha":622,"x_min":19,"x_max":604,"o":"m 261 331 l 22 660 l 121 660 l 310 390 l 500 660 l 596 660 l 358 333 l 604 0 l 506 0 l 310 271 l 117 0 l 19 0 l 261 331 z "},"y":{"ha":635,"x_min":22,"x_max":615,"o":"m 275 40 l 22 660 l 117 660 q 153 565 129 628 q 189 472 157 556 q 242 338 221 389 q 291 212 263 285 q 321 136 319 139 q 525 660 440 442 l 615 660 q 488 340 593 601 q 376 63 396 114 q 296 -106 339 -39 q 188 -193 254 -172 q 110 -206 153 -206 q 40 -197 75 -206 l 51 -124 q 108 -129 78 -129 q 260 -1 215 -129 l 275 40 z "},"ý":{"ha":635,"x_min":22,"x_max":615,"o":"m 421 965 l 546 965 l 349 757 l 289 757 l 421 965 m 275 40 l 22 660 l 117 660 q 153 565 129 628 q 189 472 157 556 q 242 338 221 389 q 291 212 263 285 q 321 136 319 139 q 525 660 440 442 l 615 660 q 488 340 593 601 q 376 63 396 114 q 296 -106 339 -39 q 188 -193 254 -172 q 110 -206 153 -206 q 40 -197 75 -206 l 51 -124 q 108 -129 78 -129 q 260 -1 215 -129 l 275 40 z "},"ÿ":{"ha":635,"x_min":22,"x_max":615,"o":"m 143 869 l 250 869 l 250 757 l 143 757 l 143 869 m 493 869 l 493 757 l 386 757 l 386 869 l 493 869 m 275 40 l 22 660 l 117 660 q 153 565 129 628 q 189 472 157 556 q 242 338 221 389 q 291 212 263 285 q 321 136 319 139 q 525 660 440 442 l 615 660 q 488 340 593 601 q 376 63 396 114 q 296 -106 339 -39 q 188 -193 254 -172 q 110 -206 153 -206 q 40 -197 75 -206 l 51 -124 q 108 -129 78 -129 q 260 -1 215 -129 l 275 40 z "},"¥":{"ha":875,"x_min":61,"x_max":814,"o":"m 224 351 l 224 407 l 360 407 l 61 925 l 163 925 l 438 439 l 714 925 l 814 925 l 514 407 l 646 407 l 646 351 l 485 351 l 485 271 l 646 271 l 646 215 l 485 215 l 485 0 l 390 0 l 390 215 l 224 215 l 224 271 l 390 271 l 390 351 l 224 351 z "},"z":{"ha":567,"x_min":42,"x_max":539,"o":"m 56 593 l 56 660 l 539 660 l 539 597 l 146 65 l 538 65 l 538 0 l 42 0 l 42 61 l 431 593 l 56 593 z "},"ź":{"ha":567,"x_min":42,"x_max":539,"o":"m 400 965 l 525 965 l 328 757 l 268 757 l 400 965 m 56 593 l 56 660 l 539 660 l 539 597 l 146 65 l 538 65 l 538 0 l 42 0 l 42 61 l 431 593 l 56 593 z "},"ž":{"ha":567,"x_min":42,"x_max":539,"o":"m 358 757 l 233 757 l 140 965 l 199 965 l 297 817 l 393 965 l 453 965 l 358 757 m 56 593 l 56 660 l 539 660 l 539 597 l 146 65 l 538 65 l 538 0 l 42 0 l 42 61 l 431 593 l 56 593 z "},"ż":{"ha":567,"x_min":42,"x_max":539,"o":"m 240 895 q 250 907 240 895 q 297 918 261 918 q 354 895 333 918 q 375 838 375 872 q 354 780 375 803 q 297 757 333 757 q 240 780 261 757 q 218 838 218 803 q 240 895 218 872 m 56 593 l 56 660 l 539 660 l 539 597 l 146 65 l 538 65 l 538 0 l 42 0 l 42 61 l 431 593 l 56 593 z "}}}
